<?xml version="1.0" encoding="UTF-8"?><svg id="uuid-f5c92243-6f6e-4606-9e7f-3231d992a41b" xmlns="http://www.w3.org/2000/svg" width="111.2754" height="112.3278" xmlns:xlink="http://www.w3.org/1999/xlink" viewBox="0 0 111.2754 112.3278"><defs><style>.uuid-23042445-ecaf-4850-bfd1-69e7a68c0f67{fill:url(#uuid-da871d8a-3b95-46e8-aea1-35dd7b95d013);}.uuid-d556778e-7669-4664-b3d4-c183a5d60bc0{fill:url(#uuid-cc04595e-b87d-497d-80fd-9bea7f652f3b);}</style><linearGradient id="uuid-cc04595e-b87d-497d-80fd-9bea7f652f3b" x1="1434.2727" y1="1740.7497" x2="1543.289" y2="1834.5436" gradientTransform="translate(-809.4044 -985.559) scale(.5625)" gradientUnits="userSpaceOnUse"><stop offset="0" stop-color="#5a9fd4"/><stop offset="1" stop-color="#306998"/></linearGradient><linearGradient id="uuid-da871d8a-3b95-46e8-aea1-35dd7b95d013" x1="1585.4493" y1="1891.3166" x2="1546.5196" y2="1836.2378" gradientTransform="translate(-809.4044 -985.559) scale(.5625)" gradientUnits="userSpaceOnUse"><stop offset="0" stop-color="#ffd43b"/><stop offset="1" stop-color="#ffe873"/></linearGradient></defs><path id="uuid-b795f1c4-d0d0-40ac-92a9-258d32c80afd" class="uuid-d556778e-7669-4664-b3d4-c183a5d60bc0" d="M55.0127,0c-4.6,0-9,.4-12.8,1.1-11.3,2-13.4,6.2-13.4,13.9v10.2h26.8v3.4H18.7127c-7.8,0-14.6,4.7-16.8,13.6-2.5,10.2-2.6,16.6,0,27.2,1.9,7.9,6.5,13.6,14.2,13.6h9.2v-12.2c0-8.8,7.7-16.7,16.8-16.7h26.8c7.5,0,13.4-6.1,13.4-13.6V15c0-7.3-6.1-12.7-13.4-13.9-4.5-.8-9.3-1.1-13.9-1.1Zm-14.5,8.2c2.8,0,5,2.3,5,5.1s-2.3,5.1-5,5.1c-2.8,0-5-2.3-5-5.1s2.2-5.1,5-5.1Z"/><path id="uuid-01dbf838-81e1-48ac-b091-1d566d4127a3" class="uuid-23042445-ecaf-4850-bfd1-69e7a68c0f67" d="M85.7127,28.7v11.9c0,9.2-7.8,17-16.8,17h-26.7c-7.3,0-13.4,6.3-13.4,13.6v25.5c0,7.3,6.3,11.5,13.4,13.6,8.5,2.5,16.6,2.9,26.8,0,6.8-2,13.4-5.9,13.4-13.6v-10.2h-26.8v-3.4h40.2c7.8,0,10.7-5.4,13.4-13.6,2.8-8.4,2.7-16.5,0-27.2-1.9-7.8-5.6-13.6-13.4-13.6h-10.1Zm-15,64.6c2.8,0,5,2.3,5,5.1s-2.3,5.1-5,5.1c-2.8,0-5-2.3-5-5.1-.1-2.8,2.2-5.1,5-5.1Z"/></svg>