<?xml version="1.0" encoding="UTF-8"?><svg id="uuid-786d8779-30f7-4d1f-b8d7-72203f00e460" xmlns="http://www.w3.org/2000/svg" width="325.7" height="367.8" viewBox="0 0 325.7 367.8"><defs><style>.uuid-ee026607-ddaf-49ca-9779-29359a368e89{fill:#4c4c4c;}.uuid-c5eac0df-bad4-4a0b-ad4b-d63cfb650669{fill:gray;}</style></defs><g id="uuid-692fcf46-cf9d-4f56-b0d8-5e8a2c356907"><path id="uuid-74ee4535-bad6-4e79-bce2-a87d773dbc9e" class="uuid-ee026607-ddaf-49ca-9779-29359a368e89" d="M325.7,257.5V85.8L177,0V65.9l58.2,33.7c2.3,1.5,2.3,4.6,0,5.4l-69,39.8c-2.3,1.5-4.6,.8-6.1,0l-69-39.8c-2.3-.8-2.3-4.6,0-5.4l58.2-33.7V0L0,85.8v171.6l56.7-33v-67.4c0-2.3,3.1-3.8,4.6-3.1l69,39.8c2.3,1.5,3.1,3.1,3.1,5.4v79.7c0,2.3-3.1,3.8-4.6,3.1l-58.2-33.7-56.7,33,148.7,86.6,148.5-85.8-56.7-33-58.2,33.7c-2.3,1.5-4.6,0-4.6-3.1v-79.6c0-2.3,1.5-4.6,3.1-5.4l69-39.8c2.3-1.5,4.6,0,4.6,3.1v67.4l57.4,32.2Z"/><path id="uuid-5910fc13-a7f3-4984-a3a7-9f808d7ffdd8" d="M162.5,367.8l148.6-85.8-56.7-33-58.2,33.7c-2.3,1.5-4.6,0-4.6-3.1v-79.6c0-2.3,1.5-4.6,3.1-5.4l69-39.8c2.3-1.5,4.6,0,4.6,3.1v67.4l56.7,33V85.8l-162.5,94.3v187.7h0Z"/><path id="uuid-a5eeaeca-0464-4312-8046-8b9793c92941" class="uuid-c5eac0df-bad4-4a0b-ad4b-d63cfb650669" d="M177,0V65.9l58.2,33.7c2.3,1.5,2.3,4.6,0,5.4l-69,39.8c-2.3,1.5-4.6,.8-6.1,0l-69-39.8c-2.3-.8-2.3-4.6,0-5.4l58.2-33.7V0L0,85.8l162.5,94.3,162.5-94.3L177,0Z"/><path id="uuid-3a8da52e-9c88-41ff-a938-4704079324b1" class="uuid-ee026607-ddaf-49ca-9779-29359a368e89" d="M129.5,282.8l-58.2-33.8-56.7,33,148.7,85.8V180.1L0,85.8v171.6l56.7-33v-67.4c0-2.3,3.1-3.8,4.6-3.1l69,39.8c2.3,1.5,3.1,3.1,3.1,5.4v79.7c.7,3.2-1.6,5.5-3.9,4Z"/></g></svg>