<?xml version="1.0" encoding="utf-8"?>
<!-- Generator: Adobe Illustrator 26.5.0, SVG Export Plug-In . SVG Version: 6.00 Build 0)  -->
<svg version="1.1" id="uuid-a8ee1cea-003c-4e6a-b818-673467ec863e"
	 xmlns="http://www.w3.org/2000/svg" xmlns:xlink="http://www.w3.org/1999/xlink" x="0px" y="0px" viewBox="0 0 1554 987.3"
	 style="enable-background:new 0 0 1554 987.3;" xml:space="preserve">
<style type="text/css">
	.st0{fill:#FFFFFF;}
</style>
<path class="st0" d="M762.5,335.2L762.5,335.2z"/>
<g>
	<polygon class="st0" points="859.4,706.4 960.1,706.7 974.4,561.4 866.1,561.1 	"/>
	<polygon class="st0" points="577.3,560.3 608.5,897 699.3,897.3 685.6,560.6 	"/>
	<path class="st0" d="M266.8,353.9c-6.6-20.8-12.9-35.9-19-45.3c-11.3-5.6-28.1-9.7-50.3-12.4c-4.3-0.5-8.6-0.7-12.9-0.5
		c-14.3,0.6-28,4.4-41.3,11.3c-24.1,12.8-38.5,30.7-43.3,53.8c-0.9,4.7-1.2,9.5-1,14.5c0.8,18.2,8,34.9,21.6,50.3
		c10.6,11.9,23.2,20.5,37.9,25.8c4.3,1.6,8.8,2.9,13.4,3.9c6.1,1.5,12,2.2,17.8,1.9c4.6-0.2,9.8-0.9,15.4-2.2
		c16.3-3.2,30.6-10.9,43-23.2l0,0c3.4-3.6,6.4-7.4,9-11.3c9.2-13.7,13.4-28.9,12.7-45.9C269.5,367.9,268.5,361,266.8,353.9z
		 M172.4,434.9c-14.7-3.9-26.8-11.3-36.9-22.6c-10.6-11.9-16-24.2-16.6-37.8c-0.1-3.4,0.1-6.7,0.7-9.8c1.8-8.5,5.4-16,10.8-22.6
		c5.5-6.6,12.8-12.4,22.1-17.3c10.7-5.6,21.5-8.6,32.8-9.1c0.8,0,1.7,0,2.5,0c2.3,0,4.7,0.2,7.2,0.5c19.4,2.3,31.4,5.5,38.7,8.2
		c3.4,6.5,8.1,17.2,13.7,34.9c1.3,5.5,2.1,11,2.3,16.2c0.7,16.2-4.6,30-16.1,42.4c-3.2,3.2-6.6,6-10.2,8.4L172.4,434.9z"/>
	<path class="st0" d="M1459.2,85.1c-40.8-7.2-82.6,60-112.1,122.2C1496.8,255,1531.4,97.8,1459.2,85.1z M1475.3,137.5
		c-2.5,28.4-27.3,59-75.6,58.8c-7.5,0-15.5-0.8-23.7-2.3c42.7-82.7,69.6-89.5,77.2-89.4c0.9,0,1.7,0.1,2.6,0.2
		C1476.3,108.5,1475.9,130.8,1475.3,137.5z"/>
	<path class="st0" d="M1552.8,119.7c-6-40.5-33.2-68.5-72.7-75.1c-3.5-0.6-7.1-0.9-10.7-0.9c-27-0.1-55.3,16.1-84.2,48
		c-19.8,21.9-39.9,50.9-59.6,86.4c-12.7-4.9-25.6-10-38.5-15c7.4-27.1,12.1-45.1,14.3-54.8c2.7-12.2,3.9-20.3,3.6-26.2
		c-0.4-9.3-4.5-22.8-21.7-33.9c-10.8-7-22-10.5-33.2-10.5c-0.8,0-1.6,0-2.3,0.1c-9.2,0.4-17.6,3.7-24.5,9.7l-0.3,0.2
		c-6.4,5.8-12.4,16.4-20.9,49.2c-2.4,9.1-5,20-7.8,32.6c-72.6-23.9-128.4-34.7-178.7-34.8c-54.7-0.1-101,12.7-141.5,39.1l-1.5,1
		l-1.3,1.2c-13.2,12.5-11.5,23.7-9.3,29.2c2.6,6.6,9.6,13.7,21.2,13.7c5.6,0,13.9-1.3,36.4-11.1c11.8-5.1,44.6-17.1,94-17
		c51.2,0.1,104.2,12.9,157.3,37.9c3.3,1.6,6.6,3.1,9.9,4.6c-0.3,1.6-0.6,3.1-1,4.7c-1.3,6.5-2.4,12.1-3.4,16.9
		c-5.8-1.8-12.2-2.7-19-2.7c-1.2,0-2.4,0-3.6,0.1c-12.8,0.5-22.9,3.5-31,9.1c-29,19-47.2,50.2-53.9,92.6
		c-4.5,7.8-10.3,18.5-17.8,32.8c-3.8,6.8-8.2,13.4-13.2,19.7c9.4-29,15.6-49,18.8-61c4.1-15.2,5.8-25.2,5.5-32.4l-0.1-1.9l0-0.3
		c-1.3-17.8-11-31.8-27.3-39.5c-7-3.4-14.2-5.1-21.5-5.1c-0.7,0-1.3,0-2,0c-5.9,0.3-11.4,1.7-16.2,4.4l-1.1,0.6l-1,0.8
		c-1.7,1.2-3.2,2.7-4.7,4.3c-11.1-6.8-22.7-10.3-34.7-10.3c-0.9,0-1.8,0-2.8,0.1c-8.4,0.4-16.6,2.7-24.2,6.9l-0.8,0.4l-0.7,0.5
		c-6,4.1-12.2,9.8-18.9,17.5l-0.2,0.2l-0.2,0.2c-9.6,11.8-17.2,24.6-22.6,38.2c-0.3,0.2-0.6,0.5-0.9,0.7c-0.8,0.6-1.9,1.3-3.5,2.2
		c-0.9-16.1-3.3-30.5-7.3-42.9l-0.5-1.7l-0.9-1.6c-13.1-24.6-29.4-37.1-48.3-37.1c-0.6,0-1.2,0-1.8,0c-2.9,0.1-5.7,0.6-8.5,1.3
		c3.7-11.5,7.5-22.7,11.2-33.2c13.6-36.5,14.9-50.5,14.6-58.5c-0.4-9.5-3.4-17.6-8.9-24.1C816.2,80.4,802.3,73,786.9,73
		c-0.7,0-1.4,0-2.1,0c-9.5,0.4-18.1,3.8-24.9,9.7l-1.7,1.5l-1.3,1.9c-12.4,17.2-26.2,47.9-42.4,94.1l-0.1,0.3l-0.1,0.3
		c-14.7,46.2-24.2,92.1-28.4,136.5c-2,3.2-4.2,6.8-6.5,10.7c-4.1,6.9-8.4,14.2-12.7,21.9c0.9-3.1,1.7-5.9,2.4-8.5
		c4.1-14.6,6.8-25.8,8-34.3c1.9-11.7,2.7-22.4,2.3-31.9c-1.7-40.4-22.6-56-39.9-62l-0.9-0.3l-0.9-0.2c-3.8-0.9-7.2-1.4-10.4-1.4
		c-0.5,0-1,0-1.6,0c-4,0.2-8.1,1-12.3,2.3l-1.6,0.5l-1.5,0.8c-16.2,8.6-31.6,25.1-46.7,49.8c-0.9-0.8-1.8-1.7-2.8-2.4l-0.3-0.2
		c-10.6-8.3-21.5-12.5-32.5-12.5c-0.6,0-1.3,0-1.9,0c-8.3,0.4-16.1,3.4-22.6,8.9l-1.4,1.2l-1.1,1.4c-8.4,10.1-14.9,26.6-20.5,51.9
		l-0.1,0.4l-0.1,0.4c-1.5,8.4-2.7,16.7-3.7,24.8c-1.9,3.1-4,6.4-6.2,10.2c8.3-24.7,9.3-34.5,9-40.8c-0.2-4.4-1.1-8.6-2.8-12.5
		c-3.4-8.6-8.8-16.1-16.2-22.3c7.8-0.5,15-3.2,21.6-8.2l0.4-0.3l0.4-0.3c16-13.6,18.8-28.7,18.4-39c-0.3-8.4-3-16.3-7.8-23.3
		l-0.8-1.2l-1-1c-16.1-17.5-32.8-26.3-49.6-26.4c-0.7,0-1.4,0-2.1,0c-16.7,0.7-34.9,11.5-36,39.7l0,0.8l0.2,4.5
		c0.5,11.6,4.3,26.6,18,39.3h-0.2c-0.7,0-1.4,0-2.1,0c-12,0.5-19.7,5.6-24,9.7l-2.6,2.5l-1.6,3.3c-6.4,13.2-11.4,29-15.1,47.9h-0.8
		c-11.2,0-23.8-2.1-37.3-6.3l-0.3-0.1l-0.3-0.1c-4.5-1.2-7.6-2.2-9.6-2.9c-0.4-1.1-0.9-2.3-1.5-3.6c-2.2-5.3-4.9-11.5-8.1-18.3
		c-17.2-37.3-26.4-66.4-27.2-86.5c-0.2-3.8-0.2-6.7-0.1-8.9c14.8-4.3,33.5-15.1,58.6-33.7l0.9-0.7l0.8-0.8
		c9.3-8.6,17.9-17.4,25.8-26.1c4-1.2,7.7-3.3,10.7-6.4l7.7-7.9c3.9-4,6.2-9.2,6.6-14.5c2.2-1.5,4.1-3.3,5.9-5.4
		c5-6.1,7.3-13.8,6.3-21.7c-0.6-4.3-2.1-8.5-4.5-12.1c0.3-1,0.6-2.1,0.8-3.2c1.3-7.6-1-15.3-6.1-21.3C372.4,3.1,310.9,0,292.9,0
		c-9.5,0-33.3,0.7-47.7,7.8C229.5,15.5,221,30.7,222,49.3c0.1,2.4,0.4,4.7,0.8,6.8c-13.2,6.2-23.7,13.1-30.2,19.9
		c-14.3,15-18.2,35.5-11.1,57.7c0.2,0.7,0.5,1.4,0.7,2.1c-6.7-2-14.3-3-22.8-3c-3.1,0-6.3,0.1-9.6,0.4C127,135,108,148.6,91.2,160.5
		c-13.9,9.9-27.1,19.3-38.1,19.2c-2.1,0-8.3,0-17.8-8L0,142.3l2.5,46c0.1,1.1,0.7,11.2,4,22.9c6.8,24.1,29.1,41,54.2,41.1
		c6.1,0,12.1-1,17.9-2.9c15.1-5,36.5-14.7,52.8-32.6c6.2-6.9,15.8-10.8,26.3-10.8c9.2,0,17.4,3.3,20.4,8.1l1,1.5l0.6,0.7
		c3.4,4.2,8.2,6.8,13.4,7.6c3.3,14,8.1,28.1,14.3,42.3c-6.6-0.8-13.2-1.2-19.7-1.3c-2.4,0-4.8,0-7.1,0.1c-14.8,0.6-28.9,3.3-42.1,8
		l-0.5,0.2c-24.3,9.4-43.3,23.3-56.3,41.3c-13.2,18.2-19.5,38.6-18.9,60.8l-0.1,0c-6.5,43.2,2.9,80.1,28.1,109.4
		c23.3,27.1,56.5,43.8,90.8,53.9l118.8,446l230.5,0.6l27.8,0.1L761,986l27.3,0.1l86.2,0.2l5.3-114.3l24.7,114.4l86,0.2l27.8,0.1
		l230.5,0.6l31.7-116.4l-60.2-61.3l44.9,0.1l33.2-130.2l-122.2-78.4l2.1-11.2l178.6,0.5l40.6-149.2l-119.8-20
		c6.2-8.2,12.2-17.9,18-29c14.8-28.6,24.7-60.2,28.5-73.3c1-2.8,1.8-5.2,2.2-7.4c2.2-6.4,9.8-28.3,21.3-56c22.2,5,42.1,7.5,60.4,7.5
		h0c38.9,0.1,66.7-11.2,86.6-21c20.2-10,37.3-28.6,47.9-52.3C1552.6,167.4,1556.2,142.5,1552.8,119.7z M440.7,193.5
		c11.4-0.5,23.5,6.2,36.2,19.9c2.7,3.8,4.1,8.1,4.3,12.7c0.4,8.5-3.4,16.2-11.4,23c-3.5,2.7-7.2,4-11.1,4.2
		c-3.6,0.1-7.7-0.8-12.4-2.7v0c-14.2-7.6-21.7-18.6-22.2-32.8l-0.2-3.7C424.4,200.8,430,194,440.7,193.5z M381.4,105l-7.7,8
		c-1.4,1.4-3.6,1.6-5.1,0.4c-5.6-4.4-19.7-13.9-38.1-16.3c0,0,11.6-1.5,24.5-1.5c8.9,0,18.4,0.7,25.1,3.2
		C382.6,99.7,383.3,103.1,381.4,105z M254,25.7c20.1-9.9,102.3-10.6,135.5,28c2.5,2.9,2.1,6.8-1,8.6c-2.3,1.4-5.9,1.7-11.2-1.2
		c-4.7-2.6-9.6-4.7-14.9-5.9h0c-12.9-3-36.5-7.6-60.3-7.6c-21.4,0-42.9,3.7-56.7,15.6C245.4,63.2,233.4,35.9,254,25.7z M195.1,203.6
		L195.1,203.6c-13.8-22-56.2-24.6-78.5-0.2c-13,14.3-30.6,22.5-44.2,27c-19.7,6.5-40.9-4.7-46.6-24.7c-2.8-10-3.3-18.6-3.3-18.6
		c48.9,40.9,83.6-30.5,128.9-33.9c45.3-3.4,44.2,23.2,44.2,23.2l2.1,26.4C197.8,204.3,195.9,204.9,195.1,203.6z M207,89.9
		c21.7-22.8,126.2-58.4,183.7-16.5c4.3,3.1,5.4,8.9,2.1,12.9c-2.4,2.9-6.8,5-14.7,2.9c-7-1.8-14.1-2.7-21.3-2.3
		c-33.4,2.1-118.6,12.1-146,60.9C210.8,147.9,184.7,113.3,207,89.9z M175.6,515.7c-60.9-21.2-104.2-63.3-93-137.2
		c0,1.3,0.4,80,87.3,115.8c9.5,3.9,20,7.3,31.6,10c48.8,11.4,117.8,11,215-12.5c14.4-3.5,28.1-6.5,41.2-9.2
		c12.8-2.6,25-4.8,36.6-6.6c253.8-39.9,237.3,91.8,237.3,91.8s-2.7,10.9-36.5-35.2c-33.2-45.4-116.2-51.8-198.3-36.7
		c-12.1,2.2-24.1,4.9-36,8.1c-12.9,3.4-25.6,7.2-37.8,11.5c-49.8,17.4-140.5,26-216.1,9.2C196.1,522.1,185.6,519.2,175.6,515.7z
		 M342,379.7c-0.2-3.7-0.5-8-1-12.6c10.1,2.3,19.9,3.6,29.3,4.1c0,1.7,0,3.5,0.1,5.2c0.4,8.7,1.4,16.9,3.1,24.5l-34.2,5.8
		c0.1-0.5,0.2-1,0.3-1.6C341.6,397.8,342.4,389.5,342,379.7z M435.9,466.6c-7.9,1.7-15.9,3.6-24.1,5.6
		c-53.2,12.9-100.8,19.4-141.6,19.3c-0.4,0-0.9,0-1.3,0c15.1-6.6,27.9-15,38.4-25.2L435.9,466.6z M322,956.8L212.7,546.1
		c30.5,5.8,59.8,7.3,81.8,7.4c49.5,0.1,100-7.1,135.1-19.4c11.1-3.9,22.6-7.4,34.1-10.5l17.6,121.9l-69.2-0.2l-15.4-85.6l-108.3-0.3
		l78,336.9l90.8,0.2l-11.7-65.1l62.8,0.2l18.2,125.6L322,956.8z M555.7,957.4l-56.3-441.8c25.6-4.8,50.8-7.3,73.8-7.2
		c51.4,0.2,89,12.9,105.8,35.9c27.4,37.4,39,44.5,50.8,44.5c10.2,0,18.9-6.7,21.3-16.4l0.3-1.1l0.1-1.1c0.2-1.6,4.6-39.5-24.9-72.9
		c-10.8-12.3-24.5-22.2-41-29.9l39.5,0.1c1.5,19.9,13.4,33.7,32.4,37.4l2.7,453.1L555.7,957.4z M1017.4,781.1l-23.6,177.5l-58.4-0.2
		l17.5-177.6l-96.9-0.3l-8.2,177.6l-58.4-0.2l5.3-459.6c0.1,0,0.2-0.1,0.3-0.1l1.1-0.6l1-0.7c10-7.3,19.3-16.9,28.3-29.2l196,0.5
		l31.4,47.8l-25.4,190.8l-38,37.8L1017.4,781.1z M1360.9,469.2l-25.4,93.2l-180.5-0.5l-26.9,145.2l134.3,0.4l-18.9,74.2l-129.2-0.4
		l-21.7,117l151.3,0.4l-16.5,60.5l-204.4-0.6l73.8-490.2L1360.9,469.2z M1485.8,224.1c-38,18.8-77.3,27.4-149.9,7.9
		c-17.7,40.6-28.9,74-29.2,75v0.1c0,1-0.5,2.8-1.5,5.4c-5.1,17.9-23.1,75.5-50.3,104.9c-10.7,11.6-22.8,18.8-36.1,17.5c0,0,0,0,0,0
		c0,0,0,0,0,0c-1.8,0.1-4-0.4-6.5-1.3l0,0c-7.4-2.4-13.8-6.8-19-13.1c-3.4-4.1-6.3-9-8.8-14.8c-1.4-3.2-2.6-6.7-3.8-10.4
		c-2.7-12.8-4.3-27.3-5-43.7c-0.4-8.6-0.3-15.9,0.2-22c0.3-1.1,0.5-2,0.4-2.7c0-0.3-0.2-0.5-0.6-0.5c-0.3,0-1.4,1.8-3,5.2
		c-1.6,3.5-4.3,9-7.9,16.7c-10.7,22.7-19.7,39.2-26.8,49.7c-2,3-3.9,5.4-5.6,7.4c-3.4,3.7-7.3,5.7-11.6,5.8
		c-5.3,0.2-10.6-2.1-15.8-6.8c-3.8-3.5-6.9-7.9-9.4-13.5c-1-2.1-1.9-4.4-2.7-6.9c-3.4-12.7-5.4-26.2-6-40.5c0-0.4,0-0.7,0-1.1
		c-3.2,5.6-7,12.2-11.5,19.8c-4.9,8.2-10,15.8-15.1,22.8c-13.4,18-27.4,31.5-42.3,40.7c-2.8,1.5-6,2.4-9.5,2.5
		c-4.6,0.2-8.9-0.7-13-2.7c-6.2-2.4-11-7.8-14.3-16.3c-3.4-8.4-5.4-19.9-6-34.3c-0.1-1.4-0.1-2.8-0.1-4.2
		c-0.2-9.1,0.3-18.6,1.5-28.5c1.1-7.2,1.7-11.7,1.6-13.5l0-1.1L965,346.4c-5,7.8-9.6,14.6-13.6,20.3c-4.3,6.1-8,11-11.2,14.7
		c-6.1,7.2-11.1,11.4-15,12.7l-2.1,0.1c-6.1,0.2-12.8-3.6-20.3-11.5c-4.6-5.4-7.5-13.9-8.8-25.6c-0.3-2.6-0.5-5.4-0.6-8.3l-0.3-6.4
		c0.2-9.1,1.2-17.9,3.1-26.3c-7.3,5.1-16.4,10.1-27.1,15c-6.7,3.1-10.8,5.5-12.6,6.9c-1.2,1.7-2.5,5.7-3.8,12.2
		c-0.1,0.6-0.3,1.2-0.4,1.9c-7.6,31.7-19.9,63.3-36.8,94.7c-5.2,8-10.4,14.9-15.8,20.8c-1.6,1.7-3.2,3.4-4.7,4.9
		c-3.2,3.1-6.4,5.9-9.7,8.2c-5.6,3.1-11.1,4.7-16.4,5c-2.1,0.1-4.1,0-5.9-0.3l0,0c-2-0.3-3.9-0.8-5.6-1.4c-3.1-1.1-5.6-2.8-7.6-5
		c-2.5-2.9-4.1-6.8-4.7-11.6c-0.1-0.9-0.2-1.8-0.2-2.7c-0.1-1.8,0-3.8,0.3-5.9c4.1-38.4,19.6-70.6,46.3-96.7
		c7.2-5,12-11.5,14.2-19.8c0.3-1.3,0.6-2.6,0.9-3.9c8-29.6,12.3-53,12.6-70.2c0.2-3.2,0.3-6.1,0.2-8.6c-0.2-4.6-1-6.9-2.4-6.9
		c-2.1,0.1-5.9,3.5-11.4,10.1c-12.7,14.9-24.8,39.3-36.4,73.3c-7.1,20.8-14,45.2-20.7,73.2c-3.7,14.4-6.5,23.3-8.5,26.6
		c-2,2.2-4.5,3.4-7.3,3.5c-2.5,0.1-5.6-0.7-9.2-2.3c-6.2-2.6-10.9-7.8-14-15.5c-3.2-7.7-5.1-20-5.8-36.7c-0.2-5-0.2-10.3-0.1-16.1
		c0-8,0.2-16,0.6-24c0.1-1.7,0.2-3.4,0.2-5c-1,1.9-2,3.7-3,5.5c-5.7,10.4-10.9,20.3-15.8,29.6c-18.5,35-35.7,56.8-51.4,65.3
		c-3.9,1.9-7,3-9.5,3.1c-2.5,0.1-5.4-0.5-8.6-1.8c-8-3.2-14.1-8.8-18.3-16.8c-4.3-7.9-6.7-18.2-7.2-30.9c-0.4-9,0.2-19,1.7-30.1
		c2.4-17.6,7.2-38,14.3-61.1c4.4-13.8,7.8-25.2,10.1-34.4c2.3-9.2,3.4-14.9,3.3-17l0-0.5l-1.1,0.1c-3.9,0.2-11.7,7.4-23.2,21.9
		c-13.9,20.5-27.1,52.9-39.5,97.2c-2.3,8.2-4.5,16.7-6.8,25.7c-3.7,14.8-6.5,25.1-8.4,30.9c-1.9,5.8-4,10.2-6.4,13.1
		c-2.7,3-5.7,4.5-8.9,4.7c-5,0.2-10.1-2.1-15.3-6.9c-5.2-4.8-9.2-11.4-12.1-19.9c-2-6.3-3.3-15.4-3.8-27.2c-0.1-3.3-0.2-6.7-0.2-10
		c0-5.7,0.1-11.6,0.4-17.5c-3.9,7.3-7.3,13.7-10.2,19.1c-2.1,4-3.9,7.6-5.4,10.7c-15.8,32.1-31,48.4-45.6,49
		c-3.9,0.2-7.9-0.7-11.9-2.7l0,0c-9.7-6.2-17.2-14.6-22.3-25.2c-2.4-5-4.3-10.4-5.8-16.4c-1.6-6.7-2.6-14-2.9-22
		c-0.1-3.2-0.1-6.6,0.1-10.2c0.5-5.2,1-10.1,1.6-15c-3.2,0.4-6.6,0.7-10.2,0.9c-14.6,0.6-30.6-1.6-47.9-6.6l-17.4-5.2l1.3,4.8
		c0.9,3.9,1.9,11.9,3.1,24c0.5,4.6,0.9,8.7,1,12.3c0.3,7.8-0.3,14.5-1.8,19.9c-0.7,3.4-1.5,6.7-2.4,9.9c-7,24.2-21.4,42.8-43.3,55.9
		c-5.9,3.5-12.3,6.6-19.2,9.3c-12.7,3.8-27.1,6-43.1,6.6c-6.2,0.3-11.7,0.2-16.6-0.3c-1.3-0.1-2.6-0.3-3.8-0.4
		c-9.6-1.8-18.7-4.3-27.3-7.4c-32.9-12-57.5-33.7-73.8-65C86,397.7,83.4,386.7,83,376c-0.8-18.2,4.3-34.7,15.1-49.6
		c10.8-14.9,26.6-26.4,47.3-34.4c11.3-4,23.3-6.3,36.1-6.9c15.3-0.6,30.6,1.2,45.8,5.6c7.6,2.2,12.1,3.2,13.5,3.2
		c0-0.7-0.9-3.3-2.7-7.7c-1.8-4.4-4.1-9.9-6.8-16.6C216.8,241,209,213.1,207.9,186c-0.4-9.3-0.4-16.1-0.1-20.5
		c31.7-57.5,110.8-65.1,110.8-65.1s0.7,0,1.9,0.1c-18.6,17.5-32.5,37.2-41.4,59l-2.4,7.1l5.8-1.3c3.9-1.2,10.2-4.2,18.9-8.8
		c22.1-12.1,39.6-27.2,52.5-45.4c3.4,2,6.8,4.3,10.2,7c-7.9,8.9-16.6,17.7-26.2,26.7c-28.1,20.8-48,31.4-59.7,31.9
		c-5.3,0.2-7.7,9.4-6.9,27.6c1,22.8,10.6,54.2,29.1,94.1c3.1,6.7,5.7,12.4,7.7,17.4c2,4.9,3,7.7,3,8.5c0.1,1.4,1.6,2.9,4.7,4.3
		c3.1,1.5,8.6,3.3,16.6,5.5c17.4,5.3,33.4,7.7,48,7.1c3.9-0.2,7.8-0.5,11.8-1c0.5-0.1,0.9-0.1,1.3-0.2c3.6-23.8,8.9-43.1,16.1-57.8
		c2.7-2.6,6.4-4,11.1-4.2c6.8-0.3,14,2,21.7,6.9s13,11,15.8,18.4c0.8,1.8,1.2,3.7,1.3,5.8c0.3,6.8-3.2,20.5-10.6,41.2
		c-5,15.8-8.8,29.1-11.7,40c-0.4,1.6-0.8,3.2-1.2,4.7c-2.9,11.7-4.4,19.9-4.6,24.6c0.2,4.6,0.7,7.8,1.5,9.6c0.7,0.7,1.5,1,2.2,1
		c3.9-0.2,9.5-4.2,16.6-12.2c7.2-8,13.4-17.1,18.7-27.3c1.2-2.2,2.3-4.4,3.5-6.6c8.9-16.7,16.3-29.4,22.2-38.3
		c1-9.2,2.3-18.6,4-28.2c4.8-21.6,10.3-36.1,16.4-43.5c3.1-2.6,6.6-4,10.5-4.2c6.8-0.3,13.8,2.4,21.2,8.2c6.3,5.1,9.6,12.3,10,21.5
		c0.2,5-0.5,10.7-2,17.2c-0.9,4.7-1.3,7.5-1.2,8.6l0,0.5c0.3,0,1.3-1.6,2.7-4.9c1.5-3.3,3.2-7.3,5.1-12c19-40.8,38-66.2,56.8-76.3
		c2.5-0.8,4.8-1.3,6.9-1.4c1.8-0.1,3.9,0.2,6.5,0.8c16.7,5.7,25.5,20.4,26.5,43.9c0.3,8.2-0.3,17.5-2,27.9
		c-1.1,7.5-3.6,18.2-7.5,31.9c-1.5,5.2-3.4,11.7-5.6,19.2c-3.6,12.2-8.3,27.5-13.9,45.8c-1.9,6.2-3.4,11.6-4.4,16.2
		c-1.1,4.7-1.6,7.6-1.5,8.6l0,0.5c0.4,0.3,0.9,0.5,1.6,0.5c3.2-0.1,8.5-2.7,15.8-7.6c11.8-8.7,24.9-26.9,39.5-54.7
		c3.4-6.1,6.7-11.9,9.9-17.4c1.8-3.1,3.6-6.1,5.3-9c3.3-5.5,6.3-10.3,8.9-14.5c3.8-44.7,13.1-90.3,28-137
		c15.3-43.8,28.6-73.5,39.7-89c3.4-3,7.7-4.6,12.6-4.8c9.6-0.4,18.8,4.6,27.4,14.9c2.6,3.1,4,7.2,4.3,12.1
		c0.4,8.9-4.1,25.9-13.4,50.9c-4.5,12.7-8.9,26-13.3,39.9c-4.4,13.9-8.5,27.2-12.3,39.9c-3.8,12.7-6.7,23.5-8.8,32.5
		c-2.1,9-3.2,14.6-3.1,16.7l0,1.1c0.7,0,2.7-3.5,6-10.4c11.9-24.1,23.8-42.6,35.7-55.6c3.8-3.4,8-5.2,12.6-5.3
		c11.4-0.5,22,8.4,31.6,26.5c3.7,11.6,5.9,25.3,6.5,41c0.3,6.8,0.2,12.9-0.3,18.2c-0.6,4.3-0.8,7.2-0.7,8.6l0,1.1
		c1.8-0.1,7.3-2.5,16.6-7.1c9.3-4.7,15.8-8.3,19.6-11c2.1-1.7,4-3.1,5.6-4.1c4.7-13.7,11.9-26.5,21.5-38.3c5.4-6.3,10.4-11,14.9-14
		c4.9-2.7,10-4.2,15.4-4.4c12.5-0.5,24.6,4.5,36.5,15.1l6.7,6.2l3.4-8.7c2.3-5.5,4.4-8.9,6.5-10.5c2.1-1.2,4.6-1.8,7.4-1.9
		c4.6-0.2,9.3,0.9,14.1,3.2c9.8,4.6,15.1,12.2,15.9,22.9l0.1,1.6c0.2,5-1.4,13.8-4.8,26.4c-3.4,12.6-10.5,35.4-21.3,68.4
		c-0.9,2.9-1.7,5.7-2.5,8.3c-3.8,13-6.1,22.3-6.7,28c-0.2,2.9-0.3,5-0.3,6.4c0.1,2.5,1.2,3.3,3.3,2.5c7.1-0.3,16.7-6.4,28.7-18.3
		c4.1-4,7.9-8.2,11.5-12.5c7-8.4,13.2-17.3,18.4-26.7c8.4-16.3,14.9-28.1,19.3-35.6c5.5-38.9,20.8-66.5,45.9-82.8
		c4.8-3.4,11.7-5.3,20.7-5.7c9.6-0.4,17.5,1.4,23.8,5.4l12.6,5.9l1.3-6.5c1.2-5.8,3.6-17.5,7.1-35.1c1.4-7,2.8-13.8,4.1-20.2
		c-7.8-3.5-15.9-7.3-24.2-11.2c-125.2-59-224.3-40.2-267.8-21.2c-47.3,20.6-26.5,1-26.5,1c90.3-59,204.5-36.5,324.1,5
		c4.7-22,8.9-39.9,12.5-53.7c5.8-22.5,10.8-35.7,15-39.5c3.4-3,7.5-4.6,12.1-4.8c7.8-0.3,15.8,2.1,23.9,7.3
		c8.1,5.2,12.2,11.2,12.5,18c0.2,3.9-0.9,10.9-3.2,21c-2.2,10.1-7.4,29.8-15.5,59c-1.1,4.2-2.2,8.3-3.3,12.3
		c22.9,8.7,46,17.8,69,26.7c0.9,0.3,1.8,0.7,2.7,1c42-79.5,94.9-146.6,142-138.8C1558.4,77.8,1544.8,195,1485.8,224.1z"/>
	<path class="st0" d="M1220.7,351.3c-4.8,23.1-6.9,39.6-6.5,49.5c0.2,4.2,0.4,7.5,0.6,9.9c0.2,2.1,0.4,3.5,0.6,4.3
		c0.4,1.6,1.5,2.3,3.3,2.3l1.1,0c2.9-0.1,6.4-1.4,10.3-3.9h0c4.2-2.7,8.9-6.7,14.2-12.1c5.7-5.1,14.2-17.6,25.5-37.4
		c11-39.2,29.7-88.5,52.6-135.7c-19.7-5.9-41.7-13.7-66.6-23.8C1240.3,263.5,1228.7,312.5,1220.7,351.3z M1294.4,240.2
		c-17.8,39.1-33.2,80.2-43.4,115.8c-3.6,6.2-6.6,11.2-9.1,15.2c-2.5,4-4.6,7-6.2,9.2c0.9-6.5,2.4-14.7,4.5-25.1
		c6.9-33.4,16.7-75.1,29.1-124.1C1278,234.5,1286.4,237.5,1294.4,240.2z"/>
	<path class="st0" d="M795.2,371.7c-1.4,0.1-4.8,3.9-10.2,11.4c-5.4,7.5-10.1,15.7-14,24.4c-7.7,21.4-11.3,36.4-11,44.9
		c0.1,2.5,0.5,3.7,1.2,3.7c1.1-0.1,3.6-3.9,7.6-11.6h0c1.8-3.5,3.4-6.6,4.7-9.3c1.3-2.7,2.4-5.1,3.2-7.1c1-1.8,2.5-5.6,4.6-11.4
		c2.1-5.8,4.2-12,6.5-18.5c2.2-6.5,4.2-12.3,6-17.4c1.8-5.1,2.6-7.8,2.6-8.2C796.2,372,795.9,371.6,795.2,371.7z"/>
	<path class="st0" d="M1179.7,267.3c-5.3,0.2-14.9,10.8-28.7,31.7c-4.7,8.1-9,16.3-12.9,24.6c-11.9,32.3-17.6,53.6-17.2,63.9
		c0.1,2.1,0.5,3.2,1.2,3.2c1.1,0,4-2.9,8.8-8.4l0,0c9-12.2,17.6-26.3,25.8-42.3c8.3-16.1,16.2-34.1,23.7-54
		c2.2-6.2,3.3-10.8,3.2-14.1C1183.5,268.8,1182.2,267.2,1179.7,267.3z"/>
	<path class="st0" d="M963.1,301c-1.1,0-3.3,2.5-6.7,7.2c-3.4,4.8-7,10.5-10.8,17c-3.8,6.6-6.9,12.8-9.1,18.6
		c-4.2,9-6.8,15.4-8,19.1c-0.5,1.6-0.7,2.6-0.7,3.3c0,0.7,0.2,1.1,0.6,1c0.8,0,2.2-1.2,4.5-3.6h0c0.9-1,2-2.2,3.3-3.7
		c6.1-7.4,13.6-16.8,22.4-28.2l13.2-18.2v0l-3.5-6.3C965.5,303,963.8,300.9,963.1,301z"/>
</g>
</svg>
