<?xml version="1.0" encoding="UTF-8"?><svg id="uuid-9904b625-8764-43b6-a16d-895ea9ddf78a" xmlns="http://www.w3.org/2000/svg" width="334.1274" height="523.6659" viewBox="0 0 334.1274 523.6659"><defs><style>.uuid-7996a896-7d42-40f2-a23b-a4b55f53f01d{fill:#3e3f34;}.uuid-877ab10e-d406-40f5-b34f-c04efee38b6b{fill:#fff;}.uuid-f9b6d63b-8079-4927-b6ec-696340da8d97{fill:#f18380;}.uuid-c5b58afb-2bf8-4913-b626-6227727ceb07{fill:#2943ac;}.uuid-feac4cac-3cd2-471a-b14d-520f74175de3{fill:#d65155;}.uuid-26f70e79-bb97-47d3-9c84-ae841f427e13{fill:#e6e6eb;}.uuid-d041408a-d44f-4b42-833f-84822b23f479{fill:#21378c;}.uuid-a4953fb3-a175-41f1-80a7-aad6f4c2b7bf{fill:#4e6ad9;}.uuid-f06b6cf7-94fb-42d5-b03e-01917ae9d9b0{fill:#bc664a;}.uuid-da3a4375-c857-4305-a232-b40e92844d12{fill:#403d4f;}.uuid-919c7e19-2914-41f2-957b-8675da4cf844{fill:#73102a;}.uuid-65bf1aa1-9afa-46e3-bc40-f8bd652f329f{fill:#7a4230;}.uuid-e3584f5c-32ae-4f3f-ae78-544bcc351af5{fill:#b38b67;}.uuid-11765bd4-e18f-4212-822f-65a3ad5d4fb9{fill:#192a6b;}.uuid-9a3bc5e6-9769-45d0-9ff7-bf7988280de3{fill:#fbbeaa;}</style></defs><g><path class="uuid-9a3bc5e6-9769-45d0-9ff7-bf7988280de3" d="M152.3779,229.3149c4.8862-14.5765-2.972-30.3555-17.5534-35.2417-14.5814-4.8862-30.356,2.972-35.2422,17.544l-53.5072,159.5841c-4.8862,14.5819,2.972,30.3609,17.544,35.2472,14.5814,4.8862,30.356-2.972,35.2422-17.549l53.5166-159.5846Z"/><polygon class="uuid-f9b6d63b-8079-4927-b6ec-696340da8d97" points="67.8897 306.2049 120.6755 323.8981 126.495 306.5176 73.6993 288.8243 67.8897 306.2049"/><path class="uuid-d041408a-d44f-4b42-833f-84822b23f479" d="M127.9955,310.2977l26.8644-80.1506c5.3378-15.9233-3.2705-33.2221-19.1987-38.5555-15.9283-5.3383-33.2221,3.27-38.5605,19.1933l-26.8639,80.1456,57.7587,19.3671Z"/><polygon class="uuid-a4953fb3-a175-41f1-80a7-aad6f4c2b7bf" points="128.3703 317.0977 65.841 296.1394 71.0636 280.5667 133.5835 301.5205 128.3703 317.0977"/></g><g><path class="uuid-9a3bc5e6-9769-45d0-9ff7-bf7988280de3" d="M10.8717,266.6107l33.2413,116.0369c4.7227,18.2699,17.5534,30.6731,37.8198,23.9111,12.4461-4.1549,24.1805-18.626,17.842-38.6658l-52.7956-118.6677c-4.9439-14.2834-15.2068-20.3191-26.0179-16.3853-13.0232,4.7661-15.8416,15.2649-10.0896,33.7707Z"/><g><path class="uuid-9a3bc5e6-9769-45d0-9ff7-bf7988280de3" d="M8.7364,257.4873C6.6971,242.8528,.4452,213.6083,.0414,205.067c-.3851-8.5507,2.0102-19.0973,3.2508-24.1618,1.212-5.0591,5.752-12.8356,7.8198-16.4907,2.0679-3.6501,3.9338-4.0397,6.0022-2.6352,2.0772,1.4089,3.2123,4.4243,2.9528,8.1227,0,0,3.2508-3.987,4.9054-5.9879,1.6734-2.0053,4.3091-2.1831,6.2902,.8658,1.962,3.0538,2.5106,9.8641,.2502,14.5627,0,0,7.1077-7.6756,9.1372-9.4263,2.0491-1.7891,3.3089-1.8758,5.3191-.2979,1.991,1.5916,4.3573,4.7754,3.6935,9.1997-.6442,4.4149-5.1748,11.0711-5.1748,11.0711,0,0,10.3497-8.2527,12.6485-9.7774,2.318-1.5291,3.8954-.683,4.8286,1.7266,.9426,2.4288,2.1063,5.4393,.1921,10.1187-1.9236,4.6794-5.617,6.0356-6.4537,7.5647-.8465,1.5104-2.3855,8.1326-3.2606,11.5375,1.8753,12.5761-1.6256,17.2412-2.3949,22.4446-.7599,5.2034-2.5012,10.7825-1.3178,17.4574,1.7024,8.4113-5.1655,21.1607-18.8717,22.5554-13.7255,1.3661-19.3327-4.9581-21.1218-16.0292Z"/><path class="uuid-f9b6d63b-8079-4927-b6ec-696340da8d97" d="M19.4514,171.1957c.327,.197,.4521,.6392,.2305,.9667,0,0-1.0096,1.6635-2.5293,4.1692-.3659,.6156-.7697,1.2843-1.2026,2.0058-.4614,.7067-.7308,1.4232-1.1735,2.1545-.3171,.5722-.4806,1.7118-.75,2.5874-.2403,.9327-.4811,1.8802-.7308,2.8228-1.0391,3.7895-2.1644,7.5214-2.9917,10.2723-.8559,2.78-1.539,4.6218-1.539,4.6218-.1054,.2984-.4132,.5097-.75,.457-.3654-.0532-.6348-.3895-.6062-.7939,0,0,.2694-1.9521,.8273-4.8715,.2984-1.4523,.6156-3.1695,1.0293-4.9823,.423-1.7891,.9332-3.6743,1.4523-5.555,.2792-.9618,.5387-1.8945,.8081-2.8179,.327-.9475,.3846-1.7556,.9234-2.8085,.4905-.8372,1.0002-1.7024,1.5099-2.3806,.5003-.6929,.9908-1.337,1.4429-1.9383,.9042-1.1829,1.7315-2.1063,2.2698-2.7844,.5678-.6299,.8948-.9958,.8948-.9958,.2305-.2497,.6057-.3029,.885-.1295Zm10.551,9.4307s-.2211,.3029-.5865,.7983c-.3654,.5388-.9716,1.1637-1.5099,2.1787-.26,.5146-.5678,1.0435-.885,1.6158-.2886,.558-.7215,1.2459-.914,1.7842-.4422,1.2745-.9234,2.6214-1.4139,3.9678-.8943,2.7268-1.6542,5.4969-2.1831,7.6032-.0483,.1975-.1926,.6397-.1443,.6205-.0965,.2211-.1733,.4472-.2694,.6491-.1541,.4186-.2984,.7697-.3945,1.0632-.1251,.3078-.2118,.4087-.2694,.553-.0675,.1251-.1059,.1921-.1059,.1921l-.0576,.1591c-.1537,.3364-.0098,.7451,.3368,.9042,.2787,.1394,.5865,.067,.7791-.1492,0,0,.0862-.0916,.2211-.226,.1059-.1443,.3945-.4087,.5579-.6496,.1729-.2787,.3748-.5959,.6057-.9618,.1443-.1778,.2694-.3703,.3945-.5772,.2309-.4664,.2309-.5432,.3561-.8367,.8268-1.9955,1.8561-4.6646,2.741-7.3963,.4137-1.3804,.8466-2.7415,1.2312-4.0353,.2694-.7259,.5004-1.178,.7023-1.7502,.231-.5437,.4329-1.0534,.6156-1.5197,.3364-.9426,.7791-1.799,1.0194-2.352,.231-.5914,.3654-.9377,.3654-.9377,.1541-.3413,0-.7599-.3748-.9184-.2886-.1108-.6254-.0192-.818,.2211Zm13.3985,10.0128s-.5097,.7165-1.1154,1.8517c-.2694,.558-.654,1.2262-.9716,1.9526-.2694,.7692-.558,1.5823-.8465,2.3806-.5289,1.6493-.9135,3.3374-1.1637,4.6213-.2211,1.2651-.2787,2.1353-.2787,2.1353-.0098,.4043,.2979,.7407,.6924,.7599,.2595,0,.5003-.1295,.6249-.3413l.0291-.0527s.4619-.7456,1.01-1.9142c.558-1.1494,1.1637-2.6982,1.6542-4.2899,.2309-.8126,.4619-1.6158,.654-2.3806,.2694-.7549,.4137-1.4907,.5964-2.0969,.2985-1.2646,.4137-2.1161,.4137-2.1161,.0483-.4038-.2309-.7599-.6249-.8126-.2694-.0384-.5294,.1059-.6737,.3029Z"/></g></g><path class="uuid-f06b6cf7-94fb-42d5-b03e-01917ae9d9b0" d="M216.639,455.1358c-.02,4.04-.1699,10.9202-.4099,19.8301-.3601,12.8599-.9102,29.9199-1.55,48.7H107.689c-1.02-26.1699-1.95-48.23-2.54-58.5601-.22-3.76-.31-7.45-.25-11.03,.17-10.8201,1.7-20.74,5.2-29.2,4.69-11.3398,12.93-20.0698,26.2-24.8501,4.7999-1.73,10.25-2.9399,16.4301-3.5798,4.5699-.47,8.9099-.5,13-.1201,.6599,.05,1.3199,.1201,1.96,.2,5.01,.6001,9.6499,1.8,13.9199,3.5,2.92,1.1602,5.67,2.5601,8.24,4.1501,11.1801,6.95,18.9601,17.6799,23.16,29.5701,2.4401,6.9099,3.66,14.22,3.63,21.3899Z"/><g><path class="uuid-f06b6cf7-94fb-42d5-b03e-01917ae9d9b0" d="M169.269,523.6659c-2.61-17.6299-4.9-32.8101-6.49-42.8701-.41-2.6099-.7799-4.8799-1.09-6.75-.1001-.6099-.2-1.22-.29-1.8198-3.4099-21.8501-1.98-41.3501,9.36-54.8401,4.61-5.48,10.86-9.96,19.09-13.21,3.55-1.4001,7.48-2.5701,11.8-3.49,1.1899-.25,2.36-.47,3.52-.6602,7.4199-1.21,14.3101-1.1299,20.62,0,14.27,2.54,25.58,10.4202,33.41,20.8,6.8999,9.1401,11.11,20.2302,12.27,31.3301v.04c1.0399,10.1299,3.2,38.3999,5.6199,71.47h-107.8199Z"/><path class="uuid-65bf1aa1-9afa-46e3-bc40-f8bd652f329f" d="M164.649,480.786c1.5901,10.0999,3.87,25.2798,6.48,42.8799h-3.74c-2.62-17.71-4.9099-32.9102-6.48-42.8901-.39-2.48-.74-4.6299-1.04-6.4199-.1699-1.01,.51-1.96,1.52-2.1299h.01c.99-.1401,1.9399,.51,2.11,1.52,.3199,1.9399,.7001,4.2998,1.14,7.04Z"/></g><path class="uuid-f06b6cf7-94fb-42d5-b03e-01917ae9d9b0" d="M104.863,400.0282s-.1635,51.0883,0,53.8727c.1635,2.7893,24.5656,26.8979,57.3165,26.8979,50.2757,0,110.4391-18.3807,109.5541-30.3363-.587-7.8824-1.3178-50.4343-1.3178-50.4343H104.863Z"/><rect class="uuid-9a3bc5e6-9769-45d0-9ff7-bf7988280de3" x="147.761" y="127.8549" width="59.2883" height="69.7625"/><path class="uuid-f9b6d63b-8079-4927-b6ec-696340da8d97" d="M207.0493,127.8549h-59.2883s0,38.9017,0,38.9017c2.4431,.3078,5.0113,.4905,7.7814,.4905,20.3718,0,43.1773-5.5545,51.5069-24.9886v-14.4036Z"/><g><path class="uuid-c5b58afb-2bf8-4913-b626-6227727ceb07" d="M147.761,172.292s-34.1165,19.8719-39.3489,23.1517c-5.2418,3.2655-11.3592,8.7289-10.263,23.1419,1.0967,14.4085,5.6752,203.2765,5.6752,203.2765,14.081,6.9876,28.0567,12.4461,33.7318,13.1,5.6845,.6589,10.1472,.7697,13.9756-2.9479,3.8186-3.7127,15.1778-17.3564,15.1778-17.3564,0,0,18.6693,12.6627,27.0762,17.3564,4.6553,2.6017,8.368,4.0973,13.9658,2.9479,12.2249-2.5106,60.4904-16.5872,62.0101-17.4672,1.539-.8751,2.9528-1.8512,2.8469-3.4911-.1152-1.6404-1.0386-193.7833-1.6926-202.4639-.6638-8.6851-4.5883-17.0339-14.9089-21.6172-10.3107-4.5834-48.9579-20.3043-48.9579-20.3043l-40.3397,27.9991-18.9486-25.3255Z"/><path class="uuid-11765bd4-e18f-4212-822f-65a3ad5d4fb9" d="M167.6906,196.7517l-.981,.8658-.981-.8992v219.1176c.1635-.197,.3171-.3846,.4422-.5388,.3369-.4038,.5388-.6392,.5388-.6392,0,0,.3654,.2497,.981,.6633V196.7517Z"/><path class="uuid-a4953fb3-a175-41f1-80a7-aad6f4c2b7bf" d="M147.761,166.7567l18.9486,30.8608s-18.5925,14.9857-19.4868,15.8849c-.9042,.9042-3.2798,.981-3.6841-.7357-.4137-1.7172-5.819-34.2273-5.915-34.5543-.0965-.327-.1349-.7791,.1921-1.1061s9.9453-10.3496,9.9453-10.3496Z"/><path class="uuid-a4953fb3-a175-41f1-80a7-aad6f4c2b7bf" d="M207.3763,161.0239l-40.6667,36.5936s21.4493,14.9857,22.3535,15.8849c.8943,.9042,2.7701,.7791,3.6836-.7357,1.5389-2.5298,26.7777-37.9114,26.8644-38.2384,.096-.327,.1344-.7742-.1926-1.1061-.327-.327-12.0422-12.3983-12.0422-12.3983Z"/></g><g><path class="uuid-9a3bc5e6-9769-45d0-9ff7-bf7988280de3" d="M272.2142,210.8815c-5.2901-14.4376-21.2853-21.8487-35.7229-16.5488-14.4371,5.2999-21.8339,21.2902-16.5434,35.7229l57.9606,158.0264c5.2999,14.4322,21.2853,21.8388,35.7229,16.5438,14.4277-5.2905,21.8339-21.2907,16.5438-35.7234l-57.9611-158.021Z"/><polygon class="uuid-f9b6d63b-8079-4927-b6ec-696340da8d97" points="254.3146 323.7056 306.5808 304.5266 300.2714 287.3189 247.9953 306.5033 254.3146 323.7056"/><path class="uuid-c5b58afb-2bf8-4913-b626-6227727ceb07" d="M303.7915,289.3291l-29.115-79.3518c-5.7899-15.7746-23.3147-23.8924-39.0795-18.0971-15.7648,5.7756-23.8924,23.3147-18.1114,39.0795l29.115,79.3572,57.1909-20.9878Z"/><rect class="uuid-a4953fb3-a175-41f1-80a7-aad6f4c2b7bf" x="241.5813" y="289.8441" width="65.9407" height="16.4254" transform="translate(-85.8803 112.8399) rotate(-20.1531)"/></g><path class="uuid-26f70e79-bb97-47d3-9c84-ae841f427e13" d="M60.3486,374.5102c19.5449-104.6487-27.6913-144.0458-27.6913-144.0458h112.0164s47.2362,39.3972,27.6913,144.0458H60.3486Z"/><g><path class="uuid-9a3bc5e6-9769-45d0-9ff7-bf7988280de3" d="M217.822,283.4909l99.2528,68.6948c15.7933,10.3304,23.4211,26.4557,10.5225,43.49-7.9252,10.455-25.3924,16.9285-42.3401,4.5011l-95.4825-88.0566c-11.9462-9.2628-14.3701-20.9204-7.1752-29.899,8.6851-10.8017,19.5351-10.1044,35.2225,1.2696Z"/><g><path class="uuid-9a3bc5e6-9769-45d0-9ff7-bf7988280de3" d="M209.8677,278.5471c-13.2158-6.6222-38.9067-21.9255-46.8708-25.0462-7.9735-3.107-18.7368-4.213-23.9308-4.6651-5.1748-.4762-13.9949,1.3321-18.1212,2.121-4.1264,.7884-5.0881,2.4333-4.4243,4.838,.6732,2.419,3.1646,4.4627,6.7522,5.4053,0,0-4.8188,1.794-7.2427,2.7223-2.4431,.947-3.4532,3.3857-1.2026,6.2376,2.2604,2.842,8.5413,5.5447,13.7161,4.9099,0,0-9.5509,4.2707-11.8595,5.6318-2.3471,1.3612-2.8376,2.5298-1.991,4.9439,.8751,2.3904,3.1355,5.651,7.5313,6.4444,4.3957,.8032,12.1481-1.3513,12.1481-1.3513,0,0-11.138,7.156-13.3118,8.8442-2.1929,1.7024-1.9044,3.4724,.0867,5.1315,1.9905,1.664,4.4726,3.7368,9.5218,3.4241,5.0497-.327,7.5121-3.3906,9.2337-3.6935,1.7025-.3127,8.4645,.3556,11.9654,.6156,11.3213,5.8047,16.8615,3.987,22.0358,4.9246,5.1655,.9519,11.0135,1.0869,16.9575,4.3524,7.416,4.3041,21.6994,1.8945,27.4125-10.6431,5.6944-12.5613,1.5005-19.9005-8.4064-25.1472Z"/><path class="uuid-f9b6d63b-8079-4927-b6ec-696340da8d97" d="M125.1003,260.2333s.4521-.1921,1.2312-.5338c.8076-.2881,1.9526-.7791,3.3665-1.2548,.7116-.231,1.4813-.4954,2.2988-.7456,.7983-.2645,1.7891-.4713,2.7317-.6638,1.1731-.1729,1.9521,.034,2.9622,.0241,.9618,.0433,1.9241,.0916,2.9243,.1349,1.9526,.1103,3.8954,.2354,5.7323,.4087,1.8467,.1871,3.5684,.4422,5.0497,.62,2.9435,.4087,4.8769,.7791,4.8769,.7791,.394,.1014,.6249,.4669,.5575,.8323-.0576,.3319-.3556,.5624-.6732,.558,0,0-1.962,.0576-4.8764-.0192-2.8661-.101-6.762-.226-10.686-.4619-.9716-.0625-1.9433-.1394-2.905-.2068-.9135-.0335-2.0487-.2403-2.6928-.1202-.8372,.1827-1.597,.2118-2.4145,.4186-.8273,.1778-1.5867,.3511-2.289,.4954-2.8568,.6392-4.7611,1.0627-4.7611,1.0627-.3753,.101-.7599-.1591-.8367-.5338-.0773-.3176,.096-.654,.4038-.7939Zm4.6745,14.5193c.0291,.3989,.3753,.683,.7407,.6491,0,0,.3752-.0143,1.01-.0478,.6057-.0532,1.5582-.1975,2.5584-.2118,.5003-.0241,1.0485-.0532,1.635-.0916,.6062-.0143,1.1061-.0817,1.8852-.1103,1.3469,.0527,2.7701,.0817,4.213,.1295,2.8661,.0389,5.7328-.0817,7.8873-.2211,.3171-.0286,.3846,0,.9042-.0719,.2403-.0532,.4614-.1108,.6732-.1876,.423-.1059,.7884-.1926,1.1061-.2694,.2787-.0724,.6254-.2595,.7983-.3176,.1635-.0862,.2792-.1344,.2792-.1344,.2689-.1152,.4324-.3846,.394-.6973-.0384-.3703-.3846-.6397-.75-.6013l-.1733,.0049s-.067,.0098-.2113,.0335c-.1541,.0098-.2792,.0581-.6062,.0773-.3171,0-.6924,.0192-1.1351,.0384-.2211,.0241-.4614,.0192-.7017,.0478,.0286-.0478-.4329-.0478-.6348-.067-2.1644-.1783-5.0305-.3462-7.9065-.3703-1.4331,.0335-2.8568,.0527-4.213,.067-.5673,.0148-1.3562,.2024-1.9812,.2984-.6348,.1108-1.241,.2354-1.8083,.3171-1.1351,.1876-1.9236,.5535-2.549,.7264-.5865,.1876-.9519,.3078-.9519,.3078-.2792,.101-.4811,.3945-.4619,.7023Zm5.1556,15.7357c-.0768,.3945,.1729,.7692,.5673,.851,0,0,.8367,.1684,2.1353,.2935,.6348,.0143,1.3755,.1157,2.1737,.1059,.7889,.0576,1.6256,.101,2.4623,.1443,1.6739,.0433,3.3374-.0384,4.5976-.1926,1.2794-.1443,2.1353-.3462,2.1353-.3462l.0675-.0094c.2403-.0532,.4422-.2408,.5191-.4861,.1157-.3797-.1152-.7742-.4999-.8943,0,0-.8367-.231-2.1068-.4186-1.2981-.1827-3.0198-.3556-4.7513-.3846-.8465,.0192-1.7123,.0335-2.5298,.0433-.7884,.0625-1.5389,.2118-2.1639,.2935-1.2602,.2068-2.1068,.4614-2.1068,.4614-.2305,.0768-.4521,.2694-.4999,.5388Z"/></g></g><g><path class="uuid-9a3bc5e6-9769-45d0-9ff7-bf7988280de3" d="M108.7798,88.1781c2.674,19.9676,4.1418,35.7872,9.2557,50.7126,5.1221,14.915,17.6527,26.1278,42.0675,23.4144,24.4153-2.7135,51.4878-13.8226,50.0473-44.636,3.5326-4.7862,8.3185-21.0248,6.6084-38.414-1.7184-17.3788-7.1067-54.02-47.3395-55.2632-40.2327-1.2432-67.047,16.4566-60.6394,64.1862Z"/><path class="uuid-da3a4375-c857-4305-a232-b40e92844d12" d="M131.1966,101.616c.3033,2.7292-1.0768,5.1133-3.0747,5.3353-1.9886,.221-3.8683-1.8008-4.1716-4.53-.3023-2.7199,1.0871-5.1095,3.0757-5.3305,1.9979-.222,3.8683,1.8053,4.1706,4.5251Z"/><path class="uuid-da3a4375-c857-4305-a232-b40e92844d12" d="M175.2663,96.7182c.3033,2.7292-1.0768,5.1133-3.0747,5.3353s-3.8683-1.8008-4.1716-4.53c-.3023-2.7199,1.0778-5.1084,3.0757-5.3305s3.8683,1.8053,4.1706,4.5251Z"/><path class="uuid-da3a4375-c857-4305-a232-b40e92844d12" d="M164.6774,82.3384c.4213,.3932,2.9532-.1637,4.9615-.5514,2.5008-.486,5.7524-.4897,5.6865-1.0824-.0664-.5971-2.2587-3.2571-7.084-2.1738-3.5318,.7845-4.2996,3.1099-3.564,3.8076Z"/><path class="uuid-da3a4375-c857-4305-a232-b40e92844d12" d="M130.3301,86.1557c-.2674,.4697-2.4674,.4387-4.2161,.4686-2.1642,.0324-4.8492,.6886-4.9151,.0958-.0664-.5971,1.2017-3.6417,5.4201-3.5635,3.0639,.0514,4.1795,2.1676,3.7111,2.999Z"/><path class="uuid-f9b6d63b-8079-4927-b6ec-696340da8d97" d="M148.7481,120.2161c-3.4511,.3836-6.4195-1.5951-6.7202-3.168l-.3895-13.9555c-.0126-.7245,.6007-1.3005,1.273-1.346,.724-.0175,1.3197,.5549,1.3422,1.2784l.3698,13.43c.4168,.4378,1.9357,1.4785,4.1025,1.1217,.7838-.1743,1.3862,.3682,1.5041,1.081,.1173,.7079-.3687,1.3862-1.0914,1.5003-.1329,.0247-.2567,.0434-.3903,.0582Z"/><path class="uuid-e3584f5c-32ae-4f3f-ae78-544bcc351af5" d="M179.2315,62.3865c1.3386,12.0449,6.8665,16.7631,10.7285,18.8594,3.843,2.0989,6.9036,3.8637,7.3668,8.0318,.4632,4.1677,1.4577,13.1158,1.6388,14.7457s1.3109,2.8253,2.5047,2.2472c1.1945-.5728,5.7226-3.5441,5.4575-5.9292l13.5478-12.0251s4.3355-10.9725,.8872-29.3735c-3.4484-18.4015-18.6277-26.0194-18.6277-26.0194-1.4067-10.3923-13.0665-27.8807-34.3952-32.9234-.3206,5.4747,1.2606,11.3425,1.2606,11.3425-10.3187-7.4228-42.0789-6.535-52.9346-1.3705,2.0719,4.7103,8.1641,9.1963,8.1641,9.1963-10.5638,2.824-29.1468,15.433-36.1843,29.1738,3.8539,5.0682,12.6104,8.7116,12.6104,8.7116-3.2805,4.0952-6.4597,15.9792-6.0967,25.167,11.3623-1.4758,26.2679-9.728,26.2679-9.728,0,0-.083,7.1756,2.1383,12.7934,9.8067-1.7093,27.138-13.7391,31.4563-22.3432-.6166,4.2926,1.685,16.1195,3.2967,19.565,6.958-2.5298,17.3595-13.0829,20.9128-20.1215Z"/><g><path class="uuid-9a3bc5e6-9769-45d0-9ff7-bf7988280de3" d="M207.5919,102.5712c-.3756-5.6441-.3999-13.9593,7.4778-15.0043,7.8788-1.0352,9.5904,4.7889,10.3912,14.1699,.7915,9.3864-7.8347,18.4985-16.5798,16.1798l-1.2892-15.3454Z"/><path class="uuid-f9b6d63b-8079-4927-b6ec-696340da8d97" d="M219.9643,108.0092c-.0573,.0064-.1249,.0089-.1832,.0055-.7282-.0206-1.2993-.6296-1.2727-1.349,.014-.4852-.3384-.9539-.9437-1.2642-.829-.4063-2.1643-.4903-3.3975,.5178-.3808,.3183-.9257,.3789-1.3748,.1672-.4589-.2101-.7509-.6618-.7581-1.1589-.1563-7.9378,4.6891-9.9668,4.8932-10.0474,.6871-.2602,1.439,.0576,1.7074,.7343,.2576,.6636-.0543,1.4237-.7212,1.6965-.1479,.06-2.5764,1.1961-3.1436,5.4109,1.323-.3745,2.7372-.2755,3.9571,.3391,1.5355,.7534,2.4482,2.1762,2.403,3.686-.0231,.6611-.5256,1.1911-1.1658,1.2623Z"/></g><g><path class="uuid-919c7e19-2914-41f2-957b-8675da4cf844" d="M146.7322,130.7271c5.6894-1.1402,12.7335,7.9918,13.2113,13.3337,.4876,5.3462-12.414,7.946-14.6328,3.1316-2.2281-4.8094-3.0657-15.5647,1.4215-16.4653Z"/><path class="uuid-feac4cac-3cd2-471a-b14d-520f74175de3" d="M145.3106,147.1924c-.1528-.3269-.2868-.7475-.4252-1.1241,2.2349-3.926,5.8689-8.496,11.1514-10.1622,2.1336,2.6521,3.6895,5.7643,3.9066,8.1548,.4876,5.3462-12.414,7.946-14.6328,3.1316Z"/><path class="uuid-877ab10e-d406-40f5-b34f-c04efee38b6b" d="M143.7024,135.2498c.3764-2.3598,1.2975-4.1751,3.0298-4.5227,2.0639-.4132,4.2999,.5483,6.3269,2.1568-2.7904,1.2778-6.1268,2.3403-9.3566,2.3658Z"/></g><g><g><path class="uuid-7996a896-7d42-40f2-a23b-a4b55f53f01d" d="M166.202,117.1375c-8.4316,0-15.7148-6.3584-16.668-14.9297h0c-1.0215-9.1982,5.6299-17.5117,14.8262-18.5332,9.1865-1.0137,17.5107,5.6279,18.5342,14.8262,.4951,4.4551-.7744,8.8359-3.5742,12.3369-2.8008,3.5-6.7969,5.7012-11.252,6.1963-.626,.0693-1.25,.1035-1.8662,.1035Zm-14.6797-15.1504c.4355,3.9238,2.374,7.4443,5.458,9.9102,3.084,2.4678,6.9482,3.5928,10.8672,3.1484,3.9238-.4355,7.4434-2.374,9.9102-5.458,2.4668-3.083,3.585-6.9424,3.1484-10.8662-.4355-3.9238-2.374-7.4443-5.458-9.9102-3.084-2.4668-6.9463-3.5869-10.8672-3.1484-8.0996,.8994-13.958,8.2227-13.0586,16.3242h0Z"/><path class="uuid-7996a896-7d42-40f2-a23b-a4b55f53f01d" d="M121.4032,122.116c-8.4316,0-15.7148-6.3584-16.668-14.9297-1.0215-9.1963,5.6289-17.5107,14.8262-18.5332,9.1904-1.0166,17.5117,5.6279,18.5342,14.8262,1.0215,9.1963-5.6289,17.5107-14.8262,18.5332-.626,.0693-1.25,.1035-1.8662,.1035Zm.041-31.5674c-.5518,0-1.1064,.0303-1.6621,.0928-8.1006,.9004-13.959,8.2236-13.0586,16.3242,.4355,3.9238,2.374,7.4443,5.458,9.9102,3.084,2.4678,6.9492,3.5938,10.8672,3.1484,8.1006-.9004,13.959-8.2236,13.0586-16.3242-.4355-3.9238-2.374-7.4443-5.458-9.9102-2.6465-2.1172-5.8652-3.2412-9.2051-3.2412Z"/><path class="uuid-7996a896-7d42-40f2-a23b-a4b55f53f01d" d="M135.4178,99.8328l-.959-1.7559c5.1006-2.7861,11.21-3.4062,16.7676-1.7002l-.5879,1.9121c-4.9688-1.5254-10.6602-.9482-15.2207,1.5439Z"/></g><path class="uuid-7996a896-7d42-40f2-a23b-a4b55f53f01d" d="M182.3289,99.5145l-.8574-1.8066c.8398-.3994,20.6602-9.7539,28.0449-7.8252l-.5059,1.9355c-5.5283-1.4434-21.1387,5.0654-26.6816,7.6963Z"/></g></g></svg>