<?xml version="1.0" encoding="UTF-8"?><svg id="uuid-a2119c54-a841-43a1-9f2e-e00fbbd3942b" xmlns="http://www.w3.org/2000/svg" width="397.8" height="529" viewBox="0 0 397.8 529"><defs><style>.uuid-1ad56b6a-d726-41d8-94ce-e90569d5fff0{fill:#3e3f34;}.uuid-5db2f972-5b0b-4c97-8688-cb741322588e{fill:#fff;}.uuid-7622af99-b3c1-41f2-ae8a-1578329915a0{fill:#f18380;}.uuid-bd2de359-808b-4b15-afb2-1a1fabdc73c3{fill:#2943ac;}.uuid-15f0a66f-c049-415a-b8d3-b5a43bd14543{fill:#d65155;}.uuid-3ee4f5c3-06f0-4d4b-8ccb-ddac6ea95e21{fill:#21378c;}.uuid-bb137f13-fe4c-4bdb-bf8b-3ed345b8ceaa{fill:#4e6ad9;}.uuid-ec31c026-6408-4a26-9706-06cb726bc536{fill:#bc664a;}.uuid-54c6a243-883f-43de-bbab-656e69bfb358{fill:#403d4f;}.uuid-a2ddbaa6-e953-44d3-b07c-78134bad25ec{fill:#73102a;}.uuid-c5848a16-da10-4284-ae83-80c2dc9fe1c8{fill:#7a4230;}.uuid-52295129-6c57-4360-81dc-ad09ae06de7f{fill:#b38b67;}.uuid-733f7938-8ba6-46aa-85b6-1ea7998a1065{fill:#192a6b;}.uuid-a47d2393-d03d-416b-a5ea-b1991ae59f1d{fill:#fbbeaa;}</style></defs><g><path class="uuid-ec31c026-6408-4a26-9706-06cb726bc536" d="M252.1489,459.3901c.0601,3.5898-.03,7.2798-.25,11.0498-.59,10.3301-1.53,32.3901-2.5499,58.5601h-106.9901c-.6399-18.78-1.1899-35.8401-1.5499-48.7-.24-8.9099-.38-15.8-.4-19.8401-.03-7.23,1.21-14.5898,3.6901-21.5601,4.21-11.8198,11.97-22.48,23.1-29.3899,2.5701-1.6001,5.3101-2.99,8.23-4.1501,4.48-1.7898,9.38-3.02,14.6899-3.5999,.6501-.0701,1.3-.1301,1.9601-.1799,3.87-.3,7.9501-.25,12.23,.1899,6.2001,.6399,11.67,1.8501,16.4701,3.5898,13.3699,4.8301,21.6199,13.6702,26.2899,25.1501,3.41,8.3999,4.91,18.2,5.08,28.8801Z"/><g><path class="uuid-ec31c026-6408-4a26-9706-06cb726bc536" d="M195.6389,477.55c-.09,.6099-.1899,1.22-.2899,1.8298-.3099,1.8701-.6801,4.1401-1.09,6.75-1.5901,10.0601-3.8701,25.2402-6.48,42.8701H79.959c2.4199-33.0701,4.5801-61.3401,5.62-71.48,1.16-11.1899,5.42-22.3701,12.4-31.5601,7.84-10.29,19.1-18.0801,33.29-20.6001,6.2999-1.1299,13.1899-1.21,20.6099,0,1.1602,.1902,2.3301,.4102,3.52,.6602,4.3201,.9199,8.25,2.0898,11.8,3.49,8.39,3.3101,14.71,7.8999,19.35,13.53,11.09,13.47,12.4701,32.8301,9.09,54.51Z"/><path class="uuid-c5848a16-da10-4284-ae83-80c2dc9fe1c8" d="M197.1689,479.6799c-.3,1.79-.6499,3.95-1.04,6.4299-1.58,9.98-3.8699,25.1902-6.48,42.8901h-3.74c2.6001-17.6001,4.89-32.78,6.48-42.8799,.4301-2.7402,.8201-5.1101,1.1401-7.05,.1599-1.01,1.0999-1.6501,2.1099-1.52h.01c1.01,.1699,1.6901,1.1299,1.52,2.1299Z"/></g><path class="uuid-ec31c026-6408-4a26-9706-06cb726bc536" d="M252.183,405.3574s.1542,51.0932,0,53.8776c-.1733,2.7844-24.5656,26.8979-57.3164,26.8979-50.2757,0-110.4386-18.3807-109.5542-30.3363,.5772-7.8873,1.3085-50.4392,1.3085-50.4392H252.183Z"/></g><g><path class="uuid-a47d2393-d03d-416b-a5ea-b1991ae59f1d" d="M212.3818,243.5924c-7.2102-13.578-2.0464-30.4368,11.5365-37.6478,13.5836-7.2061,30.4325-2.0456,37.6427,11.5328l78.9499,148.6507c7.2103,13.5785,2.0456,30.4325-11.528,37.6419-13.582,7.2158-30.4317,2.0505-37.6419-11.528l-78.9592-148.6496Z"/><rect class="uuid-7622af99-b3c1-41f2-ae8a-1578329915a0" x="251.6171" y="301.3831" width="55.6776" height="18.325" transform="translate(-113.0133 167.3602) rotate(-27.9728)"/><path class="uuid-3ee4f5c3-06f0-4d4b-8ccb-ddac6ea95e21" d="M249.7121,319.4764l-39.643-74.6608c-7.8765-14.8326-2.2196-33.299,12.617-41.1817,14.8374-7.8778,33.3087-2.2212,41.1873,12.6205l39.6409,74.6512-53.8022,28.5708Z"/><polygon class="uuid-bb137f13-fe4c-4bdb-bf8b-3ed345b8ceaa" points="250.4574 326.2457 308.7046 295.3231 300.9985 280.8131 242.7606 311.7347 250.4574 326.2457"/></g><g><rect class="uuid-a47d2393-d03d-416b-a5ea-b1991ae59f1d" x="150.7616" y="133.194" width="59.2883" height="69.7576"/><path class="uuid-7622af99-b3c1-41f2-ae8a-1578329915a0" d="M150.7616,133.194h59.2883v38.8919c-2.4431,.3127-5.0113,.4905-7.7814,.4905-20.3718,0-43.1773-5.5545-51.5069-24.9886v-14.3937Z"/><g><path class="uuid-bd2de359-808b-4b15-afb2-1a1fabdc73c3" d="M210.0499,177.6261s34.1165,19.867,39.3489,23.1468c5.2418,3.2705,11.3592,8.7339,10.263,23.1419-1.0967,14.4184-5.6752,203.2765-5.6752,203.2765-14.081,6.9876-28.0567,12.451-33.7318,13.105-5.6845,.654-10.1472,.7648-13.9756-2.9479-3.8186-3.7176-15.1778-17.3564-15.1778-17.3564,0,0-18.6693,12.6627-27.0762,17.3564-4.6553,2.5968-8.368,4.0973-13.9658,2.9479-12.2249-2.515-60.4904-16.5916-62.0101-17.4672-1.539-.8751-2.9528-1.8561-2.8469-3.496,.1152-1.6399,1.0386-193.7828,1.6926-202.4634,.6638-8.6757,4.5883-17.0294,14.9089-21.6128,10.3107-4.5834,48.9579-20.3092,48.9579-20.3092l40.3397,28.004,18.9486-25.3255Z"/><path class="uuid-733f7938-8ba6-46aa-85b6-1ea7998a1065" d="M190.1204,202.0858l.981,.8658,.981-.9042v219.1176c-.1635-.197-.3171-.3846-.4422-.5383-.3369-.3994-.5388-.6348-.5388-.6348,0,0-.3654,.2452-.981,.6589V202.0858Z"/><path class="uuid-bb137f13-fe4c-4bdb-bf8b-3ed345b8ceaa" d="M210.0499,172.0859l-18.9486,30.8657s18.5925,14.9808,19.4868,15.8899c.9042,.8943,3.2798,.9761,3.6841-.7407,.4137-1.7217,5.819-34.2273,5.915-34.5543,.0965-.327,.1349-.7746-.1921-1.1016s-9.9453-10.359-9.9453-10.359Z"/><path class="uuid-bb137f13-fe4c-4bdb-bf8b-3ed345b8ceaa" d="M150.4346,166.363l40.6667,36.5886s-21.4493,14.9808-22.3535,15.8899c-.8943,.8943-2.7701,.7692-3.6836-.7407-1.5389-2.5298-26.7777-37.9158-26.8644-38.2384-.096-.3221-.1344-.7791,.1926-1.1061,.327-.3221,12.0422-12.3934,12.0422-12.3934Z"/></g></g><g><path class="uuid-a47d2393-d03d-416b-a5ea-b1991ae59f1d" d="M85.5968,216.2156c5.2901-14.4376,21.2853-21.8438,35.7229-16.5488,14.4371,5.2999,21.8339,21.2902,16.5434,35.7229l-57.9606,158.0215c-5.2999,14.4327-21.2853,21.8388-35.7229,16.5438-14.4277-5.2901-21.8339-21.2858-16.5438-35.7184l57.9611-158.021Z"/><polygon class="uuid-7622af99-b3c1-41f2-ae8a-1578329915a0" points="103.4964 329.0348 51.2301 309.8607 57.5396 292.6486 109.8157 311.8325 103.4964 329.0348"/><path class="uuid-bd2de359-808b-4b15-afb2-1a1fabdc73c3" d="M54.0195,294.6588l29.115-79.3523c5.7899-15.7741,23.3147-23.8875,39.0795-18.0971,15.7648,5.7805,23.8924,23.3152,18.1114,39.0844l-29.115,79.3523-57.1909-20.9874Z"/><polygon class="uuid-bb137f13-fe4c-4bdb-bf8b-3ed345b8ceaa" points="49.4794 299.7371 111.3837 322.4609 117.0391 307.033 55.1349 284.319 49.4794 299.7371"/></g><path class="uuid-a47d2393-d03d-416b-a5ea-b1991ae59f1d" d="M167.297,319.4569l-90.2798,80.1185c-13.7803,12.9-31.2511,16.5025-44.7489-.0841-8.2606-10.1782-10.413-28.6856,5.6803-42.1929l108.1888-71.8735c11.827-9.4096,23.7259-8.9967,30.7464,.125,8.4259,10.9908,5.1874,21.3749-9.5868,33.9069Z"/><g><g><path class="uuid-a47d2393-d03d-416b-a5ea-b1991ae59f1d" d="M240.9704,81.0596c-.4614,20.1408-.1729,36.0257-3.6068,51.4246-3.4339,15.3895-14.6488,27.9178-39.2238,27.9178-24.5562,0-52.6996-8.0508-54.6621-38.8348-4.049-4.3667-10.5895-19.9773-10.8111-37.449-.2211-17.4623,1.0967-54.4744,40.946-60.154,39.8393-5.6796,68.4544,8.95,67.3577,57.0953Z"/><path class="uuid-54c6a243-883f-43de-bbab-656e69bfb358" d="M220.1756,96.8914c0,2.746,1.6251,4.9631,3.6354,4.9631s3.6457-2.2171,3.6457-4.9631c0-2.7366-1.6355-4.9581-3.6457-4.9581s-3.6354,2.2215-3.6354,4.9581Z"/><path class="uuid-54c6a243-883f-43de-bbab-656e69bfb358" d="M175.8346,96.8914c0,2.746,1.635,4.9631,3.6354,4.9631,2.0201,0,3.6457-2.2171,3.6457-4.9631,0-2.7366-1.6256-4.9581-3.6457-4.9581-2.0004,0-3.6354,2.2215-3.6354,4.9581Z"/><path class="uuid-54c6a243-883f-43de-bbab-656e69bfb358" d="M184.7699,81.43c-.3753,.4373-2.9527,.1635-4.9921,0-2.5485-.2068-5.7805,.1487-5.7805-.4477,0-.6008,1.8852-3.4866,6.8098-2.943,3.5975,.3895,4.6169,2.616,3.9629,3.3906Z"/><path class="uuid-54c6a243-883f-43de-bbab-656e69bfb358" d="M219.3192,81.43c.3176,.4373,2.5107,.1635,4.2421,0,2.1545-.2068,4.9054,.1487,4.9054-.4477,0-.6008-1.5971-3.4866-5.781-2.943-3.0488,.3895-3.9146,2.616-3.3665,3.3906Z"/><path class="uuid-7622af99-b3c1-41f2-ae8a-1578329915a0" d="M204.7861,117.3164c3.4625,0,6.1942-2.2944,6.3193-3.891l-1.145-13.9131c-.067-.7215-.7402-1.2262-1.4139-1.1972-.7308,.0625-1.2597,.6973-1.2021,1.4188l1.1159,13.3886c-.3659,.4811-1.7606,1.6832-3.9437,1.568-.8081-.0867-1.3469,.5191-1.3755,1.2405-.0384,.7165,.5191,1.337,1.2406,1.3705,.1349,.0098,.2693,.0148,.4042,.0148Z"/><path class="uuid-52295129-6c57-4360-81dc-ad09ae06de7f" d="M168.0916,63.2078c0,12.1191-4.9631,17.419-8.5699,19.9291-3.5975,2.5106-6.4444,4.6026-6.4444,8.7964v14.8365c0,1.6399-.9815,2.9528-2.2318,2.5101-1.2597-.4373-6.0883-2.8903-6.0883-5.2901l-14.7833-10.455s-5.521-10.4265-4.1264-29.0958c1.3849-18.6698,15.6298-27.9178,15.6298-27.9178,.2502-10.4841,9.9168-29.1534,30.5481-36.5212,.9332,5.4058,0,11.4124,0,11.4124,9.4455-8.5172,41.0996-11.143,52.4593-7.2092-1.5296,4.9104-7.0984,10.0418-7.0984,10.0418,10.8112,1.6399,30.6825,12.1191,39.1947,24.9985-3.27,5.4629-11.5709,10.0512-11.5709,10.0512,3.7033,3.7078,8.1852,15.1679,8.8397,24.3396-11.4558-.2118-27.1821-6.767-27.1821-6.767,0,0,.8756,7.1225-.7116,12.9513-9.936-.6156-28.4901-10.6574-33.7318-18.7319,1.0869,4.1983,.1059,16.207-1.1253,19.8094-7.1949-1.7458-18.689-11.0854-23.0074-17.6883Z"/><g><path class="uuid-a47d2393-d03d-416b-a5ea-b1991ae59f1d" d="M144.3533,106.2792c-.2502-5.651-1.1445-13.918-9.0894-14.0865-7.9449-.1586-9.0126,5.819-8.7723,15.2309,.2502,9.4164,9.8301,17.5199,18.2655,14.2495l-.4038-15.3939Z"/><path class="uuid-7622af99-b3c1-41f2-ae8a-1578329915a0" d="M132.6474,113.0506c.0675,0,.1252-.0049,.1926-.0148,.7116-.101,1.212-.7692,1.1061-1.4813-.0675-.4806,.2403-.9854,.7983-1.3607,.7889-.4954,2.0969-.7264,3.434,.1394,.423,.2743,.9619,.2743,1.3947,.0143,.423-.2595,.6732-.7407,.6249-1.2356-.7308-7.9065-5.7706-9.3878-5.9731-9.4455-.721-.1827-1.4232,.2162-1.6158,.9184-.1921,.688,.2019,1.4089,.8948,1.6064,.1635,.0433,2.6928,.9042,3.7319,5.0305-1.3661-.226-2.7509,.0286-3.9052,.7742-1.4331,.9184-2.1929,2.4333-1.9811,3.9289,.1053,.6545,.6539,1.1258,1.2981,1.1258Z"/></g><g><path class="uuid-a2ddbaa6-e953-44d3-b07c-78134bad25ec" d="M198.7839,128.743c-6.9057-2.2939-14.6198-4.67-17.5056-1.7266-2.0969,2.1496,.7697,12.3407,11.3306,14.1485,10.5516,1.8039,14.3795-5.5255,13.8604-8.3389-.327-1.7507-2.2894-2.2939-7.6854-4.083Z"/><path class="uuid-15f0a66f-c049-415a-b8d3-b5a43bd14543" d="M181.5285,126.8529c-.0675,.0625-.1729,.0911-.2502,.1635-2.0969,2.1496,.7697,12.3407,11.3306,14.1485,2.7992,.4713,5.098,.2842,6.9925-.2645-3.6743-6.5838-10.2339-12.8356-18.073-14.0475Z"/><path class="uuid-5db2f972-5b0b-4c97-8688-cb741322588e" d="M183.9908,125.7902c3.3764,4.5011,11.9364,8.82,22.4303,6.9398-.3845-1.664-2.3471-2.2368-7.6371-3.987-5.3191-1.765-11.0898-3.559-14.7931-2.9528Z"/></g></g><g><g><path class="uuid-1ad56b6a-d726-41d8-94ce-e90569d5fff0" d="M185.7614,118.1348c-9.2539,0-16.7822-7.5283-16.7822-16.7822s7.5283-16.7822,16.7822-16.7822,16.7822,7.5283,16.7822,16.7822-7.5283,16.7822-16.7822,16.7822Zm0-31.5645c-8.1514,0-14.7822,6.6309-14.7822,14.7822s6.6309,14.7822,14.7822,14.7822,14.7822-6.6309,14.7822-14.7822-6.6309-14.7822-14.7822-14.7822Z"/><path class="uuid-1ad56b6a-d726-41d8-94ce-e90569d5fff0" d="M230.8366,118.1348c-9.2539,0-16.7822-7.5283-16.7822-16.7822s7.5283-16.7822,16.7822-16.7822,16.7822,7.5283,16.7822,16.7822-7.5283,16.7822-16.7822,16.7822Zm0-31.5645c-8.1514,0-14.7822,6.6309-14.7822,14.7822s6.6309,14.7822,14.7822,14.7822,14.7822-6.6309,14.7822-14.7822-6.6309-14.7822-14.7822-14.7822Z"/><path class="uuid-1ad56b6a-d726-41d8-94ce-e90569d5fff0" d="M201.0134,97.5791l-.7949-1.8359c5.335-2.3066,11.4775-2.3672,16.8525-.1611l-.7588,1.8496c-4.8076-1.9717-10.5293-1.917-15.2988,.1475Z"/></g><path class="uuid-1ad56b6a-d726-41d8-94ce-e90569d5fff0" d="M169.653,102.2979c-5.7998-2.0039-22.0205-6.749-27.3701-4.7031l-.7148-1.8672c7.123-2.7246,27.8584,4.377,28.7373,4.6797l-.6523,1.8906Z"/></g></g><g><path class="uuid-a47d2393-d03d-416b-a5ea-b1991ae59f1d" d="M144.771,284.4675c4.8387-13.9661,12.5548-42.8597,16.07-50.6583,3.539-7.7933,10.4717-16.0988,13.8743-20.0475,3.3755-3.9504,10.9538-8.8198,14.4618-11.1402,3.5031-2.3036,5.343-1.7998,6.541,.3893,1.2049,2.1961,.8494,5.4008-1.0587,8.5787,0,0,4.7062-2.0839,7.092-3.1035,2.4005-1.0319,4.8274,.0052,5.2032,3.6156,.3687,3.6173-2.2352,9.9414-6.3836,13.0987,0,0,9.8179-3.6152,12.4256-4.2532,2.6233-.6642,3.795-.1597,4.8667,2.1542,1.0509,2.3193,1.7013,6.226-.886,9.8773-2.5864,3.6375-9.6398,7.5024-9.6398,7.5024,0,0,12.9651-2.6493,15.7032-2.966,2.7545-.3049,3.7824,1.1614,3.5226,3.7415-.2672,2.5866-.593,5.8032-4.4326,9.0983-3.8363,3.2922-7.7427,2.8185-9.1892,3.8033-1.4391,.965-5.8034,6.1633-8.1379,8.7939-4.0479,12.059-9.2845,14.6248-12.3333,18.9153-3.0381,4.2811-7.1303,8.4672-9.0999,14.9493-2.3102,8.2605-14.2133,16.5077-27.0528,11.5198-12.8515-5.0162-14.9785-13.2037-11.5468-23.8692Z"/><path class="uuid-7622af99-b3c1-41f2-ae8a-1578329915a0" d="M193.5234,212.4534c.2047,.3331,.1055,.7799-.2264,.971,0,0-1.6634,1.0228-4.1558,2.5603-.6035,.3926-1.2715,.7911-1.9838,1.2419-.7279,.4258-1.2978,.9426-2.0167,1.386-.5431,.3656-1.2139,1.3057-1.8475,1.969-.6365,.7171-1.2875,1.4477-1.9384,2.1776-2.6439,2.9052-5.3403,5.7147-7.3274,7.794-2.0315,2.0805-3.4791,3.4127-3.4791,3.4127-.2187,.2322-.592,.2674-.8662,.0734-.3074-.2166-.3935-.6408-.1821-.9824,0,0,1.1208-1.6212,2.9439-3.9663,.9328-1.1596,1.9919-2.5459,3.1828-3.9726,1.1893-1.3989,2.4977-2.8519,3.8188-4.2913,.6849-.7212,1.3383-1.4408,1.9979-2.1401,.7273-.6949,1.1441-1.3846,2.103-2.0793,.8122-.526,1.6625-1.0603,2.425-1.4396,.7661-.3827,1.4927-.7297,2.1636-1.067,1.3415-.6472,2.5097-1.0905,3.2877-1.4449,.7952-.3059,1.2557-.4819,1.2557-.4819,.3208-.1168,.6751-.007,.845,.2794Zm5.1217,13.205s-.3401,.1596-.8988,.4356c-.571,.3127-1.3855,.5968-2.3317,1.2545-.4609,.3435-.9855,.6795-1.5192,1.0484-.5127,.3644-1.2053,.7714-1.6212,1.165-.98,.9317-2.0117,1.9216-3.0656,2.8931-2.0418,2.0251-3.9735,4.1455-5.3986,5.7788-.1356,.1588-.4626,.4863-.4052,.5-.1931,.1452-.3603,.3188-.5386,.451-.3316,.2934-.6159,.545-.8374,.7666-.2519,.2229-.3742,.2667-.4893,.3685-.1171,.078-.1812,.1222-.1812,.1222l-.1294,.1146c-.2839,.238-.3437,.6639-.106,.954,.1785,.253,.4877,.3267,.7633,.2242,0,0,.1146-.0377,.2987-.0979,.1614-.0784,.5327-.1887,.7936-.3294,.2761-.1673,.5981-.3622,.976-.5809,.203-.0902,.4042-.2038,.6097-.3343,.4244-.3111,.4557-.3776,.7034-.5836,1.6426-1.4023,3.773-3.3131,5.8008-5.3391,.994-1.0466,1.9929-2.0587,2.9286-3.0405,.5699-.5175,.9734-.8232,1.4282-1.2382,.4421-.3787,.8526-.742,1.2273-1.0735,.7301-.6842,1.5103-1.2464,1.9804-1.6367l.7527-.6661c.29-.2311,.3347-.6815,.084-.9864-.204-.2305-.5469-.2992-.8241-.1696Zm7.3831,15.0055s-.7875,.4016-1.8302,1.1316c-.5074,.3845-1.1495,.7989-1.7629,1.3029-.5831,.5673-1.215,1.1521-1.8334,1.7381-1.2167,1.2305-2.3365,2.5555-3.1354,3.5834-.7813,1.0254-1.2195,1.7861-1.2195,1.7861-.1882,.3461-.0752,.7853,.2668,.9837,.2279,.1193,.5038,.119,.7133-.0144l.0505-.0447s.7592-.441,1.7753-1.2376c1.0082-.7764,2.2581-1.8824,3.4279-3.0715,.5692-.6194,1.1346-1.2355,1.6544-1.8237,.5786-.5508,1.0408-1.1394,1.4842-1.5962,.8441-.9909,1.3266-1.7007,1.3266-1.7007,.2318-.3333,.1535-.7777-.1838-1.0059-.225-.1606-.5153-.1476-.7339-.0312Z"/></g><g><g><path class="uuid-a47d2393-d03d-416b-a5ea-b1991ae59f1d" d="M318.5972,238.7748c-.0269-8.1916-3.7328-21.1111-5.8964-29.0862-2.1545-7.9728-4.6045-12.2306-4.2089-15.9988,.4-3.7919,.778-7.6673,5.1975-8.9988,1.7377-.5201,3.6804-1.0321,5.6178-1.521-.0748-2.0631-.1583-4.3688-.3171-6.9305-.7177-11.3595-2.4276-22.3395-2.6689-27.5456-.248-5.2171,4.3062-7.7241,8.2715-7.1897,3.9741,.5407,5.4405,2.0962,6.6076,7.572,1.158,5.4739,2.4381,14.9215,2.9652,22.5928,3.0927-7.3657,14.5527-3.2213,14.1793,3.724,3.5669-5.5737,13.3461-2.8962,13.7551,4.6824,5.594-3.4508,11.6196,1.899,9.2386,10.335-.4993,2.3227-.8213,4.2153-1.4935,5.9969-1.3233,8.6886-2.9534,21.6209-3.3438,26.9369-.5038,6.766-9.03,20.5625-8.9597,25.0258-.0546,5.8279-5.6527,18.1905-19.1558,18.8493-13.5117,.6519-19.2112-13.6468-19.7886-28.4445Z"/><path class="uuid-7622af99-b3c1-41f2-ae8a-1578329915a0" d="M321.4889,197.9058l.1225-.0235s.6061-.081,1.6485-.2293c.5202-.0937,1.1744-.0768,1.8589-.2985,.6908-.2063,1.4761-.4419,2.329-.6731,.7857-.3783,1.6446-.7802,2.4988-1.257,.7416-.6424,1.6938-1.1135,2.3499-1.9601,.3398-.411,.7828-.747,1.0461-1.2131l.8504-1.3611c.3749-.9097,.7883-1.7229,.8572-3.1036,.1313-.9208-.0229-2.2193-.2711-3.2039-.2598-1.0257-.7093-1.988-1.3319-2.6813-.2797-.3575-.6517-.6013-.9249-.8-.1236-.0205-.0693-.142-.3138-.1925l-.4245-.0384-.0356-.0174-.1463,.0437c-1.0034,.2443-1.9422,.4633-2.8143,.6905-1.8172,.4303-3.3172,.7978-4.3728,1.0565-1.082,.2477-1.681,.3895-1.681,.3895-.3296,.0742-.6849-.1073-.8078-.4173-.1427-.3538,.0316-.7694,.3769-.9193l.0396-.0014s.5962-.2258,1.6138-.6342c1.0693-.3735,2.4352-.9951,4.3211-1.568,.9533-.2894,1.9637-.6157,3.0338-.9449l.2003-.0667,.0289,.0014c.1086-.0022-.1929-.0157,.22-.0184l.0116-.0077,.0468,.0097,.1162,.0094,.4101,.0108c.3005,.0178,.842,.2036,1.2494,.3712,.7033,.3514,1.2699,.7928,1.7365,1.3407,.9921,1.0447,1.6156,2.3522,1.9999,3.6786,.1552,.6752,.3678,1.3577,.3907,2.0549l.0726,1.0268,.0343,.262v.0493s.0032,.0303,.0032,.0303l-.0263,.1761,.0033,.0303-.0035,.1119-.0587,.4741c-.1163,.6584-.0261,1.1733-.3328,1.9447-.2515,.6943-.5051,1.4475-.8231,2.0838-.3744,.5759-.7498,1.1566-1.1303,1.7161-.1867,.2858-.4139,.5285-.6502,.7693,1.2182,.5709,2.4691,.9324,3.7334,.9923,.8534,.0535,1.7104-.0546,2.5391-.2615,.3938-.1002,.7974-.2477,1.1832-.4038,.3597-.1711,.7875-.3875,1.0204-.5652l.0454-.0298c.0287-.4703,.0655-1.0767,.1314-1.8244,.1142-.7915,.193-1.7428,.346-2.7224,.1744-.9858,.3745-2.0492,.5422-3.0998,.4159-2.1091,.9901-4.1759,1.4645-5.7132,.485-1.5401,.9103-2.5521,.9103-2.5521,.1017-.254,.364-.4307,.6496-.4356,.3927,.0027,.6999,.3216,.707,.7158,0,0,.0007,1.0903-.1661,2.7058-.1648,1.6063-.4554,3.7267-.879,5.8241-.2449,1.0446-.4787,2.0815-.7124,3.0697-.239,.9669-.5416,1.8624-.7599,2.6324-.2194,.7306-.4384,1.3139-.5964,1.748,.0242,.0246,.0487,.0493,.0529,.0748l.0515,.0841c.4878,.8716,1.0886,1.6243,1.8702,2.1689,.7537,.5338,1.6615,.8933,2.6248,1.0329,1.9278,.2709,4.1001-.1157,5.8057-1.1478l.0237-.0197c.0333-.0178,.0946-.0297,.1371-.0456,.061-.3902,.1345-.8412,.2431-1.4131,.1777-.6703,.3074-1.4883,.5596-2.3298,.2441-.8482,.5259-1.7379,.7807-2.6382,.5833-1.7798,1.2978-3.5275,1.9041-4.7972,.5815-1.2939,1.0933-2.1069,1.0933-2.1069,.1248-.2246,.3909-.3708,.6688-.3381,.3864,.0305,.6767,.3852,.6452,.7764,0,0-.0808,.9609-.3658,2.3407-.2946,1.3778-.7416,3.211-1.3432,4.982-.3387,.8779-.6504,1.771-.9648,2.58-.2894,.8293-.6665,1.5615-.9422,2.2317-.2295,.4927-.4541,.9129-.6327,1.2542,.0626,.1256,.1213,.2212,.1471,.3346,.3701,1.7263,1.2914,3.2572,2.836,3.9594,.7511,.3563,1.6245,.5025,2.534,.4741,.4565-.0234,.8966-.1095,1.3503-.2119,.3861-.1118,.8713-.2721,1.3498-.4971,.3085-.1621,.6731-.0722,.8588,.2166,.2281,.3222,.1575,.7592-.1512,.9705l-.0541,.0235c-.395,.2961-.8563,.5789-1.4511,.8443-.5267,.2201-1.0832,.3948-1.6586,.5168-1.1756,.2238-2.4371,.1499-3.5861-.279-1.1716-.414-2.239-1.1891-3.0209-2.1611-.4396-.5328-.7494-1.1268-1.0171-1.7322-1.9085,.8725-4.06,1.2534-6.1875,.9025-1.3344-.2414-2.671-.7629-3.7633-1.6075-.7854-.6188-1.3655-1.3768-1.8639-2.1968-.1279,.047-.2573,.1037-.3853,.1512-.4982,.1772-1.0412,.3351-1.5624,.4336-1.051,.1902-2.1372,.2656-3.1934,.1013-1.0563-.1639-2.0873-.4507-3.025-.9043-.6016-.2716-1.1496-.6156-1.6632-.9821-.7968,.7194-1.736,1.1787-2.53,1.7413-.5534,.2543-1.0829,.4884-1.5879,.6984,.7669,.1388,1.7281,.2885,2.836,.4877,1.6157,.3091,3.5527,.6307,5.5644,1.2574,2.0344,.6118,4.1578,1.4576,6.1633,2.6382,1.0142,.5579,1.9282,1.3165,2.8244,2.017,.8753,.7555,1.6681,1.577,2.3618,2.4032,.6421,.8839,1.3399,1.6908,1.7625,2.5932,.4326,.9,.9713,1.6689,1.2188,2.5156,.307,.7951,.5758,1.5385,.7861,2.1859,.1456,.6732,.2787,1.2654,.3662,1.7451,.2014,.9749,.2952,1.5193,.2952,1.5193,.0791,.3306-.1058,.656-.4264,.7814-.3529,.1383-.7574-.0433-.8899-.4l-.0332-.0752s-.1912-.5011-.5323-1.3721c-.1545-.4397-.339-.9736-.5565-1.5833-.3059-.564-.6387-1.1879-.9627-1.903-.2801-.7352-.8135-1.3859-1.2841-2.1509-.4377-.7828-1.143-1.4097-1.7033-2.1686-.6405-.702-1.3881-1.3623-2.1282-2.011-.8047-.6228-1.6069-1.2551-2.5073-1.7453-1.7267-1.1034-3.6682-1.9267-5.5328-2.5522-1.8558-.6684-3.6758-1.1765-5.2662-1.6081-1.5667-.4025-2.8966-.8587-3.8754-1.2082-.6152-.2548-1.0283-.4432-1.2226-.5472-.4995,.0884-.9584,.1706-1.3652,.2385-.8055,.1434-1.5115,.0413-2.0867,.0699-1.1357-.0183-1.7995-.0378-1.7995-.0378-.3257,.0066-.609-.2384-.6644-.5888-.0496-.3783,.2208-.7353,.5909-.767Z"/></g><path class="uuid-a47d2393-d03d-416b-a5ea-b1991ae59f1d" d="M317.2531,249.468l-26.4456,117.7725c-4.6157,18.3067,.6875,35.3325,21.7277,39.1229,12.8998,2.3107,30.1437-4.7643,34.1762-25.3818l10.561-129.4555c2.5186-14.9045-3.6017-25.1204-14.9914-26.8492-13.6982-2.0583-21.2042,5.8005-25.0279,24.7912Z"/></g></svg>