<?xml version="1.0" encoding="UTF-8"?><svg id="uuid-725e2428-ba64-4f72-9e09-1e752c32de87" xmlns="http://www.w3.org/2000/svg" width="455.8785" height="478.3822" viewBox="0 0 455.8785 478.3822"><defs><style>.uuid-3f45f3fd-59af-46d3-a68d-e0fb059161db{fill:#b28b67;}.uuid-a0b76d74-123f-4132-853a-b88f40089d8b{fill:#f18380;}.uuid-63dfd860-ce63-4e22-8c07-90abf181a72b{fill:#2943ac;}.uuid-b752dc10-4810-41ba-a15f-860e1f0abbb6{fill:#21378c;}.uuid-8810baa3-90c3-4bce-827d-9082d5867e0d{fill:#4e6ad9;}.uuid-aabd1ce5-ba71-480a-9261-5f1400fd1403{fill:#bc664a;}.uuid-24f3fc45-12cd-4d0d-8bbf-d5e702af0b78{fill:#403d4f;}.uuid-5379477b-d88b-463f-a5b0-7bb9290d7f02{fill:#73102a;}.uuid-77aeeb26-4bff-41a4-9b57-db4b0f202979{fill:#3f3f34;}.uuid-175e5dd8-e56a-4f20-a499-b9dab50faaab{fill:#192a6b;}.uuid-b65876d9-6036-4f11-b409-fa98bd6ebdcc{fill:#fbbeaa;}</style></defs><g id="uuid-7167ede9-a01e-4f7f-bca4-8deddfca0bbe"><g><g><path class="uuid-b65876d9-6036-4f11-b409-fa98bd6ebdcc" d="M258.8793,239.0847c-4.9867-14.8762,3.0331-30.9848,17.9149-35.9715,14.8813-4.9817,30.9798,3.0331,35.9665,17.9099l54.6082,162.866c4.9868,14.8767-3.0236,30.9803-17.9049,35.967-14.8818,4.9917-30.9803-3.0281-35.967-17.9049l-54.6178-162.8665Z"/><polygon class="uuid-a0b76d74-123f-4132-853a-b88f40089d8b" points="345.1151 317.5509 291.2437 335.613 285.295 317.8751 339.1764 299.8179 345.1151 317.5509"/><path class="uuid-b752dc10-4810-41ba-a15f-860e1f0abbb6" d="M283.7637,321.7279l-27.417-81.7989c-5.4481-16.2508,3.3378-33.8953,19.5936-39.3485,16.2553-5.4481,33.9054,3.3377,39.353,19.5981l27.4169,81.7889-58.9465,19.7604Z"/><rect class="uuid-8810baa3-90c3-4bce-827d-9082d5867e0d" x="278.9813" y="301.6434" width="67.2938" height="16.7671" transform="translate(-82.3142 115.4156) rotate(-18.5285)"/></g><path class="uuid-aabd1ce5-ba71-480a-9261-5f1400fd1403" d="M307.1451,478.3822h-113.7019c-.0768-3.678-.1228-6.6648-.1305-8.8379-.0384-7.3252,1.2132-14.7733,3.701-21.8297,4.2692-12.1319,12.2163-23.089,23.6265-30.1762,2.6183-1.6278,5.4133-3.0483,8.4002-4.2308,.0076,0,.0153-.0077,.023-.0077,4.346-1.743,9.0913-2.9562,14.1974-3.5782,.668-.0845,1.3284-.1535,2.0041-.2072,4.1771-.3762,8.5998-.3456,13.2529,.1305,6.3117,.6526,11.8708,1.8889,16.7697,3.6549,.0077,0,.0154,.0077,.023,.0077,13.537,4.8758,21.9372,13.7904,26.7132,25.3541l.0077,.0077c3.5704,8.6459,5.1292,18.766,5.2981,29.8075v.0307c.0614,3.2172-.0077,6.5113-.1843,9.8744Z"/><path class="uuid-aabd1ce5-ba71-480a-9261-5f1400fd1403" d="M250.7703,478.3822h-114.4928c.4223-5.0754,.7832-9.1066,1.0673-11.8401v-.0153c1.1825-11.341,5.4747-22.6667,12.5235-31.996,7.9933-10.5962,19.5339-18.6355,34.0922-21.2231,.0154,0,.0307-.0077,.0461-.0077,6.4191-1.1518,13.4372-1.2362,20.9851,0,.0153,0,.0307,.0077,.0461,.0077,1.1748,.192,2.3649,.407,3.5627,.668,4.4074,.9367,8.4156,2.1345,12.0398,3.5628,8.4002,3.3094,14.7809,7.8857,19.4801,13.4833v.0076c10.0664,11.9629,12.4774,28.5714,10.65,47.3528Z"/><path class="uuid-aabd1ce5-ba71-480a-9261-5f1400fd1403" d="M307.3755,468.2928c0,.0614-.0153,.1306-.0461,.215-.4377,1.3437-3.9928,5.3365-9.9205,9.8744H154.6212c-9.5519-3.9927-15.8943-8.1545-17.2764-11.8554-.2227-.5913-.3148-1.1748-.2764-1.743,.3455-4.6608,.7448-21.1771,1.0136-34.2612,.1996-9.5212,.3302-17.2226,.3302-17.2226h168.9634s.0307,10.7728,.0461,22.7895c.0307,14.4278,.0384,30.6522-.0461,32.2033Z"/><rect class="uuid-b65876d9-6036-4f11-b409-fa98bd6ebdcc" x="203.084" y="135.5431" width="60.5071" height="71.1922"/><path class="uuid-a0b76d74-123f-4132-853a-b88f40089d8b" d="M203.084,135.5431h60.5071v39.6917c-2.4934,.3191-5.1139,.5006-7.941,.5006-20.7912,0-44.0653-5.6687-52.5661-25.5025v-14.6898Z"/><g><path class="uuid-63dfd860-ce63-4e22-8c07-90abf181a72b" d="M263.5911,180.889s34.8186,20.2756,40.1682,23.6228c5.3401,3.3377,11.5832,8.9135,10.464,23.6178-1.1092,14.7149-5.7914,207.457-5.7914,207.457-14.3711,7.1313-28.6342,12.707-34.4256,13.3745-5.7914,.6674-10.3564,.7805-14.2631-3.0085-3.8971-3.7941-15.4803-17.7134-15.4803-17.7134,0,0-19.0533,12.9232-27.6426,17.7134-4.741,2.6502-8.54,4.1816-14.253,3.0085-12.4764-2.5667-61.7344-16.9328-63.2854-17.8264-1.5706-.8931-3.0135-1.8943-2.8959-3.5679,.1081-1.6736,1.0504-197.7681,1.7179-206.6273,.6775-8.8542,4.6827-17.3796,15.2155-22.0573,10.5228-4.6776,49.9647-20.7269,49.9647-20.7269l41.1789,28.5799,19.3282-25.8463Z"/><path class="uuid-175e5dd8-e56a-4f20-a499-b9dab50faaab" d="M243.2617,205.8518l1.0012,.8836,1.0012-.9228v223.6239c-.1669-.201-.3337-.3925-.4613-.5493-.3433-.4076-.5398-.6478-.5398-.6478,0,0-.3825,.2503-1.0012,.6725V205.8518Z"/><path class="uuid-8810baa3-90c3-4bce-827d-9082d5867e0d" d="M263.5911,175.2348l-19.3282,31.5005s18.9653,15.2889,19.8881,16.2166c.9127,.9127,3.3372,.9961,3.7594-.7559,.4121-1.7571,5.9386-34.9312,6.0271-35.2649,.0985-.3337,.1377-.7906-.196-1.1243s-10.1504-10.572-10.1504-10.572Z"/><path class="uuid-8810baa3-90c3-4bce-827d-9082d5867e0d" d="M202.7503,169.3942l41.5126,37.3411s-21.9,15.2889-22.8227,16.2166c-.9127,.9127-2.817,.785-3.7594-.7559-1.5706-2.5818-27.3189-38.6956-27.4169-39.0248-.098-.3287-.1377-.7951,.196-1.1288,.3343-.3287,12.2904-12.6482,12.2904-12.6482Z"/></g><g><path class="uuid-b65876d9-6036-4f11-b409-fa98bd6ebdcc" d="M294.8463,82.7267c-.4714,20.555-.1769,36.7666-3.681,52.4827-3.5046,15.706-14.9602,28.4915-40.031,28.4915s-53.7834-8.2164-55.7953-39.6329c-4.1233-4.457-10.8077-20.3887-11.0239-38.2196-.2256-17.8214,1.1188-55.5947,41.778-61.3911,40.6688-5.7964,69.8623,9.1341,68.7531,58.2695Z"/><path class="uuid-24f3fc45-12cd-4d0d-8bbf-d5e702af0b78" d="M273.6138,98.884c0,2.8025,1.6686,5.0651,3.7202,5.0651s3.7202-2.2627,3.7202-5.0651c0-2.7924-1.6686-5.0601-3.7202-5.0601s-3.7202,2.2677-3.7202,5.0601Z"/><path class="uuid-24f3fc45-12cd-4d0d-8bbf-d5e702af0b78" d="M228.3609,98.884c0,2.8025,1.6686,5.0651,3.7202,5.0651s3.7202-2.2627,3.7202-5.0651c0-2.7924-1.6686-5.0601-3.7202-5.0601s-3.7202,2.2677-3.7202,5.0601Z"/><path class="uuid-24f3fc45-12cd-4d0d-8bbf-d5e702af0b78" d="M237.4799,83.1046c-.383,.4463-3.0136,.1669-5.0948,0-2.5914-.2111-5.8894,.1518-5.8894-.4569,0-.6132,1.9239-3.5584,6.9498-3.0035,3.6614,.3976,4.7118,2.6698,4.0344,3.4603Z"/><path class="uuid-24f3fc45-12cd-4d0d-8bbf-d5e702af0b78" d="M272.7498,83.1046c.3237,.4463,2.5622,.1669,4.3288,0,2.1988-.2111,4.9968,.1518,4.9968-.4569,0-.6132-1.6299-3.5584-5.8999-3.0035-3.1019,.3976-3.9851,2.6698-3.4257,3.4603Z"/><path class="uuid-a0b76d74-123f-4132-853a-b88f40089d8b" d="M257.9173,119.729c3.5337,0,6.3216-2.3411,6.4493-3.971l-1.1776-14.1992c-.0593-.7358-.7559-1.2515-1.4434-1.2218-.7358,.0638-1.2761,.7117-1.2167,1.448l1.1383,13.664c-.3729,.491-1.7963,1.7179-4.0343,1.6003-.8147-.0885-1.3645,.5297-1.3942,1.266-.0488,.7313,.5302,1.3645,1.2665,1.3987,.1372,.0101,.2649,.0151,.4121,.0151Z"/><path class="uuid-3f45f3fd-59af-46d3-a68d-e0fb059161db" d="M220.4686,64.5077c0,12.3683-5.0752,17.7772-8.7466,20.3389-3.6715,2.5622-6.577,4.6972-6.577,8.9773v15.1416c0,1.6736-1.0012,3.0135-2.2772,2.5617-1.2861-.4463-6.2135-2.9497-6.2135-5.3988l-15.0974-10.67s-5.625-10.6409-4.2112-29.6942c1.4233-19.0533,15.9614-28.492,15.9614-28.492,.2548-10.6997,10.1106-29.753,31.1763-37.2722,.9424,5.517,0,11.6471,0,11.6471,9.6297-8.6923,41.9448-11.3722,53.5376-7.3574-1.5605,5.0113-7.2443,10.2484-7.2443,10.2484,11.0334,1.6736,31.314,12.3683,40.0013,25.5126-3.3473,5.5753-11.809,10.2579-11.809,10.2579,3.779,3.784,8.3536,15.4803,9.021,24.8401-11.7009-.2161-27.7406-6.9061-27.7406-6.9061,0,0,.8836,7.269-.7363,13.2177-10.1303-.6282-29.076-10.8761-34.416-19.1171,1.1092,4.2846,.0985,16.5403-1.1484,20.2168-7.3424-1.7817-19.0729-11.3134-23.4801-18.0521Z"/><g><path class="uuid-b65876d9-6036-4f11-b409-fa98bd6ebdcc" d="M196.2322,108.4649c-.2453-5.7672-1.1681-14.2043-9.2764-14.3762-8.0982-.1618-9.1879,5.9391-8.9426,15.5442,.2553,9.6101,10.0322,17.8802,18.6411,14.5425l-.4222-15.7105Z"/><path class="uuid-a0b76d74-123f-4132-853a-b88f40089d8b" d="M184.2956,115.3756c.0588,0,.1276-.005,.196-.0151,.7267-.103,1.2368-.785,1.1293-1.5113-.0688-.491,.2352-1.0062,.8147-1.3892,.8047-.5056,2.1395-.7413,3.5041,.1422,.4322,.2799,.9815,.2799,1.4233,.0146,.4322-.2649,.6876-.7559,.6383-1.261-.7458-8.0691-5.8899-9.5809-6.106-9.6397-.7262-.1865-1.4429,.2206-1.649,.9373-.1865,.7021,.2161,1.4379,.9228,1.6395,.1573,.0442,2.7487,.9228,3.7991,5.134-1.3841-.2307-2.8075,.0292-3.9755,.7901-1.4726,.9373-2.2385,2.4833-2.0224,4.0097,.098,.6679,.6674,1.1489,1.3254,1.1489Z"/></g><g><g><path class="uuid-77aeeb26-4bff-41a4-9b57-db4b0f202979" d="M238.4386,120.0196c-9.3229,0-16.9073-7.5844-16.9073-16.9073s7.5844-16.9073,16.9073-16.9073,16.9073,7.5844,16.9073,16.9073-7.5844,16.9073-16.9073,16.9073Zm0-31.7996c-8.2121,0-14.8924,6.6803-14.8924,14.8924s6.6803,14.8924,14.8924,14.8924,14.8924-6.6803,14.8924-14.8924-6.6803-14.8924-14.8924-14.8924Z"/><path class="uuid-77aeeb26-4bff-41a4-9b57-db4b0f202979" d="M283.8497,120.0196c-9.3229,0-16.9073-7.5844-16.9073-16.9073s7.5844-16.9073,16.9073-16.9073,16.9073,7.5844,16.9073,16.9073-7.5844,16.9073-16.9073,16.9073Zm0-31.7996c-8.2121,0-14.8924,6.6803-14.8924,14.8924s6.6803,14.8924,14.8924,14.8924,14.8924-6.6803,14.8924-14.8924-6.6803-14.8924-14.8924-14.8924Z"/><path class="uuid-77aeeb26-4bff-41a4-9b57-db4b0f202979" d="M253.8042,99.3108l-.8008-1.8496c5.3747-2.3238,11.5631-2.3848,16.9781-.1623l-.7644,1.8634c-4.8434-1.9864-10.6077-1.9313-15.4128,.1486Z"/></g><path class="uuid-77aeeb26-4bff-41a4-9b57-db4b0f202979" d="M222.2102,104.0647c-5.843-2.0188-22.1846-6.7993-27.574-4.7382l-.7202-1.8811c7.1761-2.7449,28.066,4.4096,28.9514,4.7146l-.6572,1.9047Z"/></g><path class="uuid-5379477b-d88b-463f-a5b0-7bb9290d7f02" d="M256.3037,141.3791l-.0271,.0027c-.3883,.0318-9.5919,.7462-16.1066-3.7449-.606-.4167-.7102-1.2044-.2348-1.7574,.4724-.5551,1.3507-.6684,1.9543-.2489,5.6581,3.8977,14.1051,3.2547,14.1894,3.2486,.7685-.0628,1.4331,.4466,1.489,1.1356,.0524,.682-.5107,1.2882-1.2641,1.3642Z"/></g><g><g><path class="uuid-b65876d9-6036-4f11-b409-fa98bd6ebdcc" d="M387.1969,255.6673c2.5669-7.9563,3.061-21.6643,3.4864-30.0869,.4335-8.4174-.5958-13.3241,.9808-16.8549,1.5884-3.5524,3.1819-7.1928,7.8914-7.0856,1.8506,.0454,3.8975,.1637,5.9321,.3026,.5805-2.0254,1.2294-4.2889,1.8862-6.8246,2.8995-11.2485,4.7163-22.4429,6.1302-27.5705,1.4108-5.1403,6.6231-6.131,10.3012-4.3574,3.6846,1.7826,4.615,3.7559,4.014,9.4382-.6093,5.6775-2.3579,15.2491-4.2749,22.8589,5.3323-6.1675,15.1392,1.4813,12.5784,8.1017,5.2251-4.2787,13.8656,1.4147,11.8634,8.8972,6.5198-1.5773,10.6725,5.5206,5.692,12.9518-1.2197,2.0955-2.1312,3.8298-3.3474,5.3456-4.0343,8.0111-9.7096,20.0424-11.7712,25.0766-2.6306,6.4051-15.2702,17.0919-16.6149,21.4446-1.8978,5.6371-11.2427,15.8597-24.5523,12.2244-13.3158-3.6446-14.3194-19.3219-10.1954-33.8618Z"/><path class="uuid-a0b76d74-123f-4132-853a-b88f40089d8b" d="M402.9397,216.9303l.1263,.016s.6137,.1133,1.672,.2994c.5344,.0738,1.1638,.2973,1.898,.2988,.7355,.0185,1.5721,.0386,2.4727,.0842,.882-.1183,1.8426-.2364,2.8224-.4286,.9229-.3885,1.9958-.5442,2.9004-1.1579,.4598-.2912,.996-.4769,1.3989-.8458l1.2559-1.0514c.6517-.7639,1.3102-1.4221,1.8142-2.7399,.4189-.8518,.6803-2.1605,.7512-3.1943,.0726-1.0774-.0589-2.1533-.4435-3.0231-.1582-.4354-.442-.7897-.6441-1.069-.1134-.059-.0223-.1597-.2435-.2861l-.3997-.1716-.0291-.0282-.1558-.0039c-1.0509-.0806-2.031-.1653-2.9491-.2209-1.8993-.1578-3.471-.276-4.5771-.3592-1.1282-.1022-1.7543-.1542-1.7543-.1542-.3433-.0323-.6305-.3209-.6517-.6606-.0265-.3885,.2742-.7365,.6567-.7727l.0388,.0112s.6499-.0304,1.7666-.1044c1.1557-.0239,2.6777-.1946,4.6888-.1535,1.0166,.021,2.1001,.0242,3.2426,.0436l.2155-.0013,.0276,.0105c.106,.0322-.1822-.0763,.2193,.0518l.0137-.0037,.0423,.0242,.1098,.0459,.3945,.1403c.286,.1124,.7525,.464,1.0947,.7556,.5711,.5636,.9811,1.1712,1.2604,1.8505,.6319,1.3276,.823,2.7936,.7759,4.2022-.0631,.7042-.073,1.4337-.2714,2.1174l-.2546,1.0192-.0497,.2651-.0157,.0478-.0064,.0305-.0813,.1625-.0064,.0305-.0388,.1075-.207,.4414c-.3212,.6019-.3967,1.1301-.9385,1.7815-.4638,.594-.9483,1.2445-1.4582,1.7612-.5455,.4402-1.0936,.8848-1.6399,1.3072-.2716,.2182-.5689,.3818-.8744,.5406,1.0012,.9395,2.1005,1.6862,3.3082,2.1446,.811,.3221,1.6768,.4885,2.5464,.55,.4138,.0274,.852,.0121,1.2758-.0173,.4031-.0522,.8868-.1266,1.1689-.2253l.0535-.0146c.1767-.4472,.4044-1.0239,.705-1.7285,.3614-.7318,.7389-1.6298,1.1975-2.5318,.4813-.9012,1.012-1.8697,1.5073-2.8359,1.0712-1.9146,2.2825-3.7382,3.2295-5.0795,.9581-1.3408,1.691-2.188,1.691-2.188,.1791-.2143,.4895-.3026,.7682-.217,.3802,.1269,.5773,.5336,.4594,.9183,0,0-.3445,1.0581-1.0177,2.5726-.6684,1.5063-1.6215,3.4716-2.6965,5.3725-.5683,.936-1.1233,1.868-1.6629,2.7528-.538,.8625-1.115,1.6355-1.5706,2.3135-.4441,.6394-.8413,1.1361-1.132,1.5071,.0156,.0315,.0316,.0632,.0277,.0893l.0234,.0979c.1973,1.0001,.542,1.9205,1.128,2.6964,.5622,.7565,1.3293,1.3926,2.2197,1.833,1.7847,.8731,4.0146,1.1857,5.9962,.7242l.0292-.0117c.038-.0067,.1012,.0011,.1475-.0008,.1827-.3593,.3968-.7735,.6832-1.2941,.3846-.5941,.7694-1.3467,1.2805-2.0833,.5053-.7457,1.0604-1.5197,1.5926-2.3125,1.1294-1.5422,2.3758-3.0117,3.3659-4.0517,.9738-1.0714,1.7277-1.6981,1.7277-1.6981,.1922-.1784,.4966-.2361,.7559-.1163,.3652,.1519,.5346,.5879,.3802,.9575,0,0-.3825,.9067-1.0958,2.1552-.722,1.2435-1.7359,2.8806-2.8803,4.4085-.6065,.7446-1.1916,1.5124-1.7528,2.1978-.5433,.713-1.1409,1.3041-1.6206,1.867-.3786,.4054-.7295,.742-1.0108,1.0166,.021,.1416,.0477,.253,.0368,.3712-.1874,1.7921,.2219,3.5691,1.4982,4.7393,.616,.5834,1.4171,1.0018,2.3085,1.2621,.4503,.1218,.9046,.1776,1.3771,.2218,.41,.0137,.9315,.0118,1.467-.0551,.3506-.0596,.6759,.143,.7647,.482,.1194,.3848-.0875,.7864-.4539,.8937l-.06,.0057c-.477,.1622-1.014,.2907-1.6752,.3598-.5807,.0468-1.176,.0401-1.7728-.0236-1.2115-.155-2.412-.6261-3.391-1.4059-1.0057-.7725-1.796-1.8624-2.2468-3.0531-.2578-.6561-.3704-1.3305-.4384-2.0026-2.1279,.2424-4.3359-.0691-6.289-1.0831-1.2183-.6566-2.35-1.5857-3.1424-2.7509-.5661-.849-.8891-1.768-1.113-2.7214-.139,.0051-.2825,.0192-.4217,.0248-.5395,.0142-1.1163-.0045-1.6532-.0739-1.08-.1481-2.1577-.4188-3.1304-.9126-.973-.4933-1.8825-1.098-2.6487-1.835-.4978-.454-.9205-.9612-1.3028-1.4794-1.0009,.4458-2.0574,.5941-3.0059,.8886-.6174,.0716-1.2053,.131-1.7617,.1749,.7001,.3774,1.5853,.827,2.5972,1.3709,1.4698,.8113,3.2473,1.7365,5.0008,2.9813,1.7802,1.2376,3.5726,2.7304,5.1447,4.5106,.8074,.8624,1.4541,1.8876,2.1019,2.851,.61,1.0101,1.1192,2.0581,1.5308,3.0793,.3432,1.0608,.7648,2.0646,.8891,3.0739,.1349,1.0101,.4141,1.9267,.3862,2.8265,.0462,.8686,.0717,1.675,.0707,2.3696-.0719,.6993-.1302,1.316-.1971,1.8091-.1132,1.0097-.1945,1.5675-.1945,1.5675-.028,.3458-.3103,.603-.661,.6231-.3862,.0225-.7212-.2818-.7368-.6698l-.0084-.0835s-.0269-.5467-.0821-1.4998c-.0107-.4755-.0207-1.052-.0388-1.7123-.1183-.6441-.2436-1.3547-.3316-2.1511-.039-.802-.3506-1.6022-.565-2.4934-.1769-.8981-.6627-1.7296-.9661-2.6432-.3992-.8839-.9156-1.7612-1.4283-2.6248-.5836-.859-1.1617-1.7264-1.8802-2.4871-1.3261-1.6171-2.9491-3.0306-4.5602-4.2277-1.589-1.236-3.1939-2.3051-4.6004-3.2273-1.3927-.8865-2.5386-1.7501-3.3776-2.399-.5162-.4419-.8574-.7555-1.013-.9179-.5126-.0723-.9839-.1378-1.4001-.2008-.8269-.1159-1.4796-.4384-2.0467-.5928-1.0961-.3773-1.734-.6063-1.734-.6063-.3181-.0967-.5154-.4241-.4582-.7816,.0717-.3828,.447-.6436,.8161-.5571Z"/></g><path class="uuid-b65876d9-6036-4f11-b409-fa98bd6ebdcc" d="M382.5078,265.6167l-62.9394,105.8953c-10.2733,16.3006-10.5175,34.4984,8.6965,44.8362,11.7843,6.3254,30.7545,4.9196,41.1935-13.8078l51.2259-122.2587c7.1617-13.6635,4.4574-25.5128-6.046-30.7956-12.6389-6.3332-22.4091-1.0844-32.1305,16.1306Z"/></g><g><path class="uuid-b65876d9-6036-4f11-b409-fa98bd6ebdcc" d="M136.5785,220.2721c5.3993-14.7345,21.7336-22.293,36.458-16.8891,14.734,5.4089,22.2925,21.7281,16.8836,36.4575l-59.1526,161.2713c-5.4089,14.7295-21.7135,22.288-36.4575,16.8841-14.7244-5.3988-22.2829-21.7235-16.8841-36.453l59.1526-161.2708Z"/><polygon class="uuid-a0b76d74-123f-4132-853a-b88f40089d8b" points="154.8567 335.4115 101.5151 315.8431 107.9448 298.277 161.306 317.8555 154.8567 335.4115"/><path class="uuid-63dfd860-ce63-4e22-8c07-90abf181a72b" d="M104.3517,300.3286l29.7138-80.9842c5.9095-16.0985,23.8048-24.3787,39.8933-18.4693,16.089,5.8994,24.3743,23.7947,18.4743,39.8882l-29.7137,80.9842-58.3676-21.419Z"/><polygon class="uuid-8810baa3-90c3-4bce-827d-9082d5867e0d" points="99.7188 305.5113 162.8962 328.7024 168.668 312.9572 105.4906 289.7761 99.7188 305.5113"/></g><g><g><path class="uuid-b65876d9-6036-4f11-b409-fa98bd6ebdcc" d="M66.5994,250.4575c-2.1342-8.0882-1.885-21.8026-1.851-30.2313,.021-8.4335,1.3323-13.2859-.07-16.8929-1.389-3.6243-2.7853-7.3495-7.4827-7.4982-1.8503-.055-3.9029-.0523-5.9374-.0149-.4854-2.0623-1.0017-4.3622-1.5185-6.9255-2.2913-11.3806-3.4986-22.6571-4.633-27.8535-1.1234-5.2182-6.274-6.4896-10.0391-4.9091-3.7801,1.5717-4.8248,3.4956-4.535,9.1976,.3051,5.7112,1.5279,15.3544,3.0318,23.0615-4.9879-6.443-15.1973,.6585-12.9878,7.4079-4.9966-4.5556-13.924,.657-12.3328,8.2321-6.4336-1.924-10.965,4.9385-6.3749,12.6245,1.0891,2.1718,1.8987,3.94,3.0379,5.5322,3.5938,8.2182,8.6063,20.5349,10.4011,25.6694,2.2749,6.5513,14.3122,17.8985,15.4218,22.3224,1.587,5.7268,10.3616,16.437,23.8596,13.5281,13.4848-2.913,15.3437-18.5213,12.0099-33.2502Z"/><path class="uuid-a0b76d74-123f-4132-853a-b88f40089d8b" d="M52.9856,210.9155l-.1361,.0132s-.619,.0799-1.6831,.2126c-.5376,.0447-1.1807,.23-1.9204,.2-.729-.0297-1.5564-.0595-2.4561-.0587-.8763-.1701-1.8313-.3445-2.806-.5804-.896-.4514-1.9544-.6561-2.8266-1.3224-.4524-.3112-.9642-.5212-1.3467-.9119l-1.2083-1.1179c-.6112-.8028-1.22-1.491-1.656-2.8427-.3699-.8687-.5669-2.1811-.5809-3.2171-.0193-1.089,.1748-2.1472,.6088-2.9906,.1795-.4302,.4907-.7729,.7075-1.0413,.1056-.053,.0198-.1578,.2566-.2765l.3972-.1497,.0328-.0221,.1561,.0038c1.0511-.0273,2.0477-.0547,2.9632-.0691,1.9009-.0418,3.4831-.083,4.5829-.102,1.1328-.0407,1.7713-.0589,1.7713-.0589,.3423-.0182,.6385-.2819,.6754-.6243,.0458-.3907-.2227-.7502-.6132-.8069l-.0395,.0086s-.6371-.0651-1.7498-.2043c-1.1504-.082-2.663-.339-4.6824-.4025-1.0161-.0341-2.0985-.0902-3.2291-.1327l-.2257-.0128-.0288,.0088c-.0964,.0264,.1867-.0661-.2195,.0443l-.013-.0047-.035,.0176-.1229,.0397-.3975,.1279c-.2851,.0884-.7826,.4093-1.1381,.686-.5963,.5408-1.0414,1.121-1.339,1.7752-.7232,1.296-.9935,2.7494-1.0179,4.1673,.0206,.6981-.0098,1.4268,.1625,2.1203l.1878,1.0315,.0444,.2634,.0046,.0528,.0153,.0306,.0548,.1755,.011,.022,.0332,.1099,.1826,.4516c.2927,.6274,.3349,1.15,.8517,1.8297,.4199,.6187,.8682,1.2941,1.3519,1.8426,.5207,.4687,1.0438,.9424,1.5757,1.3897,.248,.2321,.5444,.4073,.8346,.5913-1.0502,.8837-2.191,1.5654-3.4218,1.9577-.816,.2776-1.6985,.4014-2.5589,.4157-.4367,.0048-.8649-.0386-1.2752-.0909-.4105-.0741-.8914-.1788-1.1659-.2879l-.0439-.0224c-.1477-.4471-.3568-1.04-.6212-1.7637-.319-.7458-.6361-1.6629-1.0498-2.598-.4401-.9212-.9047-1.9128-1.3559-2.8999-.9614-1.9833-2.0719-3.8694-2.9515-5.2511-.8755-1.395-1.5679-2.2724-1.5679-2.2724-.1667-.2239-.4723-.3288-.7468-.2626-.386,.1059-.6161,.5012-.5166,.8961,0,0,.291,1.0624,.872,2.6157,.5878,1.5444,1.4307,3.5539,2.4143,5.5154,.517,.9648,1.0101,1.9257,1.5003,2.8382,.4906,.8909,1.0359,1.6935,1.4408,2.3912,.422,.6666,.7827,1.1886,1.0618,1.5703-.0263,.0351-.035,.0614-.046,.0832l-.0151,.1009c-.2646,.9839-.6544,1.8929-1.2811,2.6356-.6029,.7251-1.3947,1.3145-2.3183,1.7062-1.8296,.7747-4.0617,.9662-6.0201,.3887l-.033,.0003c-.0398-.0132-.1011-.0044-.1472-.0088-.1627-.3682-.3565-.7984-.6138-1.3339-.3433-.6184-.695-1.386-1.1571-2.154-.4727-.7677-.9742-1.5704-1.4647-2.3949-1.0533-1.5971-2.2075-3.1318-3.1413-4.2282-.9145-1.123-1.631-1.7848-1.631-1.7848-.1934-.1886-.4876-.2716-.7507-.1616-.3819,.1364-.5833,.5669-.4401,.9398,0,0,.3344,.9304,.979,2.2157,.6493,1.2723,1.584,2.9615,2.6371,4.5581,.5675,.7809,1.1041,1.566,1.6295,2.2853,.5122,.7366,1.0704,1.3687,1.5167,1.9517,.3691,.43,.6878,.7807,.9561,1.0746-.0239,.1272-.0547,.2417-.0591,.3642,.0902,1.8-.4148,3.5522-1.7417,4.6511-.6577,.5496-1.4783,.928-2.3756,1.1311-.4589,.0929-.9196,.1373-1.3783,.1419-.4282,.0005-.9373-.0293-1.4818-.1295-.3359-.079-.6717,.1057-.7898,.4399-.14,.3778,.047,.7945,.4161,.917l.0525,.0175c.4677,.1883,1.0015,.3322,1.6532,.4501,.5863,.0737,1.1683,.095,1.7805,.0681,1.2091-.0846,2.4312-.4944,3.4645-1.2155,1.0416-.7259,1.8813-1.7671,2.3957-2.9308,.2957-.6369,.4417-1.3089,.5461-1.9763,2.1251,.3619,4.3332,.166,6.3384-.7406,1.2549-.5854,2.437-1.447,3.2939-2.5851,.605-.8083,.9879-1.7087,1.2525-2.6488,.1383,.0133,.279,.0305,.4192,.0478,.5402,.0479,1.1154,.0558,1.6552,.0156,1.0885-.0842,2.1767-.301,3.1773-.7364,1.0028-.4534,1.9503-.9948,2.7417-1.6937,.5221-.4265,.9713-.9099,1.3791-1.4107,.9794,.508,2.0269,.7131,2.9576,1.0588,.6081,.0959,1.1944,.1921,1.7497,.2702-.7237,.3303-1.6273,.7396-2.6785,1.2279-1.4918,.7262-3.3301,1.5496-5.1464,2.7016-1.8398,1.148-3.7132,2.5373-5.3726,4.2206-.8683,.8307-1.5565,1.8016-2.2621,2.7379-.6552,.9706-1.2201,1.9899-1.6953,2.9911-.3984,1.0454-.8648,2.0203-1.0524,3.0264-.1942,.9919-.5179,1.9015-.5434,2.7925-.0909,.8693-.1558,1.6817-.1948,2.3708,.0318,.6981,.0676,1.3166,.0988,1.8171,.0583,1.0143,.1072,1.5717,.1072,1.5717,.0092,.3468,.2797,.6227,.6373,.6576,.3732,.0434,.7264-.2378,.7633-.6239l.0172-.0969s.061-.5355,.1588-1.4796c.0365-.4743,.0754-1.0538,.132-1.7079,.1615-.641,.3147-1.3436,.4431-2.1383,.0934-.7991,.4481-1.5808,.7125-2.455,.2163-.8827,.7445-1.6907,1.1076-2.5868,.4359-.8607,1.0011-1.7047,1.5645-2.5522,.6223-.8175,1.2489-1.6479,2.0143-2.3775,1.403-1.5379,3.1007-2.8615,4.7827-3.9743,1.6449-1.1431,3.3053-2.1241,4.7709-2.9687,1.4253-.8137,2.6164-1.6139,3.5006-2.2164,.5372-.4178,.8987-.7037,1.0612-.8616,.5093-.0361,.983-.0758,1.4089-.1246,.8256-.0626,1.4923-.353,2.0801-.4724,1.0994-.3258,1.7557-.5071,1.7557-.5071,.3159-.0921,.5327-.4043,.5019-.7729-.0578-.3775-.4049-.6538-.7824-.5961Z"/></g><path class="uuid-b65876d9-6036-4f11-b409-fa98bd6ebdcc" d="M70.7419,260.6461l57.1176,109.1514c9.3616,16.8288,8.6213,35.0175-11.1296,44.2904-12.1094,5.6771-30.9654,3.2451-40.3799-16.0114l-44.5281-124.8646c-6.3993-14.0317-3.0526-25.7088,7.7084-30.4185,12.9615-5.6428,22.4462,.1318,31.2116,17.8528Z"/></g></g></g></svg>