<?xml version="1.0" encoding="UTF-8"?>
<svg id="Layer_2" data-name="Layer 2" xmlns="http://www.w3.org/2000/svg" viewBox="0 0 1289 737.02">
  <defs>
    <style>
      .cls-1 {
        fill: #b46226;
      }

      .cls-2 {
        fill: #fff;
      }

      .cls-3 {
        fill: #ff919a;
      }

      .cls-4 {
        fill: #70d4ff;
      }

      .cls-5 {
        fill: #bcebff;
      }

      .cls-6 {
        fill: #ffac9c;
      }

      .cls-7 {
        fill: #2743ab;
      }

      .cls-8 {
        fill: #ffd600;
      }

      .cls-9 {
        fill: #823c26;
      }

      .cls-10 {
        fill: #0c3240;
      }

      .cls-11 {
        fill: #000e1b;
      }

      .cls-12, .cls-13 {
        fill: none;
      }

      .cls-13 {
        stroke: #0c3240;
        stroke-linecap: round;
        stroke-miterlimit: 10;
        stroke-width: 11px;
      }

      .cls-14 {
        fill: #1a7dfb;
      }

      .cls-15 {
        fill: #e5f3ff;
      }
    </style>
  </defs>
  <g id="Layer_1-2" data-name="Layer 1">
    <g>
      <g>
        <g>
          <rect class="cls-6" x="749.9" y="140.36" width="100.49" height="44.5" transform="translate(1446.46 -336.34) rotate(130.85)"/>
          <g>
            <polygon class="cls-10" points="818.97 195.39 859.38 142.17 816.17 110.05 773.94 158.9 818.97 195.39"/>
            <path class="cls-10" d="M818.45,141.43c9.3,8.04,23.35,7.02,31.38-2.28,8.04-9.3,7.02-23.35-2.28-31.38-9.3-8.04-23.35-7.02-31.38,2.28-8.04,9.3-7.02,23.35,2.28,31.38Z"/>
          </g>
          <path class="cls-10" d="M752.73,217.45c9.3,8.04,23.35,7.02,31.38-2.28,8.04-9.3,7.02-23.35-2.28-31.38-9.3-8.04-23.35-7.02-31.38,2.28-8.04,9.3-7.02,23.35,2.28,31.38Z"/>
        </g>
        <g>
          <path class="cls-2" d="M843.85,703.04c-9.96-1.25-17.65-11.21-17.65-11.21h-9.43c3.24-16.29,2.66-21.32,2.66-21.32l41.33,13.48-.54,8.66h0c-3.24-.16-6.26,1.76-7.38,4.81-1.13,3.07-3.61,6.27-8.99,5.59Z"/>
          <path class="cls-4" d="M781.22,714.97c11.47-6.32,31.52-3.47,35.18-21.28,.13-.65,.25-1.25,.37-1.87h9.43s7.69,9.96,17.65,11.21c5.39,.68,7.86-2.52,8.99-5.59,1.12-3.05,4.14-4.97,7.38-4.81h0l-2.14,34.48h-89.65s1.31-5.83,12.78-12.14Z"/>
          <g>
            <path class="cls-5" d="M842.71,712.49c4.79-3.73,10.66-5.9,16.68-6.27l-.14,2.28c-5.47,.39-10.78,2.39-15.13,5.79-4.23,3.3-7.39,7.81-9.14,12.83h-2.4c1.83-5.74,5.35-10.9,10.13-14.63Z"/>
            <path class="cls-5" d="M826.2,691.83s.33,.43,.93,1.09c-2.25,11.88-8.16,19.61-18.1,23.56-2.18,.87-4.44,1.28-6.69,1.28-4.97,0-9.8-2.06-13.34-5.74,.84-.23,1.69-.46,2.55-.67,4.5,3.99,10.92,5.29,16.64,3.01,9.34-3.71,14.85-11.09,16.84-22.54h1.17Z"/>
          </g>
          <polygon class="cls-2" points="858.09 727.12 857.51 734.02 767.85 734.02 768.43 727.12 858.09 727.12"/>
        </g>
        <path class="cls-2" d="M1018.28,695.67l-8.48-16.79-36.57,8.35,2.46,10.28s7.7,4.64,24.12,5.52c16.42,.88,18.47-7.37,18.47-7.37Z"/>
        <path class="cls-4" d="M1011.93,695.72s-6.62-4.67-15.07-4.32c-8.45,.35-12.81,6.18-12.81,6.18h-8.35s8.56,29.51,8.56,29.51h48.91s-14.88-31.37-14.88-31.37h-6.36Z"/>
        <polygon class="cls-2" points="1033.17 727.09 1036.64 734.02 986.02 734.02 984.26 727.09 1033.17 727.09"/>
        <path class="cls-5" d="M1031.76,726.76l-.3,.33h-2.89c-6.24-4.91-14.62-7.57-22.91-7.11-7,.38-13.79,2.97-19.09,7.11h-2.31s-.24-.83-.24-.83c5.81-4.98,13.53-8.12,21.52-8.55,9.63-.53,19.43,2.86,26.23,9.05Z"/>
        <path class="cls-5" d="M984.04,697.58s.14-.19,.41-.49c1.36,4.21,6.83,18.27,19.1,18.26,.14,0,.29,0,.43,0,3.34-.09,5.71-1.18,7.25-3.33,3.38-4.72,1.73-13.17,.96-16.3h2.35c.89,3.78,2.32,12.35-1.45,17.62-1.96,2.74-5,4.18-9.05,4.29-.17,0-.33,0-.5,0-13.92,0-19.92-15.69-21.33-20.05h1.82Z"/>
        <path class="cls-11" d="M885.66,261.79s11.05,15.19,6.79,74.46c-1.81,25.24-13.64,106.99-16.55,158.18l-59.07-3.72,10.9-213.33,57.92-15.59Z"/>
        <polygon class="cls-11" points="875.9 494.43 863.26 686.11 812.25 686.11 816.83 490.71 875.9 494.43"/>
        <path class="cls-11" d="M816.83,490.71c-1.03,16.31,11.36,30.37,27.67,31.4,16.31,1.03,30.37-11.36,31.4-27.67,1.03-16.31-11.36-30.37-27.67-31.4-16.31-1.03-30.37,11.36-31.4,27.67Z"/>
        <path class="cls-11" d="M816.83,490.71c-1.03,16.31,11.36,30.37,27.67,31.4,16.31,1.03,30.37-11.36,31.4-27.67,1.03-16.31-11.36-30.37-27.67-31.4-16.31-1.03-30.37,11.36-31.4,27.67Z"/>
        <polygon class="cls-11" points="983.73 489.21 1020.47 677.75 971.15 690.78 925.67 500.7 983.73 489.21"/>
        <path class="cls-11" d="M925.67,500.7c3.17,16.03,18.74,26.46,34.78,23.29,16.03-3.17,26.46-18.74,23.29-34.78-3.17-16.03-18.74-26.46-34.78-23.29-16.03,3.17-26.46,18.74-23.29,34.78Z"/>
        <g>
          <path class="cls-11" d="M934.09,276.56s12.38,12.85,23.47,67.17c5.06,24.79,15.91,95.24,26.17,145.47l-58.06,11.49-53.95-225.09,62.38,.95Z"/>
          <path class="cls-11" d="M925.67,500.7c3.17,16.03,18.74,26.46,34.78,23.29,16.03-3.17,26.46-18.74,23.29-34.78-3.17-16.03-18.74-26.46-34.78-23.29-16.03,3.17-26.46,18.74-23.29,34.78Z"/>
        </g>
        <path class="cls-12" d="M941.27,193.79s.05,.05,.11,.14l-.19,.38c.05-.31,.08-.52,.08-.52Z"/>
        <path class="cls-10" d="M934.09,276.56l11.8-117.36-8.23-56.85h-104.61s-25.97,51.06-5.73,116.24l.43,58.8,106.35-.82Z"/>
        <polygon class="cls-6" points="900.37 54.35 898.58 100.74 859.87 100.74 862.77 82.28 900.37 54.35"/>
        <path class="cls-11" d="M864.98,86.17c-1.09,.1-2,.08-2.83-.01l-1.16,7.43c18.84-1.21,24.86-20.48,24.86-20.48h0c-4.17,4.67-15.91,12.6-20.86,13.07Z"/>
        <path class="cls-6" d="M892.14,60.29s-2.43,8.51-5.33,12.85c-2.8,4.19-20.04,18.17-29.37,12.04-7.14-4.7-8.56-16.64-8.92-24.92-.42-9.6-.56-20.57,.8-29.27l32.21-6.39,11.88,26.28-1.27,9.4Z"/>
        <path class="cls-11" d="M859.72,50.85c-.02,1.94-1.12,3.49-2.45,3.48s-2.38-1.6-2.36-3.54c.02-1.94,1.12-3.49,2.45-3.48,1.33,.02,2.38,1.6,2.36,3.54Z"/>
        <path class="cls-11" d="M873.58,50.26c-.02,1.94-1.12,3.49-2.45,3.48-1.33-.02-2.38-1.6-2.36-3.54,.02-1.94,1.12-3.49,2.45-3.48s2.38,1.6,2.36,3.54Z"/>
        <path class="cls-11" d="M853.49,40.29c-.26,0-.52-.13-.67-.37-.24-.37-.12-.86,.25-1.1,2.06-1.3,4.72-1.36,6.93-.16,.39,.21,.53,.69,.32,1.08-.21,.39-.7,.53-1.08,.32-1.71-.93-3.75-.88-5.32,.11-.13,.08-.28,.12-.43,.12Z"/>
        <path class="cls-11" d="M866.45,40.59c-.24,0-.49-.11-.65-.33-.26-.36-.18-.85,.18-1.11,2.23-1.63,5.44-1.76,7.8-.32,.38,.23,.49,.72,.26,1.1-.23,.38-.72,.49-1.1,.27-1.82-1.11-4.3-1.01-6.03,.25-.14,.1-.31,.15-.47,.15Z"/>
        <path class="cls-11" d="M861.69,70.62c-.26,0-.53-.01-.8-.04-.44-.05-.75-.44-.71-.88,.05-.44,.42-.76,.88-.71,3.19,.35,6.44-1.93,7.54-5.29,.14-.42,.59-.65,1.01-.51,.42,.14,.65,.59,.51,1.01-1.23,3.78-4.76,6.42-8.43,6.42Z"/>
        <path class="cls-11" d="M861.29,64.32c-.53,0-1.3-.1-1.93-.56-.53-.39-.86-.97-.96-1.69-.27-1.98,2.42-12.02,2.96-14.02,.12-.42,.56-.68,.98-.56,.42,.12,.68,.55,.56,.98-1.22,4.5-3.1,12.1-2.92,13.38,.05,.37,.21,.53,.32,.62,.4,.3,1.11,.26,1.34,.23,.42-.07,.84,.22,.91,.66,.07,.43-.22,.84-.65,.91-.06,0-.29,.04-.61,.04Z"/>
        <path class="cls-11" d="M900.36,25.6s21.46-6.53,1.42,29.36l-2.09,17.28-7.09-9.9-4.88-8.95-3.15,8.21h-1.82s.49-19.58,.49-19.58c0,0-7.09-2.37-6.7-11.73,0,0-31.67,9.18-36.52-1.91l5.63-7.94,3.85,2.07s-5.18-5.19-5.63-13.33l7.41,6.52s-5.33-6.67,0-15.26l9.37-.44s2.27,4.89,10.17,8.44c9.45,4.25,34.47,.54,29.54,17.16Z"/>
        <circle class="cls-6" cx="894.91" cy="56.22" r="7.74"/>
        <path class="cls-2" d="M876.02,117.95l-8.35-15.5-10.04,14.66s-3.24-11.65-3.22-14.76l7.14-12.26,6.36,8.85,31.3-14.15,2.57,17.55-25.76,15.61Z"/>
        <g>
          <path class="cls-6" d="M991.27,182.59c-11.07,5.34-15.71,18.64-10.37,29.71,5.34,11.07,18.64,15.71,29.71,10.37,11.07-5.34,15.71-18.64,10.37-29.71-5.34-11.07-18.64-15.71-29.71-10.37Z"/>
          <polygon class="cls-6" points="1018.22 188.61 982.92 145.11 961.03 188.76 983.66 216.65 1018.22 188.61"/>
          <g>
            <polygon class="cls-10" points="1004.85 150.82 951.02 106.83 920.34 138.62 961.03 188.76 1004.85 150.82"/>
            <path class="cls-10" d="M951.64,141.87c9.54-7.74,11-21.76,3.26-31.3-7.74-9.54-21.76-11-31.3-3.26-9.54,7.74-11,21.76-3.26,31.3,7.74,9.54,21.76,11,31.3,3.26Z"/>
          </g>
        </g>
        <g>
          <polygon class="cls-6" points="984.07 188.12 924.65 266.51 949.25 287.66 1017.81 217.13 984.07 188.12"/>
          <path class="cls-6" d="M1015.44,185.75c-9.32-8.01-23.37-6.95-31.38,2.37-8.01,9.32-6.95,23.37,2.37,31.38,9.32,8.01,23.37,6.95,31.38-2.37,8.01-9.32,6.95-23.37-2.37-31.38Z"/>
          <path class="cls-6" d="M947.52,264.78c-6.79-5.84-17.03-5.07-22.87,1.73-5.84,6.79-5.07,17.03,1.73,22.87,6.79,5.84,17.03,5.07,22.87-1.73,5.84-6.79,5.07-17.03-1.73-22.87Z"/>
        </g>
        <g>
          <path class="cls-6" d="M924.65,266.51c-9.61,5.33-28.49,22.63-27.39,25.21,1.1,2.58,19.84-9.02,19.84-9.02l7.55-16.18Z"/>
          <path class="cls-6" d="M924.65,266.51c-13.48,13.43-33.75,45.82-32.09,48.37,1.66,2.55,18.19-17.47,18.19-17.47,0,0-13.6,19.63-10.48,22.73,3.12,3.1,15.57-18.71,15.57-18.71,0,0-9.95,24-6.8,25.14,3.15,1.14,12.24-22.58,12.24-22.58,0,0-3.82,21.86-.78,22.11,3.05,.24,5.97-17.74,7.29-21.3,1.32-3.57,13.19-.79,21.46-17.14l-24.6-21.14Z"/>
          <path class="cls-6" d="M950.8,268.65c4.66,7.65,2.23,17.63-5.42,22.29-7.65,4.66-17.63,2.23-22.29-5.42-4.66-7.65-2.23-17.63,5.42-22.29,7.65-4.66,17.63-2.23,22.29,5.42Z"/>
        </g>
        <g>
          <g>
            <g>
              <polygon class="cls-6" points="782.65 184.53 711.23 120.46 688.43 142.75 751.37 216.17 782.65 184.53"/>
              <path class="cls-6" d="M782.83,216.53c8.79-8.59,8.95-22.68,.36-31.46-8.59-8.79-22.68-8.95-31.46-.36-8.79,8.59-8.95,22.68-.36,31.46,8.59,8.79,22.68,8.95,31.46,.36Z"/>
              <path class="cls-6" d="M710,142c6.41-6.26,6.52-16.53,.26-22.94-6.26-6.41-16.53-6.52-22.94-.26-6.41,6.26-6.52,16.53-.26,22.94,6.26,6.41,16.53,6.52,22.94,.26Z"/>
            </g>
            <path class="cls-6" d="M705.86,144.94c-8.03,3.98-17.76,.69-21.73-7.33-3.98-8.03-.69-17.76,7.33-21.73,8.03-3.98,17.76-.69,21.73,7.33,3.98,8.03,.69,17.76-7.33,21.73Z"/>
          </g>
          <g>
            <path class="cls-6" d="M691.28,144.85c-7.98-4.08-11.14-13.85-7.06-21.82,4.08-7.98,13.85-11.14,21.82-7.06,7.98,4.08,11.14,13.85,7.06,21.82-4.08,7.98-13.85,11.14-21.82,7.06Z"/>
            <path class="cls-6" d="M709.82,106.01c-5.09-6.86-17.02-10.74-17.02-10.74,0,0-22.26-8.97-31.32-7.31-6.57,1.21,7.37,6.52,12.05,8.42-6.33,.68-18.05,.03-18.42,1.65-.93,4.08,21.31,5.3,21.31,5.3,0,0-20.68,1.11-20.36,3.67,.32,2.55,21.38,3.12,21.38,3.12,0,0-18.59,1.69-17.38,4.32,1.21,2.64,25.31-.89,23.97,2.68-4.17,11.06,2.05,18.68,2.05,18.68l13.77-2.3,9.96-27.49Z"/>
            <g>
              <path class="cls-11" d="M652.19,127.53l-31.93-70.15c-1.79-3.96-.03-8.61,3.93-10.4l40.03-18.07c3.96-1.79,8.61-.03,10.4,3.93l31.93,70.15c1.79,3.96,.03,8.61-3.93,10.4l-40.03,18.07c-3.96,1.79-8.61,.03-10.4-3.93Z"/>
              <path class="cls-14" d="M632.03,47.01l-6.5,2.93c-2.33,1.05-3.36,3.79-2.31,6.12l30.85,67.77c1.05,2.33,3.79,3.36,6.12,2.31l40.03-18.07c2.33-1.05,3.36-3.79,2.31-6.12l-30.85-67.77c-1.05-2.33-3.79-3.36-6.12-2.31l-6.5,2.93-27.04,12.21Z"/>
            </g>
            <path class="cls-6" d="M715.77,131.63s2.98-21.73,.13-28.24c-5-11.44-20.95-11.81-23.1-8.12-2.15,3.69,11.01,6.17,11.75,9.95,1.46,7.54-15.75,16.45-9.83,29.12l21.05-2.71Z"/>
          </g>
        </g>
      </g>
      <g>
        <g>
          <g>
            <polygon class="cls-11" points="245.24 312.61 138.03 312.61 193.23 488.65 265.95 488.65 298.67 488.65 245.24 312.61"/>
            <polygon class="cls-11" points="181.5 513.52 158.11 727.02 165.53 727.02 199.03 515.04 181.5 513.52"/>
            <polygon class="cls-11" points="282.94 513.52 306.33 727.02 298.92 727.02 265.41 515.04 282.94 513.52"/>
            <polygon class="cls-11" points="365.55 513.52 388.94 727.02 381.53 727.02 348.02 515.04 365.55 513.52"/>
            <path class="cls-11" d="M369.06,488.65h-70.38s-32.72,0-32.72,0l6.6,27.83c.64,2.7,3.05,4.61,3.54,4.61h102.82s-9.86-32.44-9.86-32.44Z"/>
            <path class="cls-8" d="M286.78,488.65h-93.56s-55.19-176.04-55.19-176.04l-8.75-.51,37.83,204.38c.64,2.7,3.05,4.61,5.83,4.61h121.39s-7.54-32.44-7.54-32.44Z"/>
          </g>
          <g>
            <g>
              <path class="cls-9" d="M212.94,463.45s21.72,23.98,80.37,24.79c24.97,.35,104.64-8.99,155.22-7.54l1.91-66.67-149.37-5.15-67.92-1.07-20.21,55.65Z"/>
              <circle class="cls-9" cx="449.49" cy="447.37" r="33.35" transform="translate(-87.67 110.26) rotate(-12.75)"/>
            </g>
            <path class="cls-11" d="M375.02,637.39s-1.45,20.89-1.61,25.12c-.16,4.22,28.36,28.49,24.39,35.87l-48.28-25.93-12.65-21.56-12.3,8.44-5.79-3.11s18.15-26.93,28.99-39.29l27.25,20.45Z"/>
            <path class="cls-11" d="M466.89,673.31s14.13,15.46,17.08,18.49c2.95,3.03,40.19-.88,42.8,7.08l-52.07,17.07-24.34-5.7-2.37,14.73-6.24,2.05s-6.98-31.72-8.46-48.09l33.61-5.63Z"/>
            <g>
              <polygon class="cls-9" points="419.44 432.93 325.31 628.79 386.22 658.06 479.55 461.81 419.44 432.93"/>
              <circle class="cls-9" cx="449.49" cy="447.37" r="33.35" transform="translate(-8.05 886.5) rotate(-88.69)"/>
            </g>
            <g>
              <path class="cls-1" d="M207.61,420.67s-5.91,28.39,4.99,50.86c17.28,35.62,157.68,10.87,207.14,21.55l14.09-65.19-132.75-19.01-40.03-5.73-53.44,17.52Z"/>
              <circle class="cls-1" cx="426.78" cy="460.49" r="33.35" transform="translate(-180.73 301.96) rotate(-32.55)"/>
            </g>
            <g>
              <polygon class="cls-1" points="393.74 465.01 423.18 680.32 490.13 671.16 459.82 455.97 393.74 465.01"/>
              <path class="cls-1" d="M459.82,455.97c2.5,18.25-10.27,35.06-28.52,37.56-18.25,2.5-35.06-10.27-37.56-28.52-2.5-18.25,10.27-35.06,28.52-37.56,18.25-2.5,35.06,10.27,37.56,28.52Z"/>
            </g>
            <g>
              <g>
                <path class="cls-15" d="M282.89,312.65c-10.76,5.59-24.02,1.4-29.61-9.37-5.59-10.76-1.4-24.02,9.37-29.61,10.76-5.59,24.02-1.4,29.61,9.37,5.59,10.76,1.4,24.02-9.37,29.61Z"/>
                <path class="cls-6" d="M328.6,400.67c-10.76,5.59-24.02,1.4-29.61-9.37-5.59-10.76-1.4-24.02,9.37-29.61,10.76-5.59,24.02-1.4,29.61,9.37,5.59,10.76,1.4,24.02-9.37,29.61Z"/>
                <rect class="cls-15" x="246.03" y="315.21" width="99.18" height="43.92" transform="translate(458.61 -80.58) rotate(62.56)"/>
              </g>
              <g>
                <path class="cls-6" d="M328.6,400.67c-10.76,5.59-24.02,1.4-29.61-9.37-5.59-10.76-1.4-24.02,9.37-29.61,10.76-5.59,24.02-1.4,29.61,9.37,5.59,10.76,1.4,24.02-9.37,29.61Z"/>
                <rect class="cls-15" x="246.03" y="315.21" width="99.18" height="43.92" transform="translate(458.61 -80.58) rotate(62.56)"/>
                <g>
                  <polygon class="cls-15" points="270.05 364.34 251.41 298.3 292.26 283.04 321.63 339.6 270.05 364.34"/>
                  <path class="cls-15" d="M282.89,312.65c-10.76,5.59-24.02,1.4-29.61-9.37-5.59-10.76-1.4-24.02,9.37-29.61,10.76-5.59,24.02-1.4,29.61,9.37,5.59,10.76,1.4,24.02-9.37,29.61Z"/>
                </g>
              </g>
              <g>
                <polygon class="cls-6" points="298.02 373.2 338.79 285.1 368.62 296.74 338.94 389.17 298.02 373.2"/>
                <path class="cls-6" d="M310.49,401.64c-11.3-4.41-16.88-17.14-12.47-28.44,4.41-11.3,17.14-16.88,28.44-12.47s16.88,17.14,12.47,28.44c-4.41,11.3-17.14,16.88-28.44,12.47Z"/>
                <path class="cls-6" d="M347.89,305.83c-8.24-3.21-12.31-12.5-9.09-20.73,3.21-8.24,12.5-12.31,20.73-9.09,8.24,3.21,12.31,12.5,9.09,20.73-3.21,8.24-12.5,12.31-20.73,9.09Z"/>
              </g>
            </g>
            <path class="cls-15" d="M273,271.2h-64.78s-13.15,100.21-13.15,100.21c-1,7.59,4.91,14.32,12.57,14.32h93.44c6.93,0,11.73-6.9,9.33-13.4l-37.41-101.14Z"/>
            <rect class="cls-15" x="207.64" y="385.74" width="93.44" height="23.14"/>
            <g>
              <path class="cls-6" d="M188.04,412.61c-11.96-2.02-20.02-13.35-18-25.31,2.02-11.96,13.35-20.02,25.31-18,11.96,2.02,20.02,13.35,18,25.31-2.02,11.96-13.35,20.02-25.31,18Z"/>
              <g>
                <path class="cls-6" d="M188.04,412.61c-11.96-2.02-20.02-13.35-18-25.31,2.02-11.96,13.35-20.02,25.31-18,11.96,2.02,20.02,13.35,18,25.31-2.02,11.96-13.35,20.02-25.31,18Z"/>
                <polygon class="cls-6" points="170.04 387.3 176.18 350.97 219.26 359.67 213.35 394.62 170.04 387.3"/>
                <g>
                  <polygon class="cls-2" points="163.18 348.34 188.08 284.4 229.87 296.82 219.26 359.67 163.18 348.34"/>
                  <path class="cls-2" d="M204.56,314.82c-11.96-2.02-20.02-13.35-18-25.31,2.02-11.96,13.35-20.02,25.31-18,11.96,2.02,20.02,13.35,18,25.31s-13.35,20.02-25.31,18Z"/>
                </g>
              </g>
              <g>
                <polygon class="cls-6" points="205.22 373.66 277.89 438.04 258.17 463.26 178.17 408.26 205.22 373.66"/>
                <path class="cls-6" d="M174.4,377.43c7.47-9.55,21.27-11.24,30.83-3.77,9.55,7.47,11.24,21.27,3.77,30.83-7.47,9.55-21.27,11.24-30.83,3.77-9.55-7.47-11.24-21.27-3.77-30.83Z"/>
                <path class="cls-6" d="M255.42,440.79c5.45-6.96,15.51-8.2,22.47-2.75,6.96,5.45,8.2,15.51,2.75,22.47-5.45,6.96-15.51,8.2-22.47,2.75-6.96-5.45-8.2-15.51-2.75-22.47Z"/>
              </g>
            </g>
            <g>
              <path class="cls-6" d="M297.75,454.45c8.4,16.9,12.72,37.57,9.87,37.91-4.18,.5-9.88-21.06-9.88-21.06,0,0,4.43,21.57,.68,23.1-4.21,1.71-7.87-20.82-7.87-20.82,0,0,1.83,22.52-2.12,22.51-3.4,0-3.75-21.26-3.75-21.26,0,0-3.74,18.3-6.64,17.83-2.89-.47,.05-14.93-.99-18.5-1.04-3.57-10.35-1.92-18.12-10.33l15.4-27.89c10.95,2.91,18.72,9.04,23.43,18.52Z"/>
              <path class="cls-6" d="M252.24,448.02c-1.45,8.72,4.44,16.97,13.16,18.42,8.72,1.45,16.97-4.44,18.42-13.16,1.45-8.72-4.44-16.97-13.16-18.42-8.72-1.45-16.97,4.44-18.42,13.16Z"/>
            </g>
            <g>
              <path class="cls-11" d="M227.25,196.05c-23.51,4.21-24.52,20.29-19.76,34.71,4.76,14.42-4.97,18.71-6.06,25.63-1.08,6.92,8.65,9.08,8.65,9.08,0,0-5.14-3.62-2.6-6.27,4.97-5.19,11.43,4.31,22.38,4.11,10.95-.2-.27-52.45-.27-52.45l-2.35-14.82Z"/>
              <path class="cls-11" d="M247.99,197.88c13.89-1.02,23.08-7.27,26.72,.15,5.01,10.19,2.63,22.58,2.2,28.89-1.04,15.15,8.28,16.59,11.04,23.03,2.76,6.44-6.13,10.94-6.13,10.94,0,0,4.08-4.78,.96-6.72-6.11-3.8-13.6,7.83-24.17,10.7-21.11,5.74-9.23-52.05-9.23-52.05l-1.39-14.94Z"/>
              <path class="cls-11" d="M230.94,185.75c0,10.31-8.36,18.67-18.67,18.67s-18.67-8.36-18.67-18.67c0-10.31,8.36-18.67,18.67-18.67s18.67,8.36,18.67,18.67Z"/>
              <g>
                <path class="cls-6" d="M262.77,194.37l-19.69,4.91c-12.11,3.02-19.72,15.01-17.29,27.25l5.75,28.98,17.28,14.88,7.28-11.33c8.41-1.01,19.91-11.27,17.04-33.07-1.22-9.27-4.4-22.43-8.26-30.64-.37-.79-1.27-1.19-2.12-.98Z"/>
                <path class="cls-11" d="M256.11,259.05c-6.01,.86-16.79-2.59-16.79-2.59,0,0,5.42,7.12,19.3,8.41l-2.51-5.82Z"/>
                <path class="cls-3" d="M273.44,229.06c.34,4.71-.01,8.83-.87,12.38-1.82-1.35-3-3.49-3-5.93,0-2.8,1.58-5.2,3.87-6.45Z"/>
                <path class="cls-3" d="M235.71,234.85c0,4.08,3.31,7.39,7.39,7.39,4.08,0,7.39-3.31,7.39-7.39,0-4.08-3.31-7.39-7.39-7.39s-7.39,3.31-7.39,7.39Z"/>
                <path class="cls-11" d="M262.65,234.82c-.37,0-.7-.26-.78-.63-.09-.43,.18-.86,.62-.95,.66-.14,1.24-.69,1.41-1.34,.17-.65-.05-1.42-.55-1.87-.22-.2-.51-.37-.81-.54-.28-.16-.56-.32-.82-.52-1.09-.82-1.75-2.17-1.73-3.54,0-.44,.4-.85,.81-.79,.44,0,.79,.37,.79,.81-.01,.86,.4,1.71,1.09,2.23,.21,.16,.43,.28,.65,.41,.36,.21,.74,.43,1.09,.74,.94,.85,1.35,2.25,1.02,3.47-.33,1.22-1.39,2.22-2.62,2.49-.06,.01-.11,.02-.17,.02Z"/>
                <path class="cls-11" d="M263.94,222.76c.29,1.71,1.47,2.93,2.64,2.73,1.17-.2,1.88-1.74,1.59-3.45-.29-1.71-1.47-2.93-2.64-2.73-1.17,.2-1.88,1.74-1.59,3.45Z"/>
                <path class="cls-11" d="M251.63,224.17c.29,1.71,1.47,2.93,2.64,2.73,1.17-.2,1.88-1.74,1.59-3.45-.29-1.71-1.47-2.93-2.64-2.73-1.17,.2-1.88,1.74-1.59,3.45Z"/>
                <path class="cls-11" d="M261.09,213.62c-.24,0-.48-.11-.64-.31-.27-.35-.2-.85,.15-1.12,1.81-1.39,4.19-1.71,6.22-.83,.41,.17,.59,.65,.42,1.05-.17,.41-.65,.59-1.05,.42-1.5-.64-3.27-.4-4.62,.64-.15,.11-.32,.17-.49,.17Z"/>
                <path class="cls-11" d="M248.98,215.66c-.23,0-.45-.1-.61-.28-.29-.34-.25-.84,.09-1.13,1.91-1.62,4.8-1.95,7.02-.81,.39,.2,.55,.68,.35,1.08-.2,.39-.68,.55-1.08,.35-1.67-.85-3.83-.6-5.26,.61-.15,.13-.33,.19-.52,.19Z"/>
                <path class="cls-11" d="M262.1,240.86c-3.62,0-7.26-1.98-9.06-5.13-.22-.38-.08-.87,.3-1.09,.38-.22,.87-.09,1.09,.3,1.83,3.21,5.91,4.98,9.5,4.11,.43-.1,.86,.16,.96,.59,.1,.43-.16,.86-.59,.96-.72,.17-1.46,.26-2.21,.26Z"/>
                <polygon class="cls-2" points="256.11 259.05 248.82 269.67 231.54 255.5 227.25 271.2 243.03 283.37 249.44 272.56 258.32 281.6 262.21 271.2 256.11 259.05"/>
              </g>
              <circle class="cls-6" cx="223.33" cy="231.24" r="6.27"/>
              <path class="cls-11" d="M225.34,225.3s5.83,9.92,6.77,14.62c0,0,1.72-7.78-1.25-16.11,0,0,10.03-7.7,8.93-18.2-1.1-10.5-15.83-7.03-15.83-7.03,0,0-5.64,20.77,1.38,26.72Z"/>
              <path class="cls-7" d="M220.1,168.83c-3.22,3.35-7.22,5.95-11.63,7.42-4.13,1.38-8.56,1.74-12.87,1.18-.26,.52-.51,1.06-.72,1.61,5.38,1.39,11.15,1.26,16.42-.5,4.58-1.53,8.73-4.27,12.02-7.81-1-.74-2.08-1.36-3.22-1.89Z"/>
              <path class="cls-11" d="M271.57,193.31c-10.31-11.59-39.86-20.21-50.51,8.92l7.56,10.54s7.78-1.66,18.41-3.36c1.42-3.1,2.28-6.45,2.47-9.85,.47,3.21,.5,6.32,.1,9.45,5.96-.92,12.61-1.81,19.23-2.42,6.71-.62,9.07-6.15,2.73-13.27Z"/>
            </g>
            <g>
              <path class="cls-11" d="M347.82,260.84s-17.05-3.36-18.7-5.79c-3.43-5.03,12.68-6.78,12.68-6.78l6.02,12.56Z"/>
              <rect class="cls-11" x="305.56" y="254.22" width="68.69" height="7.89" rx=".67" ry=".67" transform="translate(12.73 532.28) rotate(-77.17)"/>
              <path class="cls-6" d="M346.65,296.01l22.63-8.37s1.6-8.87-1.29-22.86c-2.89-14-16.76-24.06-16.76-24.06-9.84-6.65-11.22-6.11-11.93-4.33-.69,1.74,.72,5.47,7.07,10.5,0,0-8.84-4.83-9.7-1.7-.86,3.13,7.93,11.57,7.93,11.57,0,0-9.7-5.31-10.36-1.71-.56,3.09,5.83,11.66,5.83,11.66,0,0-8.69-6.15-9.96-3.54-1.73,3.54,8.78,16.24,8.78,16.24l7.76,16.61Z"/>
              <path class="cls-6" d="M364.82,297.48c6.15-6.35,5.99-16.48-.36-22.64-6.35-6.15-16.48-5.99-22.64,.36-6.15,6.35-5.99,16.48,.36,22.64,6.35,6.15,16.48,5.99,22.64-.36Z"/>
              <path class="cls-6" d="M334.37,271.17s-3.15,10.15,5.21,15.32c8.36,5.17,11.49-2.68,11.49-2.68l-16.7-12.63Z"/>
            </g>
          </g>
        </g>
        <g>
          <polygon class="cls-11" points="690.06 382.17 723 727.02 714.69 727.02 672.76 385.1 690.06 382.17"/>
          <polygon class="cls-11" points="296.92 382.17 263.98 727.02 272.29 727.02 314.22 385.1 296.92 382.17"/>
          <rect class="cls-8" x="272.51" y="375.1" width="441.95" height="12.1" transform="translate(986.98 762.3) rotate(180)"/>
          <g>
            <path class="cls-2" d="M650.99,354.1h-159.46c-1.65,0-2.92-1.47-2.67-3.11l15.46-101.72c.34-2.25,2.45-4.08,4.7-4.08h157.93c2.25,0,3.8,1.83,3.46,4.08l-15.41,101.38c-.3,1.98-2,3.44-4,3.44Z"/>
            <polygon class="cls-11" points="557.65 335.65 554.24 354.2 566.29 354.2 557.65 335.65"/>
            <g>
              <path class="cls-2" d="M602.72,375.1h-34.19s-10.88-39.45-10.88-39.45h39.51l9.46,34.32c.71,2.58-1.23,5.13-3.9,5.13Z"/>
              <rect class="cls-2" x="542.43" y="371.78" width="33.17" height="3.32"/>
            </g>
          </g>
        </g>
      </g>
      <line class="cls-13" x1="36.5" y1="731.52" x2="1209.5" y2="731.52"/>
      <line class="cls-13" x1="1239.5" y1="731.52" x2="1283.5" y2="731.52"/>
      <line class="cls-13" x1="20.5" y1="731.52" x2="5.5" y2="731.52"/>
    </g>
  </g>
</svg>