<?xml version="1.0" encoding="utf-8"?>
<!-- Generator: Adobe Illustrator 26.5.0, SVG Export Plug-In . SVG Version: 6.00 Build 0)  -->
<svg version="1.1" id="Layer_1" xmlns="http://www.w3.org/2000/svg" xmlns:xlink="http://www.w3.org/1999/xlink" x="0px" y="0px"
	 viewBox="0 0 24 24" style="enable-background:new 0 0 24 24;" xml:space="preserve">
<path d="M5.9,0C2.6,0,0,2.6,0,5.9v12.3C0,21.4,2.6,24,5.9,24h12.3c3.2,0,5.9-2.6,5.9-5.9V5.9C24,2.6,21.4,0,18.1,0H5.9z M19,4
	c0.6,0,1,0.4,1,1s-0.4,1-1,1s-1-0.4-1-1S18.4,4,19,4z M12,6c3.3,0,6,2.7,6,6s-2.7,6-6,6s-6-2.7-6-6S8.7,6,12,6z M12,8
	c-2.2,0-4,1.8-4,4s1.8,4,4,4s4-1.8,4-4S14.2,8,12,8z"/>
</svg>
