<?xml version="1.0" encoding="UTF-8"?><svg id="uuid-3d5d3554-b5da-455d-b7f6-0c569f5abbf4" xmlns="http://www.w3.org/2000/svg" width="1506.8441" height="866.6443" viewBox="0 0 1506.8441 866.6443"><defs><style>.uuid-ff499950-7945-460c-93ed-52d3b5cfeaae{fill:#b46226;}.uuid-91cee8af-3dad-4ea3-a894-72f5de225eec{fill:#fff;}.uuid-e1bd5b14-f944-4902-9a7e-aed80f979db2{fill:#ff919a;}.uuid-bf294892-d00e-4174-8d72-df9c9bd3a562{fill:#70d4ff;}.uuid-7dda0e2f-d6e8-47ed-a1b1-f7c2cfe29fd3{fill:#bcebff;}.uuid-2768b509-f3c7-4aef-9df5-7aed8ec91716{fill:#ffac9c;}.uuid-e8b7292f-3908-4ecf-9355-1fad307e578b{fill:#2743ab;}.uuid-89c47746-18bd-4d0f-bdb8-9d5316f86a5c{fill:#27a0cc;fill-rule:evenodd;}.uuid-7d40be9c-a36f-41d9-a923-c2e202bbf2a0{fill:#ffd600;}.uuid-c7c1635d-2b12-4d47-b94d-3448a0cddcea{fill:#823c26;}.uuid-6de2ad18-9772-4c14-932d-06d2a399709b{fill:#0c3240;}.uuid-d0d5314e-e327-4048-a51e-9f24223b40e2{fill:#000e1b;}.uuid-77dd642f-d842-4bd2-9d40-7db6888c6fcd,.uuid-e63e3d2d-7b02-4ae5-86d4-2654479e78dc{fill:none;}.uuid-e63e3d2d-7b02-4ae5-86d4-2654479e78dc{stroke:#0c3240;stroke-linecap:round;stroke-miterlimit:10;stroke-width:11px;}.uuid-08801fa2-d519-4b26-b289-60cb72465900{fill:#1a7dfb;}.uuid-df7c1ee4-384e-483b-8019-072fb4d998b3{fill:#e5f3ff;}</style></defs><g><path class="uuid-89c47746-18bd-4d0f-bdb8-9d5316f86a5c" d="M1026.1247,724.5162c62.6021-101.0575,240.9523,70.6388,389.5595,56.5382,148.6074-14.1006,18.6268-159.4289,54.4124-243.5438,58.401-137.2721,75.0716-509.777-166.4949-515.6282-241.5668-5.8514-306.4373,209.0747-481.9768,203.1021-175.5392-5.9726-381.9487-183.0398-598.6331-108.7718C6.3077,190.4808,57.1729,524.0495,367.93,604.6887c257.1545,66.73,203.6266,171.6842,322.2725,231.9692,118.6459,60.2847,246.0199,32.9856,335.9222-112.1417Z"/><path class="uuid-89c47746-18bd-4d0f-bdb8-9d5316f86a5c" d="M151.3315,111.0358c5.9526,12.2832,110.9052-21.7856,177.5221-24.0484,66.6167-2.2628-12.8751-106.2229-84.7578-83.8293-71.8827,22.3933-101.0981,90.6814-92.7643,107.8777Z"/><path class="uuid-89c47746-18bd-4d0f-bdb8-9d5316f86a5c" d="M1056.1852,61.4841c-13.5138-54.5832,28.6385-68.006,63.2552-55.5249,34.6164,12.4808-12.6773,31.5552-30.6135,48.5102-17.9362,16.9551-31.2102,12.7965-32.6417,7.0147Z"/><path class="uuid-89c47746-18bd-4d0f-bdb8-9d5316f86a5c" d="M90.4691,500.2722C60.1823,479.9833-1.8417,485.2011,.042,519.7392c1.8839,34.5381,86.6595,47.0767,108.0102,36.0976,21.351-10.979-2.1374-45.2178-17.583-55.5646Z"/></g><g><g><g><rect class="uuid-2768b509-f3c7-4aef-9df5-7aed8ec91716" x="948.741" y="185.4382" width="100.4934" height="44.5004" transform="translate(1809.4533 -412.1958) rotate(130.845)"/><g><polygon class="uuid-6de2ad18-9772-4c14-932d-06d2a399709b" points="1017.8166 240.4661 1058.222 187.2513 1015.018 155.1256 972.7838 203.9767 1017.8166 240.4661"/><path class="uuid-6de2ad18-9772-4c14-932d-06d2a399709b" d="M1017.2981,186.5095c9.2957,8.0368,23.3468,7.016,31.3835-2.2797,8.0371-9.2961,7.0164-23.3471-2.2797-31.3839-9.2961-8.0371-23.3471-7.0164-31.3839,2.2797-8.0367,9.2961-7.016,23.3471,2.2801,31.3839Z"/></g><path class="uuid-6de2ad18-9772-4c14-932d-06d2a399709b" d="M951.5735,262.5308c9.2961,8.0371,23.3471,7.0164,31.3839-2.2797,8.0368-9.2961,7.016-23.3471-2.2797-31.3839-9.2961-8.0368-23.3471-7.016-31.3839,2.2801-8.0368,9.2957-7.016,23.3468,2.2797,31.3835Z"/></g><g><path class="uuid-91cee8af-3dad-4ea3-a894-72f5de225eec" d="M1042.6914,748.1152c-9.9558-1.2512-17.6498-11.2066-17.6498-11.2066h-9.4254c3.236-16.29,2.6581-21.3215,2.6581-21.3215l41.3322,13.4775-.5368,8.6557h0c-3.2448-.1629-6.2599,1.7578-7.3849,4.8058-1.1348,3.0731-3.6069,6.2661-8.9934,5.5891Z"/><path class="uuid-bf294892-d00e-4174-8d72-df9c9bd3a562" d="M980.0604,760.0534c11.4676-6.319,31.5162-3.4729,35.1829-21.2781,.134-.6502,.2504-1.2495,.3729-1.8668h9.4254s7.694,9.9554,17.6498,11.2066c5.3865,.677,7.8586-2.5159,8.9934-5.5891,1.1249-3.048,4.14-4.9687,7.3849-4.8058h0l-2.1372,34.4777h-89.6536s1.314-5.8256,12.7815-12.1446Z"/><g><path class="uuid-7dda0e2f-d6e8-47ed-a1b1-f7c2cfe29fd3" d="M1041.5499,757.565c4.7851-3.7345,10.6613-5.8999,16.6783-6.2684l-.1412,2.2791c-5.4699,.3886-10.7841,2.3921-15.1349,5.7876-4.2279,3.2971-7.3937,7.8067-9.1383,12.8348h-2.3972c1.826-5.7414,5.3522-10.9032,10.1333-14.633Z"/><path class="uuid-7dda0e2f-d6e8-47ed-a1b1-f7c2cfe29fd3" d="M1025.0423,736.9089c.0004,.0007,.3339,.4262,.9254,1.0941-2.2519,11.8785-8.1589,19.614-18.095,23.5636-2.1766,.8657-4.4421,1.2793-6.6851,1.2793-4.9694,0-9.8034-2.0636-13.3421-5.7357,.8392-.2311,1.6876-.4551,2.5468-.6699,4.4964,3.9911,10.9199,5.2887,16.6392,3.0073,9.3395-3.7125,14.8458-11.0919,16.8449-22.5391h1.164l.002,.0003Z"/></g><polygon class="uuid-91cee8af-3dad-4ea3-a894-72f5de225eec" points="1056.9325 772.198 1056.358 779.1017 966.699 779.1017 967.2789 772.198 1056.9325 772.198"/></g><path class="uuid-91cee8af-3dad-4ea3-a894-72f5de225eec" d="M1217.1283,740.7496l-8.483-16.7855-36.5705,8.3496,2.4647,10.2771s7.6971,4.645,24.1161,5.5246c16.419,.8792,18.4727-7.3659,18.4727-7.3659Z"/><path class="uuid-bf294892-d00e-4174-8d72-df9c9bd3a562" d="M1210.772,740.7971s-6.6197-4.6725-15.0742-4.3229c-8.4542,.3495-12.8111,6.1849-12.8111,6.1849h-8.3473s8.5614,29.5097,8.5614,29.5097h48.9102s-14.8828-31.3717-14.8828-31.3717h-6.3563Z"/><polygon class="uuid-91cee8af-3dad-4ea3-a894-72f5de225eec" points="1232.0111 772.1688 1235.4819 779.1017 1184.8631 779.1017 1183.1009 772.1688 1232.0111 772.1688"/><path class="uuid-7dda0e2f-d6e8-47ed-a1b1-f7c2cfe29fd3" d="M1230.6086,771.8366l-.3027,.3322h-2.895c-6.2433-4.9083-14.615-7.5739-22.9111-7.1107-7.0021,.3784-13.7921,2.971-19.0873,7.1107h-2.3116s-.242-.8331-.242-.8331c5.8093-4.9786,13.5349-8.1219,21.516-8.5519,9.6341-.5297,19.428,2.8617,26.2336,9.0528Z"/><path class="uuid-7dda0e2f-d6e8-47ed-a1b1-f7c2cfe29fd3" d="M1182.8868,742.6591s.1429-.1883,.4126-.4897c1.3645,4.2096,6.8331,18.2664,19.0998,18.264,.1422,0,.2867-.002,.4293-.0064,3.3382-.0892,5.7105-1.1796,7.2525-3.3314,3.3809-4.719,1.7347-13.1663,.959-16.2985h2.349c.8915,3.7807,2.3201,12.3512-1.4517,17.6203-1.9587,2.7372-5.003,4.1794-9.0463,4.2883-.1669,.0044-.3339,.0068-.4988,.0068-13.9221,0-19.9248-15.6867-21.3256-20.0534h1.8203Z"/><path class="uuid-d0d5314e-e327-4048-a51e-9f24223b40e2" d="M1084.5011,306.8686s11.0481,15.1872,6.7944,74.4647c-1.8114,25.24-13.6384,106.9878-16.5493,158.1791l-59.0713-3.723,10.9046-213.3278,57.9216-15.593Z"/><polygon class="uuid-d0d5314e-e327-4048-a51e-9f24223b40e2" points="1074.7462 539.5124 1062.1001 731.1868 1011.0927 731.1868 1015.675 535.7894 1074.7462 539.5124"/><path class="uuid-d0d5314e-e327-4048-a51e-9f24223b40e2" d="M1015.675,535.7894c-1.0282,16.3124,11.362,30.3692,27.6741,31.3975,16.3121,1.0279,30.3692-11.3624,31.3971-27.6745,1.0282-16.3121-11.362-30.3692-27.6741-31.3971-16.3121-1.0279-30.3692,11.362-31.3971,27.6741Z"/><path class="uuid-d0d5314e-e327-4048-a51e-9f24223b40e2" d="M1015.675,535.7894c-1.0282,16.3124,11.362,30.3692,27.6741,31.3975,16.3121,1.0279,30.3692-11.3624,31.3971-27.6745,1.0282-16.3121-11.362-30.3692-27.6741-31.3971-16.3121-1.0279-30.3692,11.362-31.3971,27.6741Z"/><polygon class="uuid-d0d5314e-e327-4048-a51e-9f24223b40e2" points="1182.5729 534.2855 1219.3103 722.8307 1169.9953 735.8606 1124.5105 545.7761 1182.5729 534.2855"/><path class="uuid-d0d5314e-e327-4048-a51e-9f24223b40e2" d="M1124.5105,545.7761c3.1729,16.0335,18.7428,26.4589,34.7767,23.286,16.0335-3.1732,26.4589-18.7432,23.2857-34.7767-3.1729-16.0335-18.7432-26.4589-34.7767-23.286-16.0335,3.1732-26.4589,18.7432-23.2857,34.7767Z"/><g><path class="uuid-d0d5314e-e327-4048-a51e-9f24223b40e2" d="M1132.9324,321.6418s12.3818,12.8508,23.4703,67.1718c5.0614,24.7938,15.9076,95.2355,26.1701,145.4719l-58.0624,11.4906-53.9546-225.0872,62.3765,.9529Z"/><path class="uuid-d0d5314e-e327-4048-a51e-9f24223b40e2" d="M1124.5105,545.7761c3.1729,16.0335,18.7428,26.4589,34.7767,23.286,16.0335-3.1732,26.4589-18.7432,23.2857-34.7767-3.1729-16.0335-18.7432-26.4589-34.7767-23.286-16.0335,3.1732-26.4589,18.7432-23.2857,34.7767Z"/></g><path class="uuid-77dd642f-d842-4bd2-9d40-7db6888c6fcd" d="M1140.111,238.8745s.0458,.0455,.1137,.1368l-.1927,.3784c.0475-.3095,.0791-.5151,.0791-.5151Z"/><path class="uuid-6de2ad18-9772-4c14-932d-06d2a399709b" d="M1132.9324,321.6418l11.7984-117.3647-8.2316-56.8523h-104.6148s-25.9686,51.061-5.7316,116.235l.4265,58.8018,106.3529-.8199Z"/><polygon class="uuid-2768b509-f3c7-4aef-9df5-7aed8ec91716" points="1099.2186 99.4288 1097.4275 145.8163 1058.7161 145.8163 1061.6094 127.3551 1099.2186 99.4288"/><path class="uuid-d0d5314e-e327-4048-a51e-9f24223b40e2" d="M1063.8267,131.2535c-1.0897,.1028-2.0028,.076-2.8264-.0105l-1.164,7.4253c18.8436-1.2128,24.8596-20.48,24.8596-20.48l-.0065,.0003c-4.1699,4.6698-15.9083,12.5996-20.8627,13.0649Z"/><path class="uuid-2768b509-f3c7-4aef-9df5-7aed8ec91716" d="M1090.9887,105.365s-2.4291,8.5095-5.3318,12.8548c-2.7993,4.1899-20.0415,18.1738-29.3716,12.0421-7.145-4.6956-8.5617-16.6379-8.9214-24.919-.4174-9.6022-.5609-20.575,.7971-29.2728l32.2149-6.3858,11.8823,26.2808-1.2695,9.3999Z"/><path class="uuid-d0d5314e-e327-4048-a51e-9f24223b40e2" d="M1058.5644,95.9264c-.0238,1.9373-1.1192,3.4943-2.4467,3.478s-2.3843-1.6-2.3602-3.5374c.0238-1.937,1.1192-3.4939,2.4467-3.478,1.3272,.0166,2.3839,1.6,2.3602,3.5374Z"/><path class="uuid-d0d5314e-e327-4048-a51e-9f24223b40e2" d="M1072.4237,95.3427c-.0241,1.937-1.1195,3.4943-2.4467,3.4776-1.3275-.0159-2.3843-1.5997-2.3605-3.537,.0241-1.937,1.1192-3.4943,2.4467-3.478s2.3843,1.6,2.3605,3.5374Z"/><path class="uuid-d0d5314e-e327-4048-a51e-9f24223b40e2" d="M1052.3384,85.3727c-.2647,0-.5229-.1323-.6743-.3726-.2358-.3729-.1245-.8647,.2494-1.0991,2.0561-1.3011,4.7156-1.3621,6.9274-.1595,.3872,.2104,.5297,.6943,.3207,1.0815-.2118,.3875-.6987,.5287-1.0818,.3207-1.709-.9281-3.7451-.8823-5.3162,.1055-.1313,.0835-.2783,.1235-.4252,.1235Z"/><path class="uuid-d0d5314e-e327-4048-a51e-9f24223b40e2" d="M1065.2971,85.6676c-.2447,0-.4873-.1133-.6454-.3281-.2582-.3563-.1802-.8545,.1758-1.1141,2.2322-1.6265,5.4391-1.7636,7.8003-.3224,.376,.2291,.4941,.7198,.2647,1.0961-.2314,.378-.7211,.4917-1.0971,.2657-1.8223-1.1127-4.3016-1.0082-6.0285,.2494-.1425,.1035-.3051,.1534-.4697,.1534Z"/><path class="uuid-d0d5314e-e327-4048-a51e-9f24223b40e2" d="M1060.5391,115.7019c-.2647,0-.5297-.0143-.7968-.0421-.4384-.0468-.7544-.4398-.7076-.8782,.0469-.4361,.4228-.7574,.8769-.7086,3.1888,.3516,6.4445-1.9319,7.5352-5.2877,.1357-.4184,.5854-.6488,1.0058-.5117,.4184,.1368,.6475,.5864,.5121,1.0058-1.2308,3.782-4.7604,6.4225-8.4257,6.4225Z"/><path class="uuid-d0d5314e-e327-4048-a51e-9f24223b40e2" d="M1060.1342,109.3951c-.5297,0-1.3021-.0957-1.9343-.5599-.5317-.3913-.8633-.9746-.961-1.6879-.2694-1.976,2.4212-12.0217,2.9618-14.0157,.1181-.4238,.5609-.6773,.9794-.5606,.4249,.1157,.6763,.5542,.5609,.979-1.222,4.4957-3.0955,12.1042-2.9221,13.3815,.0512,.375,.209,.5307,.3227,.6156,.4048,.2983,1.1103,.2627,1.3442,.2301,.4228-.0689,.8433,.2236,.9145,.659,.0713,.4327-.2202,.8409-.6522,.9145-.0601,.0098-.2912,.0445-.6139,.0445Z"/><path class="uuid-d0d5314e-e327-4048-a51e-9f24223b40e2" d="M1099.202,70.683s21.4648-6.5294,1.4164,29.3573l-2.0904,17.2762-7.0913-9.8954-4.8819-8.9476-3.1515,8.2081h-1.8158s.4941-19.5804,.4941-19.5804c0,0-7.0876-2.3734-6.696-11.7265,0,0-31.6716,9.1773-36.5199-1.9149l5.6288-7.9367,3.8516,2.0741s-5.1849-5.1852-5.6294-13.333l7.4073,6.5182s-5.3332-6.6665,0-15.2588l9.3707-.4442s2.2743,4.8886,10.1713,8.444c9.4495,4.2547,34.4675,.5426,29.5361,17.1595Z"/><circle class="uuid-2768b509-f3c7-4aef-9df5-7aed8ec91716" cx="1093.7588" cy="101.2973" r="7.7358"/><path class="uuid-91cee8af-3dad-4ea3-a894-72f5de225eec" d="M1074.8612,163.0317l-8.3459-15.5038-10.0433,14.6578s-3.2394-11.6501-3.2235-14.7609l7.1368-12.2586,6.3621,8.8509,31.2984-14.1498,2.5726,17.5524-25.7571,15.612Z"/><g><path class="uuid-2768b509-f3c7-4aef-9df5-7aed8ec91716" d="M1190.1166,227.6673c-11.0678,5.3393-15.7118,18.6397-10.3725,29.7078,5.3393,11.0678,18.64,15.7115,29.7079,10.3722,11.0678-5.3393,15.7118-18.64,10.3725-29.7078-5.3393-11.0678-18.64-15.7118-29.7078-10.3722Z"/><polygon class="uuid-2768b509-f3c7-4aef-9df5-7aed8ec91716" points="1217.0615 233.6866 1181.7629 190.1897 1159.8749 233.8386 1182.5074 261.7279 1217.0615 233.6866"/><g><polygon class="uuid-6de2ad18-9772-4c14-932d-06d2a399709b" points="1203.6932 195.8992 1149.8625 151.9079 1119.1834 183.6956 1159.8749 233.8386 1203.6932 195.8992"/><path class="uuid-6de2ad18-9772-4c14-932d-06d2a399709b" d="M1150.4808,186.952c9.5421-7.7432,11-21.7556,3.2567-31.2973-7.7436-9.5418-21.7559-11-31.2977-3.2567-9.5418,7.7436-11,21.7559-3.2564,31.2977,7.7432,9.5418,21.7556,11,31.2973,3.2564Z"/></g></g><g><polygon class="uuid-2768b509-f3c7-4aef-9df5-7aed8ec91716" points="1182.9105 233.2041 1123.4894 311.59 1148.0901 332.7347 1216.6583 262.2105 1182.9105 233.2041"/><path class="uuid-2768b509-f3c7-4aef-9df5-7aed8ec91716" d="M1214.2876,230.8334c-9.3192-8.01-23.3675-6.9485-31.3771,2.3707-8.01,9.3192-6.9485,23.3671,2.3707,31.3771,9.3192,8.01,23.3671,6.9485,31.3771-2.3707,8.01-9.3192,6.9485-23.3671-2.3707-31.3771Z"/><path class="uuid-2768b509-f3c7-4aef-9df5-7aed8ec91716" d="M1146.3621,309.862c-6.7934-5.8388-17.0339-5.0651-22.8727,1.728-5.8388,6.7934-5.0651,17.0339,1.728,22.8727,6.7934,5.8388,17.0339,5.0651,22.8727-1.728,5.8388-6.7934,5.0651-17.0339-1.728-22.8727Z"/></g><g><path class="uuid-2768b509-f3c7-4aef-9df5-7aed8ec91716" d="M1123.4894,311.59c-9.6066,5.3301-28.4876,22.6304-27.3901,25.2074,1.0978,2.5767,19.8437-9.0249,19.8437-9.0249l7.5464-16.1825Z"/><path class="uuid-2768b509-f3c7-4aef-9df5-7aed8ec91716" d="M1123.4894,311.59c-13.4762,13.431-33.7474,45.8228-32.0897,48.3713,1.658,2.5482,18.1921-17.4676,18.1921-17.4676,0,0-13.5983,19.6302-10.4801,22.7285,3.1183,3.0979,15.5744-18.7086,15.5744-18.7086,0,0-9.9493,24.0007-6.8005,25.1372,3.1488,1.1372,12.2389-22.5795,12.2389-22.5795,0,0-3.8221,21.8645-.7768,22.1095,3.0456,.2443,5.9664-17.7377,7.2861-21.3042,1.3197-3.5669,13.1898-.7924,21.4563-17.1418l-24.6007-21.1447Z"/><path class="uuid-2768b509-f3c7-4aef-9df5-7aed8ec91716" d="M1149.6439,313.7285c4.6579,7.6513,2.2312,17.6301-5.4204,22.288-7.6513,4.6579-17.6301,2.2312-22.288-5.4204-4.6579-7.6513-2.2312-17.6301,5.4204-22.288,7.6513-4.6579,17.6301-2.2312,22.288,5.4204Z"/></g><g><g><g><polygon class="uuid-2768b509-f3c7-4aef-9df5-7aed8ec91716" points="981.4948 229.6097 910.0785 165.5419 887.2753 187.8275 950.2127 261.2511 981.4948 229.6097"/><path class="uuid-2768b509-f3c7-4aef-9df5-7aed8ec91716" d="M981.6774,261.6119c8.7884-8.5889,8.9503-22.6762,.3611-31.4646-8.5889-8.7884-22.6762-8.95-31.4646-.3611-8.7884,8.5892-8.9503,22.6762-.3611,31.465,8.5889,8.7884,22.6762,8.95,31.4647,.3607Z"/><path class="uuid-2768b509-f3c7-4aef-9df5-7aed8ec91716" d="M908.8405,187.084c6.4062-6.261,6.5243-16.53,.263-22.9365-6.261-6.4062-16.53-6.524-22.9365-.263-6.4062,6.261-6.5243,16.53-.263,22.9365,6.261,6.4065,16.53,6.5243,22.9365,.263Z"/></g><path class="uuid-2768b509-f3c7-4aef-9df5-7aed8ec91716" d="M904.7039,190.0183c-8.0269,3.9765-17.7577,.6929-21.7342-7.334-3.9765-8.0269-.6929-17.7577,7.334-21.7339,8.0269-3.9765,17.7577-.6929,21.7342,7.334,3.9765,8.0266,.6929,17.7574-7.334,21.7339Z"/></g><g><path class="uuid-2768b509-f3c7-4aef-9df5-7aed8ec91716" d="M890.1231,189.9274c-7.9767-4.0762-11.1387-13.8471-7.0625-21.8238s13.8471-11.1387,21.8238-7.0625c7.9767,4.0766,11.1387,13.8474,7.0625,21.8238-4.0762,7.9767-13.8471,11.1387-21.8238,7.0625Z"/><path class="uuid-2768b509-f3c7-4aef-9df5-7aed8ec91716" d="M908.663,151.086c-5.0929-6.863-17.0169-10.7407-17.0169-10.7407,0,0-22.2558-8.969-31.3153-7.3058-6.5674,1.2057,7.3693,6.5175,12.0468,8.4179-6.3326,.679-18.0523,.0282-18.4205,1.6475-.9278,4.0762,21.3093,5.2959,21.3093,5.2959,0,0-20.6798,1.1141-20.3564,3.6656,.3231,2.5516,21.3803,3.1217,21.3803,3.1217,0,0-18.5912,1.6859-17.3777,4.325,1.2142,2.6394,25.3119-.8871,23.9651,2.6825-4.1716,11.0553,2.0479,18.6784,2.0479,18.6784l13.7731-2.2957,9.9642-27.4922Z"/><g><path class="uuid-d0d5314e-e327-4048-a51e-9f24223b40e2" d="M851.0388,172.6132l-31.9265-70.1459c-1.786-3.9565-.0268-8.6116,3.9296-10.3979l40.0308-18.0716c3.9561-1.786,8.6113-.0265,10.3973,3.9296l31.9272,70.1462c1.786,3.9565,.0268,8.6113-3.9293,10.3973l-40.0315,18.072c-3.9565,1.786-8.6116,.0268-10.3976-3.9296Z"/><path class="uuid-08801fa2-d519-4b26-b289-60cb72465900" d="M830.8713,92.0864l-6.4978,2.9333c-2.3272,1.0506-3.3619,3.7885-2.3113,6.1157l30.8545,67.7711c1.051,2.3269,3.7888,3.3616,6.1157,2.3113l40.0311-18.072c2.3269-1.051,3.3619-3.7885,2.3113-6.1157l-30.8548-67.7708c-1.0506-2.3269-3.7885-3.3616-6.1154-2.3113l-6.4968,2.933-27.0365,12.2053Z"/></g><path class="uuid-2768b509-f3c7-4aef-9df5-7aed8ec91716" d="M914.6166,176.7112s2.9761-21.7328,.1306-28.2419c-5.0037-11.4445-20.9527-11.812-23.1011-8.1243-2.1484,3.688,11.0125,6.1731,11.7462,9.9514,1.465,7.5434-15.7535,16.4529-9.8289,29.1235l21.0531-2.7087Z"/></g></g></g><g><g><g><polygon class="uuid-d0d5314e-e327-4048-a51e-9f24223b40e2" points="444.084 357.6926 336.8764 357.6926 392.0706 533.7317 464.7932 533.7317 497.5169 533.7317 444.084 357.6926"/><polygon class="uuid-d0d5314e-e327-4048-a51e-9f24223b40e2" points="380.3486 558.5998 356.9556 772.1017 364.3693 772.1017 397.878 560.1222 380.3486 558.5998"/><polygon class="uuid-d0d5314e-e327-4048-a51e-9f24223b40e2" points="481.7815 558.5998 505.1745 772.1017 497.7608 772.1017 464.2521 560.1222 481.7815 558.5998"/><polygon class="uuid-d0d5314e-e327-4048-a51e-9f24223b40e2" points="564.3936 558.5998 587.7869 772.1017 580.3733 772.1017 546.8645 560.1222 564.3936 558.5998"/><path class="uuid-d0d5314e-e327-4048-a51e-9f24223b40e2" d="M567.9002,533.7317h-70.3834s-32.7236,0-32.7236,0l6.603,27.8305c.6409,2.7018,3.0538,4.6089,3.5448,4.6089h102.8153s-9.8561-32.4395-9.8561-32.4395Z"/><path class="uuid-7d40be9c-a36f-41d9-a923-c2e202bbf2a0" d="M485.6262,533.7317h-93.5559s-55.1939-176.0391-55.1939-176.0391l-8.7548-.5118,37.828,204.3815c.6409,2.7014,3.0538,4.6089,5.8305,4.6089h121.385s-7.539-32.4395-7.539-32.4395Z"/></g><g><g><path class="uuid-c7c1635d-2b12-4d47-b94d-3448a0cddcea" d="M411.7863,508.5341s21.7223,23.9767,80.372,24.7866c24.973,.3452,104.6393-8.9875,155.2243-7.5383l1.9102-66.6668-149.3733-5.1531-67.9204-1.0734-20.2128,55.645Z"/><circle class="uuid-c7c1635d-2b12-4d47-b94d-3448a0cddcea" cx="648.3377" cy="492.4489" r="33.3473" transform="translate(-92.7127 155.2664) rotate(-12.7529)"/></g><path class="uuid-d0d5314e-e327-4048-a51e-9f24223b40e2" d="M573.8619,682.4705s-1.4519,20.8936-1.6148,25.1189c-.1629,4.2246,28.3577,28.494,24.3937,35.8739l-48.277-25.9312-12.6536-21.5574-12.3023,8.4396-5.7883-3.109s18.1526-26.9292,28.9894-39.2878l27.253,20.453Z"/><path class="uuid-d0d5314e-e327-4048-a51e-9f24223b40e2" d="M665.7297,718.3856s14.1284,15.4614,17.0752,18.4934c2.9475,3.0316,40.1908-.8825,42.8009,7.0773l-52.0726,17.0742-24.3368-5.7048-2.3737,14.7288-6.2432,2.0472s-6.9805-31.7171-8.4556-48.0876l33.6058-5.6285Z"/><g><polygon class="uuid-c7c1635d-2b12-4d47-b94d-3448a0cddcea" points="618.281 478.0049 524.1565 673.8711 585.0613 703.1392 678.3946 506.8931 618.281 478.0049"/><circle class="uuid-c7c1635d-2b12-4d47-b94d-3448a0cddcea" cx="648.3377" cy="492.449" r="33.3473" transform="translate(141.1665 1129.3361) rotate(-88.6874)"/></g><g><path class="uuid-ff499950-7945-460c-93ed-52d3b5cfeaae" d="M406.4502,465.7496s-5.9143,28.3928,4.9862,50.8637c17.2803,35.6237,157.6804,10.8664,207.1446,21.554l14.0855-65.19-132.7469-19.0147-40.0255-5.7334-53.4438,17.5205Z"/><circle class="uuid-ff499950-7945-460c-93ed-52d3b5cfeaae" cx="625.6236" cy="505.5722" r="33.3471" transform="translate(-173.7451 416.0301) rotate(-32.5506)"/></g><g><polygon class="uuid-ff499950-7945-460c-93ed-52d3b5cfeaae" points="592.5839 510.0907 622.0282 725.3948 688.9775 716.2389 658.6633 501.0537 592.5839 510.0907"/><path class="uuid-ff499950-7945-460c-93ed-52d3b5cfeaae" d="M658.6633,501.0537c2.4956,18.2473-10.2739,35.0625-28.5212,37.5582-18.2473,2.4953-35.0629-10.2742-37.5582-28.5212-2.4953-18.2473,10.2739-35.0629,28.5213-37.5582,18.2473-2.4956,35.0629,10.2739,37.5581,28.5212Z"/></g><g><g><path class="uuid-df7c1ee4-384e-483b-8019-072fb4d998b3" d="M481.7321,357.7314c-10.7635,5.5896-24.0203,1.3954-29.6102-9.3682-5.5897-10.7632-1.3954-24.0203,9.3681-29.6099,10.7635-5.5896,24.0203-1.3954,29.6099,9.3682,5.5896,10.7632,1.3953,24.0203-9.3679,29.6099Z"/><path class="uuid-2768b509-f3c7-4aef-9df5-7aed8ec91716" d="M527.4437,445.7535c-10.7635,5.5896-24.0203,1.3954-29.6099-9.3678-5.5896-10.7635-1.3954-24.0203,9.3678-29.6102,10.7635-5.5896,24.0203-1.3954,29.6102,9.3682,5.5896,10.7635,1.3954,24.0203-9.3682,29.6099Z"/><rect class="uuid-df7c1ee4-384e-483b-8019-072fb4d998b3" x="444.8748" y="360.2932" width="99.1842" height="43.9207" transform="translate(605.8141 -232.74) rotate(62.5562)"/></g><g><path class="uuid-2768b509-f3c7-4aef-9df5-7aed8ec91716" d="M527.4437,445.7535c-10.7635,5.5896-24.0203,1.3954-29.6099-9.3678-5.5896-10.7635-1.3954-24.0203,9.3678-29.6102,10.7635-5.5896,24.0203-1.3954,29.6102,9.3682,5.5896,10.7635,1.3954,24.0203-9.3682,29.6099Z"/><rect class="uuid-df7c1ee4-384e-483b-8019-072fb4d998b3" x="444.8748" y="360.2932" width="99.1842" height="43.9207" transform="translate(605.8141 -232.74) rotate(62.5562)"/><g><polygon class="uuid-df7c1ee4-384e-483b-8019-072fb4d998b3" points="468.8914 409.4163 450.2556 343.3815 491.1 328.1215 520.474 384.6842 468.8914 409.4163"/><path class="uuid-df7c1ee4-384e-483b-8019-072fb4d998b3" d="M481.7321,357.7314c-10.7635,5.5896-24.0203,1.3954-29.6102-9.3682-5.5897-10.7632-1.3954-24.0203,9.3681-29.6099,10.7635-5.5896,24.0203-1.3954,29.6099,9.3682,5.5896,10.7632,1.3953,24.0203-9.3679,29.6099Z"/></g></g><g><polygon class="uuid-2768b509-f3c7-4aef-9df5-7aed8ec91716" points="496.865 418.2808 537.6385 330.1769 567.4637 341.8168 537.7802 434.2486 496.865 418.2808"/><path class="uuid-2768b509-f3c7-4aef-9df5-7aed8ec91716" d="M509.3388,446.7223c-11.2982-4.4096-16.883-17.143-12.4737-28.4415,4.4096-11.2985,17.143-16.883,28.4415-12.4737,11.2985,4.4093,16.883,17.143,12.4737,28.4415-4.4093,11.2982-17.143,16.883-28.4415,12.4737Z"/><path class="uuid-2768b509-f3c7-4aef-9df5-7aed8ec91716" d="M546.7313,350.9097c-8.2362-3.2143-12.3071-12.4966-9.0928-20.7328,3.2143-8.2359,12.4966-12.3071,20.7324-9.0928,8.2362,3.2143,12.3071,12.4966,9.0928,20.7328-3.2143,8.2359-12.4966,12.3071-20.7324,9.0928Z"/></g></g><path class="uuid-df7c1ee4-384e-483b-8019-072fb4d998b3" d="M471.8419,316.2823h-64.7787s-13.1491,100.2117-13.1491,100.2117c-.996,7.5901,4.9122,14.3243,12.5674,14.3243h93.438c6.9274,0,11.7343-6.9032,9.331-13.4006l-37.4086-101.1354Z"/><rect class="uuid-df7c1ee4-384e-483b-8019-072fb4d998b3" x="406.4815" y="430.8183" width="93.438" height="23.1425"/><g><path class="uuid-2768b509-f3c7-4aef-9df5-7aed8ec91716" d="M386.8838,457.6943c-11.9589-2.0203-20.0155-13.3525-17.9955-25.3117,2.0203-11.9589,13.3529-20.0155,25.3117-17.9952,11.9589,2.0199,20.0158,13.3525,17.9955,25.3114-2.0203,11.9589-13.3528,20.0158-25.3117,17.9955Z"/><g><path class="uuid-2768b509-f3c7-4aef-9df5-7aed8ec91716" d="M386.8838,457.6943c-11.9589-2.0203-20.0155-13.3525-17.9955-25.3117,2.0203-11.9589,13.3529-20.0155,25.3117-17.9952,11.9589,2.0199,20.0158,13.3525,17.9955,25.3114-2.0203,11.9589-13.3528,20.0158-25.3117,17.9955Z"/><polygon class="uuid-2768b509-f3c7-4aef-9df5-7aed8ec91716" points="368.8883 432.3826 375.0268 396.0474 418.1003 404.745 412.1955 439.6988 368.8883 432.3826"/><g><polygon class="uuid-91cee8af-3dad-4ea3-a894-72f5de225eec" points="362.0266 393.4223 386.9203 329.4835 428.7166 341.9003 418.1003 404.745 362.0266 393.4223"/><path class="uuid-91cee8af-3dad-4ea3-a894-72f5de225eec" d="M403.4053,359.8958c-11.9589-2.0203-20.0159-13.3525-17.9956-25.3114s13.3525-20.0158,25.3114-17.9955c11.9588,2.0203,20.0158,13.3525,17.9955,25.3114s-13.3525,20.0158-25.3113,17.9955Z"/></g></g><g><polygon class="uuid-2768b509-f3c7-4aef-9df5-7aed8ec91716" points="404.069 418.7412 476.7354 483.1175 457.0143 508.3389 377.0147 453.3403 404.069 418.7412"/><path class="uuid-2768b509-f3c7-4aef-9df5-7aed8ec91716" d="M373.2424,422.5136c7.4708-9.5542,21.2725-11.2429,30.8267-3.7724,9.5542,7.4709,11.2433,21.2725,3.7724,30.8267-7.4709,9.5542-21.2725,11.2433-30.8267,3.7724-9.5542-7.4709-11.2429-21.2725-3.7724-30.8267Z"/><path class="uuid-2768b509-f3c7-4aef-9df5-7aed8ec91716" d="M454.2641,485.8673c5.4462-6.9645,15.5067-8.1956,22.4712-2.7498,6.9649,5.4458,8.196,15.5067,2.7502,22.4712-5.4458,6.9649-15.5067,8.196-22.4712,2.7502-6.9649-5.4462-8.196-15.5067-2.7502-22.4716Z"/></g></g><g><path class="uuid-2768b509-f3c7-4aef-9df5-7aed8ec91716" d="M496.5982,499.5272c8.3977,16.9017,12.7211,37.566,9.866,37.9061-4.1793,.4975-9.8841-21.0606-9.8841-21.0606,0,0,4.4341,21.5747,.6757,23.0999-4.2106,1.7088-7.8713-20.8214-7.8713-20.8214,0,0,1.8342,22.519-2.1191,22.5132-3.401-.0051-3.7465-21.2633-3.7465-21.2633,0,0-3.7428,18.2998-6.6367,17.8252-2.8936-.4747,.0453-14.9261-.994-18.5005-1.0396-3.5741-10.3536-1.9222-18.1206-10.3277l15.398-27.8925c10.954,2.9073,18.72,9.037,23.4325,18.5216Z"/><path class="uuid-2768b509-f3c7-4aef-9df5-7aed8ec91716" d="M451.0846,493.0963c-1.4536,8.7207,4.4375,16.9685,13.1583,18.4221,8.7207,1.4536,16.9689-4.4375,18.4221-13.1583,1.4536-8.7207-4.4375-16.9689-13.1582-18.4221-8.7208-1.4536-16.9686,4.4375-18.4222,13.1583Z"/></g><g><path class="uuid-d0d5314e-e327-4048-a51e-9f24223b40e2" d="M426.0932,241.1298c-23.5068,4.2106-24.5188,20.2949-19.7603,34.7136,4.7582,14.4184-4.9746,18.7084-6.0561,25.6296-1.0815,6.9213,8.6512,9.084,8.6512,9.084,0,0-5.1391-3.6177-2.5951-6.2721,4.9746-5.1909,11.431,4.3132,22.3837,4.1094,10.953-.2041-.2719-52.4492-.2719-52.4492l-2.3515-14.8153Z"/><path class="uuid-d0d5314e-e327-4048-a51e-9f24223b40e2" d="M446.8376,242.9603c13.8943-1.0188,23.0785-7.2743,26.7224,.1469,5.0052,10.1931,2.6319,22.5782,2.2002,28.8889-1.0365,15.1483,8.2798,16.59,11.043,23.0273,2.7627,6.4371-6.1304,10.9445-6.1304,10.9445,0,0,4.0825-4.7786,.9602-6.7199-6.1058-3.7959-13.6026,7.8276-24.174,10.7008-21.1086,5.7365-9.2281-52.0525-9.2281-52.0525l-1.3933-14.936Z"/><path class="uuid-d0d5314e-e327-4048-a51e-9f24223b40e2" d="M429.7832,230.8297c0,10.3086-8.3565,18.6654-18.6651,18.6654-10.3086,0-18.6654-8.3568-18.6654-18.6654,0-10.3083,8.3568-18.6651,18.6654-18.6651s18.6651,8.3568,18.6651,18.6651Z"/><g><path class="uuid-2768b509-f3c7-4aef-9df5-7aed8ec91716" d="M461.6178,239.4509l-19.6945,4.9054c-12.1092,3.0163-19.7177,15.0079-17.2889,27.2482l5.7498,28.9754,17.2837,14.8832,7.2821-11.3302c8.4059-1.012,19.905-11.2678,17.0408-33.0685-1.2175-9.2656-4.396-22.4348-8.2574-30.6366-.3728-.7919-1.2669-1.1885-2.1157-.9769Z"/><path class="uuid-d0d5314e-e327-4048-a51e-9f24223b40e2" d="M454.9501,304.1329c-6.0149,.8614-16.7938-2.5921-16.7938-2.5921,0,0,5.4152,7.122,19.3026,8.4079l-2.5089-5.8159Z"/><path class="uuid-e1bd5b14-f944-4902-9a7e-aed80f979db2" d="M472.2805,274.1353c.3445,4.7136-.0126,8.8257-.8652,12.3793-1.8165-1.3463-3.0047-3.492-3.0047-5.9263,0-2.7982,1.5753-5.2008,3.8699-6.4531Z"/><path class="uuid-e1bd5b14-f944-4902-9a7e-aed80f979db2" d="M434.5577,279.9327c0,4.0815,3.3083,7.3898,7.3898,7.3898,4.0811,0,7.3898-3.3083,7.3898-7.3898,0-4.0811-3.3087-7.3894-7.3898-7.3894-4.0815,0-7.3898,3.3083-7.3898,7.3894Z"/><path class="uuid-d0d5314e-e327-4048-a51e-9f24223b40e2" d="M461.4924,279.8986c-.3694,0-.7006-.2566-.781-.6324-.0927-.4321,.183-.8573,.615-.9497,.6573-.1411,1.2386-.6924,1.4138-1.3419,.1741-.6481-.0501-1.4172-.5479-1.868-.2198-.201-.5077-.3663-.8113-.5414-.2825-.1619-.5626-.3247-.8205-.519-1.088-.8192-1.7508-2.174-1.7272-3.5356,.0078-.4416,.3973-.8471,.8134-.7868,.442,.0078,.7936,.3718,.7868,.8137-.0143,.8594,.4028,1.7133,1.0894,2.2298,.2062,.155,.4307,.2825,.6549,.4116,.3649,.2099,.7421,.4263,1.0904,.7421,.9374,.8519,1.346,2.2455,1.0168,3.4698-.3302,1.2243-1.3851,2.2244-2.6238,2.4898-.0569,.0123-.1128,.0177-.1686,.0177Z"/><path class="uuid-d0d5314e-e327-4048-a51e-9f24223b40e2" d="M462.7883,267.8359c.2903,1.7058,1.4734,2.9277,2.6425,2.7287,1.1688-.1987,1.8813-1.7429,1.5909-3.4487-.2903-1.7061-1.473-2.9277-2.6422-2.729-1.1688,.199-1.8813,1.7429-1.5913,3.449Z"/><path class="uuid-d0d5314e-e327-4048-a51e-9f24223b40e2" d="M450.4788,269.2462c.2904,1.7058,1.473,2.9277,2.6418,2.7287,1.1691-.1987,1.8813-1.7429,1.5913-3.4487-.2903-1.7061-1.473-2.928-2.6422-2.729-1.1688,.199-1.8813,1.7429-1.5909,3.449Z"/><path class="uuid-d0d5314e-e327-4048-a51e-9f24223b40e2" d="M459.9389,258.7011c-.2409,0-.4787-.1084-.6362-.3138-.2688-.3503-.2021-.8525,.1486-1.1214,1.8069-1.3872,4.1908-1.7095,6.2206-.8335,.4062,.1738,.5936,.645,.4184,1.0498-.1738,.4086-.6461,.5939-1.0498,.4184-1.4989-.6426-3.2667-.4007-4.6161,.6352-.1451,.1118-.3159,.1653-.4856,.1653Z"/><path class="uuid-d0d5314e-e327-4048-a51e-9f24223b40e2" d="M447.8237,260.7367c-.2269,0-.4522-.0961-.6096-.2825-.2866-.337-.2457-.8413,.0917-1.1269,1.9072-1.6185,4.7953-1.9521,7.0228-.8117,.3929,.2021,.5483,.6842,.3472,1.0771-.2007,.3925-.6829,.5503-1.0768,.3469-1.6676-.8536-3.8293-.6048-5.2577,.6062-.1506,.1281-.335,.1908-.5176,.1908Z"/><path class="uuid-d0d5314e-e327-4048-a51e-9f24223b40e2" d="M460.9401,285.9421c-3.617,0-7.2575-1.9811-9.0564-5.1337-.2188-.384-.0848-.8716,.2992-1.0914,.3847-.2188,.8713-.0852,1.0911,.2988,1.8281,3.2054,5.914,4.9756,9.4987,4.1138,.4253-.1039,.8614,.1605,.9643,.5915,.1026,.4297-.1619,.8617-.5915,.9643-.7231,.1728-1.4632,.2566-2.2053,.2566Z"/><polygon class="uuid-91cee8af-3dad-4ea3-a894-72f5de225eec" points="454.9501 304.1329 447.668 314.7458 430.3842 300.5799 426.0932 316.2823 441.8773 328.4466 448.2888 317.6395 457.1636 326.6836 461.0498 316.2823 454.9501 304.1329"/></g><circle class="uuid-2768b509-f3c7-4aef-9df5-7aed8ec91716" cx="422.177" cy="276.3167" r="6.2677"/><path class="uuid-d0d5314e-e327-4048-a51e-9f24223b40e2" d="M424.1833,270.3775s5.8281,9.9209,6.7683,14.6215c0,0,1.7239-7.782-1.2533-16.1129,0,0,10.0282-7.7043,8.9313-18.2024-1.0969-10.4984-15.826-7.0262-15.826-7.0262,0,0-5.6428,20.7682,1.3797,26.72Z"/><path class="uuid-e8b7292f-3908-4ecf-9355-1fad307e578b" d="M418.9406,213.9099c-3.2214,3.3465-7.2232,5.946-11.6307,7.4167-4.1254,1.3763-8.5592,1.7446-12.8696,1.1786-.2621,.5248-.5091,1.058-.7221,1.6093,5.3753,1.3913,11.1527,1.2553,16.4233-.5029,4.5817-1.5286,8.7333-4.2679,12.0164-7.8075-.9997-.736-2.0813-1.3644-3.2173-1.8942Z"/><path class="uuid-d0d5314e-e327-4048-a51e-9f24223b40e2" d="M470.4104,238.3871c-10.3059-11.5943-39.8612-20.2083-50.5076,8.9156l7.5558,10.5396s7.783-1.6601,18.4136-3.3615c1.4213-3.0964,2.2762-6.4527,2.4704-9.8547,.4651,3.2139,.5033,6.3232,.1015,9.453,5.9569-.9156,12.6138-1.8063,19.2345-2.4183,6.7114-.6205,9.0669-6.1474,2.7318-13.2738Z"/></g><g><path class="uuid-d0d5314e-e327-4048-a51e-9f24223b40e2" d="M546.6598,305.9244s-17.0509-3.3618-18.7038-5.7855c-3.4267-5.0255,12.6799-6.7787,12.6799-6.7787l6.0239,12.5643Z"/><rect class="uuid-d0d5314e-e327-4048-a51e-9f24223b40e2" x="504.4069" y="299.2972" width="68.6905" height="7.8871" rx=".6659" ry=".6659" transform="translate(123.4746 761.2291) rotate(-77.1734)"/><path class="uuid-2768b509-f3c7-4aef-9df5-7aed8ec91716" d="M545.4971,341.0865l22.625-8.3701s1.6007-8.8662-1.2943-22.8615c-2.8948-13.9952-16.7561-24.0578-16.7561-24.0578-9.8368-6.6484-11.2236-6.1081-11.9347-4.3288-.6941,1.7371,.7248,5.4706,7.0679,10.5032,0,0-8.8377-4.8315-9.6962-1.7039-.8587,3.1279,7.9319,11.5716,7.9319,11.5716,0,0-9.7019-5.305-10.3566-1.7131-.5636,3.0911,5.8317,11.6582,5.8317,11.6582,0,0-8.6912-6.1468-9.9635-3.5427-1.7279,3.537,8.7832,16.2376,8.7832,16.2376l7.7615,16.6074Z"/><path class="uuid-2768b509-f3c7-4aef-9df5-7aed8ec91716" d="M563.6645,342.5562c6.1514-6.3501,5.9906-16.4846-.3595-22.6359-6.3499-6.1517-16.4844-5.9909-22.636,.359-6.1514,6.3501-5.9906,16.4846,.3593,22.6362,6.3499,6.1517,16.4846,5.9906,22.6362-.3593Z"/><path class="uuid-2768b509-f3c7-4aef-9df5-7aed8ec91716" d="M533.213,316.2505s-3.1482,10.1469,5.214,15.3156c8.3619,5.1686,11.4874-2.6843,11.4874-2.6843l-16.7014-12.6313Z"/></g></g></g><g><polygon class="uuid-d0d5314e-e327-4048-a51e-9f24223b40e2" points="888.9082 427.2476 921.8441 772.1017 913.5329 772.1017 871.606 430.1753 888.9082 427.2476"/><polygon class="uuid-d0d5314e-e327-4048-a51e-9f24223b40e2" points="495.7614 427.2476 462.8258 772.1017 471.1369 772.1017 513.0635 430.1753 495.7614 427.2476"/><rect class="uuid-7d40be9c-a36f-41d9-a923-c2e202bbf2a0" x="471.3577" y="420.1777" width="441.9541" height="12.1044" transform="translate(1384.6695 852.4598) rotate(180)"/><g><path class="uuid-91cee8af-3dad-4ea3-a894-72f5de225eec" d="M849.8306,399.1765h-159.4615c-1.6529,0-2.9182-1.472-2.6698-3.1066l15.4604-101.7185c.3425-2.253,2.4466-4.0791,4.6992-4.0791h157.9267c2.253,0,3.8017,1.8261,3.4593,4.0791l-15.4096,101.3828c-.3006,1.9794-2.0026,3.4422-4.0048,3.4422Z"/><polygon class="uuid-d0d5314e-e327-4048-a51e-9f24223b40e2" points="756.4979 380.7284 753.0881 399.2811 765.1342 399.2811 756.4979 380.7284"/><g><path class="uuid-91cee8af-3dad-4ea3-a894-72f5de225eec" d="M801.5679,420.1777h-34.1929s-10.877-39.4493-10.877-39.4493h39.5117s9.4632,34.3217,9.4632,34.3217c.7111,2.5795-1.2294,5.1276-3.905,5.1276Z"/><rect class="uuid-91cee8af-3dad-4ea3-a894-72f5de225eec" x="741.2785" y="416.8626" width="33.1717" height="3.3151"/></g></g></g></g><line class="uuid-e63e3d2d-7b02-4ae5-86d4-2654479e78dc" x1="235.3441" y1="776.6017" x2="1408.3441" y2="776.6017"/><line class="uuid-e63e3d2d-7b02-4ae5-86d4-2654479e78dc" x1="1438.3441" y1="776.6017" x2="1482.3441" y2="776.6017"/><line class="uuid-e63e3d2d-7b02-4ae5-86d4-2654479e78dc" x1="219.3441" y1="776.6017" x2="204.3441" y2="776.6017"/></g></svg>