<?xml version="1.0" encoding="UTF-8"?><svg id="uuid-a502e3b3-8d19-4024-be97-6b51388e7fde" xmlns="http://www.w3.org/2000/svg" width="288.2" height="137" viewBox="0 0 288.2 137"><defs><style>.uuid-e527c748-631b-4b99-9f2a-24412ff093ac{fill:#00979d;}</style></defs><path class="uuid-e527c748-631b-4b99-9f2a-24412ff093ac" d="M288.2,68.5C288.2,30.7,256.3,0,217.2,0c-3.6,0-7.3,.2-10.9,.8-30.4,4.3-50.8,26.2-62.2,43C132.7,27,112.3,5.1,81.9,.8,78.3,.3,74.6,0,71,0,31.8,0,0,30.7,0,68.5s31.9,68.5,71,68.5c3.6,0,7.3-.2,11-.8,30.4-4.4,50.8-26.3,62.2-43.1,11.4,16.8,31.8,38.7,62.2,43.1,3.6,.5,7.3,.8,11,.8,38.9,0,70.8-30.7,70.8-68.5M78.4,112.2c-2.5,.4-5,.5-7.5,.5-25.8,0-46.7-19.9-46.7-44.2,0-24.4,21-44.2,46.8-44.2,2.5,0,5,.2,7.5,.5,28.7,4.1,46.2,32.4,52.2,43.7-6.1,11.4-23.7,39.6-52.3,43.7m79.1-43.7c5.9-11.3,23.5-39.6,52.2-43.7,2.5-.3,5-.5,7.5-.5,25.8,0,46.7,19.9,46.7,44.2,0,24.4-21,44.2-46.7,44.2-2.5,0-5-.2-7.5-.5-28.7-4.1-46.3-32.4-52.2-43.7"/><path class="uuid-e527c748-631b-4b99-9f2a-24412ff093ac" d="M51.3,61.8h42.7v13.7H51.3v-13.7Zm170.6,13.8h14.4v-13.8h-14.4v-14.4h-13.8v14.4h-14.4v13.8h14.4v14.4h13.8v-14.4h0Z"/></svg>