<?xml version="1.0" encoding="utf-8"?>
<!-- Generator: Adobe Illustrator 26.5.0, SVG Export Plug-In . SVG Version: 6.00 Build 0)  -->
<svg version="1.1" id="Layer_1" xmlns="http://www.w3.org/2000/svg" xmlns:xlink="http://www.w3.org/1999/xlink" x="0px" y="0px"
	 viewBox="0 0 30 30" style="enable-background:new 0 0 30 30;" xml:space="preserve">
<path d="M22.2,0C29.4,0,30,0.6,30,7.8v14.5c0,7.2-0.6,7.7-7.7,7.7H7.7C0.6,30,0,29.4,0,22.3V7.7C0,0.6,0.6,0,7.7,0H22.2z M9.8,23.2
	V11H6v12.2H9.8z M7.9,9.3c1.2,0,2.2-1,2.2-2.2c0-1.2-1-2.2-2.2-2.2c-1.2,0-2.2,1-2.2,2.2S6.7,9.3,7.9,9.3z M24,23.2v-6.7
	c0-3.3-0.7-5.8-4.5-5.8c-1.8,0-3.1,1-3.6,2h-0.1V11h-3.6v12.2H16v-6c0-1.6,0.3-3.1,2.3-3.1c1.9,0,2,1.8,2,3.2v5.9H24z"/>
</svg>
