<?xml version="1.0" encoding="UTF-8"?><svg id="uuid-db568067-3e55-4c9e-a288-4de3ecb25e12" xmlns="http://www.w3.org/2000/svg" width="560.4549" height="715.7288" viewBox="0 0 560.4549 715.7288"><defs><style>.uuid-0a3f3bd8-9c0d-4842-9b28-7c1273373bfe{fill:#75a928;}.uuid-e0e524a5-913f-4595-ab31-ac5f9a45dedd{fill:#bc1142;}</style></defs><path d="M151.7118,.0079c-3.6193,.1123-7.5172,1.4493-11.9375,4.9375-10.827-4.1763-21.3271-5.6272-30.7188,2.875-14.4939-1.8808-19.2103,2.0007-22.7812,6.5312-3.1825-.0659-23.8188-3.2721-33.2812,10.8438-23.7816-2.8134-31.2968,13.9879-22.7812,29.6562-4.8569,7.519-9.8895,14.9472,1.4688,29.2812-4.018,7.9835-1.5274,16.644,7.9375,27.125-2.4979,11.2226,2.4121,19.1409,11.2188,25.3125-1.6471,15.3576,14.0835,24.2874,18.7812,27.4688,1.8037,8.9487,5.5629,17.3927,23.5312,22.0625,2.9632,13.3361,13.7621,15.6391,24.2188,18.4375-34.5619,20.0895-64.2007,46.5227-64,111.375l-5.0625,9.0312c-39.6309,24.1023-75.2853,101.5663-19.5312,164.5312,3.6419,19.7084,9.7496,33.864,15.1875,49.5312,8.1338,63.1306,61.2176,92.6916,75.2188,96.1875,20.5165,15.6281,42.3682,30.4567,71.9375,40.8438,27.8752,28.7495,58.0739,39.7064,88.4375,39.6875,.4452-.0003,.8985,.005,1.3438,0,30.3636,.0189,60.5623-10.938,88.4375-39.6875,29.5693-10.387,51.421-25.2156,71.9375-40.8438,14.0011-3.4959,67.0849-33.0569,75.2188-96.1875,5.4379-15.6673,11.5456-29.8229,15.1875-49.5312,55.754-62.965,20.0996-140.429-19.5312-164.5312l-5.0625-9.0312c.2007-64.8523-29.4381-91.2855-64-111.375,10.4567-2.7984,21.2555-5.1014,24.2188-18.4375,17.9684-4.6698,21.7276-13.1138,23.5312-22.0625,4.6978-3.1813,20.4283-12.1112,18.7812-27.4688,8.8067-6.1716,13.7166-14.0899,11.2188-25.3125,9.465-10.481,11.9555-19.1415,7.9375-27.125,11.3583-14.334,6.3257-21.7623,1.4688-29.2812,8.5155-15.6684,1.0004-32.4697-22.7812-29.6562-9.4624-14.1158-30.0987-10.9096-33.2812-10.8438-3.571-4.5305-8.2874-8.412-22.7812-6.5312-9.3917-8.5022-19.8918-7.0513-30.7188-2.875-12.8592-10.1474-21.3723-2.0133-31.0938,1.0625-15.5739-5.0878-19.133,1.8809-26.7812,4.7188-16.9753-3.5881-22.1356,4.2235-30.2812,12.4688l-9.4688-.1875c-25.6105,15.0931-38.3338,45.8255-42.8438,61.625-4.5121-15.802-17.2065-46.5345-42.8125-61.625l-9.4688,.1875c-8.1456-8.2452-13.306-16.0568-30.2812-12.4688-7.6482-2.8378-11.2074-9.8065-26.7812-4.7188C164.4883,3.9894,158.6214-.2065,151.7118,.0079Z"/><path class="uuid-0a3f3bd8-9c0d-4842-9b28-7c1273373bfe" d="M100.7286,66.4072c67.9477,35.0314,107.4469,63.369,129.0872,87.5045-11.0824,44.4176-68.8964,46.4446-90.0356,45.1986,4.3284-2.0147,7.9399-4.4278,9.2205-8.1357-5.3045-3.7698-24.1129-.3972-37.2436-7.7742,5.0441-1.045,7.4035-2.063,9.7629-5.7854-12.4057-3.9567-25.7686-7.3664-33.6277-13.9212,4.2413,.0524,8.2012,.9488,13.7404-2.8927-11.1117-5.9882-22.9691-10.7335-32.1814-19.8874,5.7452-.1406,11.9395-.0568,13.7404-2.1695-10.1704-6.3007-18.7512-13.3079-25.8536-20.9722,8.04,.9705,11.4353,.1348,13.3788-1.2656-7.6878-7.8742-17.4176-14.5232-22.0569-24.2264,5.9696,2.0575,11.4312,2.8451,15.3675-.1808-2.6124-5.8935-13.8054-9.3696-20.249-23.1417,6.2844,.6094,12.9496,1.3711,14.2827,0-2.9223-11.8886-7.9274-18.57-12.8364-25.492,13.45-.1997,33.8278,.0523,32.9046-1.0848l-8.3165-8.4973c13.1376-3.5372,26.5807,.5682,36.3397,3.6159,4.3819-3.4577-.0776-7.83-5.4238-12.294,11.165,1.4906,21.2538,4.0574,30.3734,7.5934,4.8724-4.3993-3.1639-8.7987-7.051-13.198,17.2494,3.2726,24.5572,7.8707,31.8198,12.4748,5.2693-5.0508,.3017-9.3433-3.2543-13.7404,13.0057,4.817,19.7048,11.0356,26.7576,17.1755,2.3912-3.2271,6.0749-5.5924,1.6272-13.3788,9.2342,5.3227,16.1893,11.5951,21.3337,18.6218,5.7134-3.6379,3.4039-8.613,3.4351-13.198,9.5966,7.8065,15.6869,16.1139,23.1417,24.2264,1.5017-1.0934,2.8166-4.8017,3.9775-10.6669,22.8954,22.2118,55.2459,78.1582,8.3165,100.3409-39.9188-32.9472-87.6161-56.8875-140.4772-74.8489Z"/><path class="uuid-0a3f3bd8-9c0d-4842-9b28-7c1273373bfe" d="M461.2617,66.4072c-67.9477,35.0314-107.4469,63.369-129.0872,87.5045,11.0823,44.4176,68.8964,46.4446,90.0356,45.1986-4.3284-2.0147-7.9399-4.4278-9.2205-8.1357,5.3045-3.7698,24.1129-.3972,37.2436-7.7742-5.0441-1.045-7.4035-2.063-9.7629-5.7854,12.4057-3.9567,25.7686-7.3664,33.6277-13.9212-4.2413,.0524-8.2012,.9488-13.7404-2.8927,11.1117-5.9882,22.9691-10.7335,32.1814-19.8874-5.7452-.1406-11.9395-.0568-13.7404-2.1695,10.1704-6.3007,18.7513-13.3079,25.8536-20.9722-8.04,.9705-11.4353,.1348-13.3788-1.2656,7.6878-7.8742,17.4176-14.5232,22.0569-24.2264-5.9696,2.0575-11.4312,2.8451-15.3675-.1808,2.6124-5.8935,13.8054-9.3696,20.249-23.1417-6.2844,.6094-12.9496,1.3711-14.2827,0,2.9223-11.8886,7.9275-18.57,12.8364-25.492-13.45-.1997-33.8278,.0523-32.9046-1.0848l8.3165-8.4973c-13.1376-3.5372-26.5807,.5682-36.3397,3.6159-4.3819-3.4577,.0776-7.83,5.4238-12.294-11.1649,1.4906-21.2538,4.0574-30.3734,7.5934-4.8724-4.3993,3.1639-8.7987,7.051-13.198-17.2494,3.2726-24.5572,7.8707-31.8198,12.4748-5.2693-5.0508-.3017-9.3433,3.2543-13.7404-13.0056,4.817-19.7048,11.0356-26.7576,17.1755-2.3912-3.2271-6.075-5.5924-1.6271-13.3788-9.2342,5.3227-16.1893,11.5951-21.3337,18.6218-5.7133-3.6379-3.4039-8.613-3.4351-13.198-9.5966,7.8065-15.6869,16.1139-23.1417,24.2264-1.5017-1.0934-2.8166-4.8017-3.9775-10.6669-22.8954,22.2118-55.2459,78.1582-8.3165,100.3409,39.9188-32.9472,87.6161-56.8875,140.4772-74.8489h0Z"/><path class="uuid-e0e524a5-913f-4595-ab31-ac5f9a45dedd" d="M363.2831,518.7127c0,41.45-36.4396,75.0518-81.3901,75.0518s-81.3901-33.6018-81.3901-75.0518,36.4396-75.0518,81.3901-75.0518,81.3901,33.6018,81.3901,75.0518Z"/><path class="uuid-e0e524a5-913f-4595-ab31-ac5f9a45dedd" d="M234.7908,304.3141c33.724,22.0947,39.8033,72.1771,13.5787,111.8621s-74.8226,53.9448-108.5465,31.8501h0c-33.724-22.0947-39.8033-72.1771-13.5787-111.8621s74.8226-53.9448,108.5465-31.8501h0Z"/><path class="uuid-e0e524a5-913f-4595-ab31-ac5f9a45dedd" d="M325.8231,300.3141c-33.724,22.0947-39.8033,72.1771-13.5787,111.8621s74.8226,53.9448,108.5465,31.8501h0c33.724-22.0947,39.8033-72.1771,13.5787-111.8621s-74.8226-53.9448-108.5465-31.8501h0Z"/><path class="uuid-e0e524a5-913f-4595-ab31-ac5f9a45dedd" d="M66.2471,340.4395c36.4142-9.7569,12.2916,150.6365-17.3334,137.4758-32.5868-26.2127-43.0831-102.9754,17.3334-137.4758Z"/><path class="uuid-e0e524a5-913f-4595-ab31-ac5f9a45dedd" d="M487.0151,338.4395c-36.4142-9.7569-12.2916,150.6365,17.3334,137.4758,32.5868-26.2127,43.0831-102.9754-17.3334-137.4758Z"/><path class="uuid-e0e524a5-913f-4595-ab31-ac5f9a45dedd" d="M363.3084,219.0051c62.8349-10.6101,115.1159,26.7223,113.0114,94.858-2.0669,26.1211-136.1587-90.9691-113.0114-94.858h0Z"/><path class="uuid-e0e524a5-913f-4595-ab31-ac5f9a45dedd" d="M189.6966,217.0051c-62.8349-10.6101-115.1159,26.7223-113.0114,94.858,2.0669,26.1211,136.1587-90.9691,113.0114-94.858Z"/><path class="uuid-e0e524a5-913f-4595-ab31-ac5f9a45dedd" d="M279.9561,201.1073c-37.5026-.9755-73.4955,27.8342-73.5816,44.5444-.1046,20.3043,29.6512,41.0927,73.8372,41.6204,45.123,.3232,73.9156-16.6405,74.0611-37.5941,.1648-23.74-41.0388-48.9374-74.3168-48.5707h0Z"/><path class="uuid-e0e524a5-913f-4595-ab31-ac5f9a45dedd" d="M282.2462,617.4684c32.6974-1.4271,76.5708,10.532,76.6568,26.396,.5427,15.4052-39.7897,50.2106-78.8264,49.5377-40.4273,1.7439-80.0691-33.1156-79.5495-45.1986-.6051-17.7159,49.226-31.548,81.7191-30.735Z"/><path class="uuid-e0e524a5-913f-4595-ab31-ac5f9a45dedd" d="M161.4755,523.4554c23.2791,28.0457,33.8907,77.319,14.4635,91.8435-18.3792,11.0878-63.0123,6.5216-94.7362-39.0516-21.3951-38.2417-18.6376-77.1566-3.6159-88.5892,22.4644-13.6843,57.1734,4.799,83.8886,35.7973Z"/><path class="uuid-e0e524a5-913f-4595-ab31-ac5f9a45dedd" d="M398.3577,514.5635c-25.1868,29.5016-39.2123,83.3095-20.8379,100.6428,17.5683,13.4636,64.7292,11.5816,99.5657-36.7557,25.296-32.4647,16.8201-86.6823,2.3708-101.0751-21.4641-16.6021-52.2769,4.6449-81.0986,37.188Z"/></svg>