<?xml version="1.0" encoding="UTF-8"?><svg id="uuid-37ae054b-4cc7-445e-bfc3-5286004bdda2" xmlns="http://www.w3.org/2000/svg" width="1554.0401" height="987.3388" viewBox="0 0 1554.0401 987.3388"><defs><style>.uuid-f940cd3f-99f9-4ee3-adb7-6a57318f1411{fill:#f48c2c;}.uuid-72be5811-ca78-44d4-aef4-175f5ccb0b90{fill:#2496bf;}</style></defs><g><path class="uuid-f940cd3f-99f9-4ee3-adb7-6a57318f1411" d="M265.669,554.7984c.0579,19.9073,.1157,39.8145,.1736,59.7216,.0046,1.604-.6575,2.9006-1.9863,3.8903-1.3286,.9956-2.8828,1.4194-4.658,1.2754-24.3099-1.9736-48.6093-4.0874-72.8953-6.3409,.1818,76.4594,.3636,152.9188,.5452,229.3783,.0042,1.8544-.6584,3.3446-1.9896,4.481-1.3297,1.1306-2.8864,1.7017-4.6622,1.702H99.5355c-1.7812-.0001-3.2815-.5914-4.502-1.767-1.2249-1.1807-1.8372-2.7324-1.8394-4.6619-.1034-79.4995-.2074-158.9993-.3108-238.4988-24.251-2.6128-48.4871-5.3655-72.7067-8.2584-1.9918-.2378-3.5985-1.0391-4.8108-2.4086-1.2181-1.364-1.8248-2.9396-1.8246-4.7212v-66.3286c.0004-1.9998,.6049-3.514,1.822-4.546,1.2111-1.0276,2.8156-1.3881,4.8036-1.0756,79.4014,12.4637,159.0347,22.9475,238.8256,31.4511,1.7745,.1891,3.3309,.9082,4.6663,2.1467,1.3342,1.2425,2.0049,2.7606,2.0103,4.5607Z"/><path class="uuid-f940cd3f-99f9-4ee3-adb7-6a57318f1411" d="M416.6493,562.3029c2.889,.2131,4.8947,1.6034,6.0181,4.1594,39.6471,93.9135,79.2743,184.6263,118.8149,273.5138,.22,.5574,.3357,1.1184,.3367,1.6752,.0016,.6509,.0031,1.3018,.0045,1.9525,.0029,1.4874-.6084,2.7423-1.824,3.7666-1.2219,1.0206-2.72,1.5355-4.4962,1.5355h-81.9939c-3.1139,.0002-5.1183-1.2349-6.0106-3.6982-5.9279-13.5654-11.8573-27.188-17.7875-40.8722-35.5597-.3954-71.1158-.8519-106.6676-1.3698-5.9562,13.95-11.9125,27.9783-17.869,42.0896-.8828,2.5634-2.8794,3.8497-5.9882,3.8506h-81.6608c-2.0004,.0009-3.6158-.5634-4.8373-1.6838-1.2267-1.1243-1.84-2.5032-1.8439-4.1362-.0017-.7144-.0037-1.4287-.0055-2.1432-.0016-.6133,.1056-1.3301,.3278-2.1429,39.0767-97.2332,78.0828-190.1101,117.1226-280.0049,1.1008-2.4442,3.0979-3.5347,5.9878-3.2721,27.4424,2.4937,54.9009,4.7538,82.3721,6.7802Zm-63.4967,169.3184c15.3336,.5367,30.6696,1.0441,46.0067,1.5222-7.8339-18-15.6688-36.1194-23.5038-54.3683-7.5021,17.5072-15.0028,35.1195-22.5029,52.8461Z"/><path class="uuid-f940cd3f-99f9-4ee3-adb7-6a57318f1411" d="M750.8185,843.4361c.0005,1.6405-.6135,2.9608-1.8317,3.9652-1.224,1.0005-2.7238,1.5049-4.4995,1.5046h-185.9866c-1.9998-.0006-3.616-.5131-4.8373-1.532-1.2263-1.0244-1.8381-2.3672-1.8418-4.0393-.2017-89.1361-.4036-178.2721-.6055-267.4082-.0049-1.671,.6045-2.9879,1.8278-3.9551,1.2189-.9629,2.8373-1.4036,4.8417-1.3137,26.8385,1.1962,53.6844,2.17,80.5353,2.9214,1.7812,.0496,3.3445,.6004,4.682,1.6426,1.338,1.0466,2.0092,2.3923,2.011,4.0428,.0967,68.5109,.1931,137.0216,.2898,205.5323,32.9087,.2046,65.8187,.3308,98.7291,.3788,2.0007,.0024,3.6112,.5093,4.8366,1.5111,1.2194,1.0052,1.8352,2.3273,1.835,3.9673,.0047,17.5939,.0095,35.1881,.0142,52.782Z"/><path class="uuid-f940cd3f-99f9-4ee3-adb7-6a57318f1411" d="M767.1498,848.906c-1.9996,.0002-3.6143-.5042-4.8339-1.5044-1.2232-1.0037-1.8334-2.324-1.8334-3.9647-.0139-87.5018-.0278-175.0038-.0417-262.5057-.0001-1.6406,.6112-2.9586,1.8377-3.9597,1.223-.9967,2.8427-1.4976,4.8485-1.4946,65.4197,.0991,130.8408-1.1218,196.2234-3.6624,1.7801-.0693,3.3399,.3803,4.6745,1.3414,1.3345,.9655,1.9993,2.2775,1.9963,3.9417-.0374,18.3977-.0749,36.7957-.1122,55.1935-.0034,1.4828-.6738,2.7938-2.0113,3.9449-1.3378,1.1498-2.8988,1.7509-4.6781,1.8036-36.2897,1.0737-72.5884,1.8376-108.8906,2.2917-.0116,12.973-.0232,25.9459-.0347,38.9189,31.3893-.3196,62.7763-.8276,94.1582-1.5243,1.7789-.0402,3.2801,.4371,4.5043,1.4209,1.2185,.9884,1.8315,2.2213,1.8286,3.6949-.0351,18.4515-.0701,36.9027-.1052,55.3542-.0029,1.4783-.6204,2.7339-1.8417,3.7628-1.2272,1.0343-2.7298,1.5607-4.5071,1.5847-31.3625,.429-62.728,.7417-94.095,.9384-.0117,13.0645-.0233,26.1289-.0349,39.1932,36.2456-.1417,72.4902-.381,108.732-.7168,1.7764-.0171,3.334,.4802,4.6654,1.4808,1.3316,1.0059,1.996,2.248,1.9931,3.7258-.0374,18.3978-.0748,36.7958-.1122,55.1936-.0033,1.6652-.672,3.0031-2.0078,4.0219-1.3347,1.0153-2.8931,1.5253-4.6688,1.5255h-195.6532Z"/><path class="uuid-f940cd3f-99f9-4ee3-adb7-6a57318f1411" d="M1179.9987,564.3557c.0054-1.742,.6198-3.1937,1.8467-4.3628,1.2232-1.1647,2.7252-1.8271,4.5067-1.9788,26.8973-2.2858,53.7803-4.7957,80.6463-7.5298,1.7752-.1808,3.3293,.21,4.6582,1.1675,1.3289,.9615,1.9901,2.3377,1.9851,4.1321-.282,95.7131-.5641,191.4265-.8462,287.1397-.0051,1.5941-.6752,2.9911-2.012,4.1882-1.3364,1.1965-2.8953,1.7932-4.6722,1.7941h-83.3268c-2.4484,.0006-4.3303-.9723-5.6572-2.9025-34.6096-53.5593-69.2303-105.5181-103.8947-156.4994-.1418,51.2496-.2835,102.4994-.4253,153.749-.0045,1.6963-.6747,3.0601-2.011,4.0986-1.3353,1.0342-2.8945,1.554-4.671,1.5542h-80.3271c-1.9993,.0005-3.6134-.512-4.8304-1.5286-1.2207-1.0199-1.8275-2.3602-1.8243-4.0267,.1882-88.8816,.3762-177.7632,.5643-266.6447,.0035-1.6661,.6177-3.0326,1.8458-4.1046,1.2241-1.0677,2.8438-1.65,4.8484-1.7374,27.8418-1.2141,55.6758-2.6675,83.4989-4.3605,2.4476-.1493,4.2237,.5885,5.3351,2.2167,34.8118,45.4478,69.5758,91.6143,104.3187,139.072,.1479-47.8121,.296-95.6244,.444-143.4365Z"/><path class="uuid-f940cd3f-99f9-4ee3-adb7-6a57318f1411" d="M1535.4231,522.2616c0,22.1096,0,44.2191,0,66.3286,0,1.7817-.6645,3.364-1.9911,4.7413-1.3268,1.3832-2.8766,2.1774-4.6443,2.3885-24.2198,2.8927-48.4561,5.6454-72.7071,8.2584-.1036,79.4995-.2071,158.999-.3107,238.4987-.0027,1.928-.6709,3.4812-2.0056,4.662-1.3357,1.176-2.8933,1.7673-4.6691,1.7668h-80.6609c-1.7809,.0004-3.2796-.5714-4.4959-1.702-1.2215-1.1359-1.8262-2.6266-1.8221-4.481,.1817-76.4594,.3634-152.9188,.5451-229.3783-24.2864,2.2535-48.5856,4.3676-72.8958,6.3411-1.998,.1627-3.6101-.2587-4.8249-1.262-1.2189-.9983-1.8243-2.2996-1.8195-3.9037,.0579-19.9071,.1157-39.8144,.1736-59.7217,.0052-1.8004,.6183-3.3119,1.8435-4.5431,1.2209-1.2262,2.8359-1.9514,4.8332-2.1642,79.7912-8.5038,159.4244-18.9874,238.8258-31.4511,1.7652-.2773,3.3125,.0917,4.6374,1.1017,1.3248,1.0146,1.9883,2.5208,1.9883,4.5199Z"/></g><g><g><g><g><g><path class="uuid-72be5811-ca78-44d4-aef4-175f5ccb0b90" d="M416.2695,562.14c-19.6582-12.5396-30.1126-33.9499-31.363-64.2208-.1325-3.2455-.1028-6.6725,.1094-10.291,3.1839-36.2231,9.6003-64.2891,19.2493-84.1879,2.7773-2.6409,6.5116-4.056,11.1928-4.2553,6.8448-.2843,14.1677,2.0309,21.9484,6.9454,7.7807,4.9145,13.0912,11.096,15.9314,18.5646,.7937,1.7815,1.2331,3.7439,1.3282,5.8974,.2842,6.8549-3.2925,20.7151-10.7303,41.6006-5.7423,18.2921-10.0806,33.3632-13.0149,45.2134-2.9444,11.8602-4.4939,20.1355-4.6586,24.8359,.1892,4.6812,.6857,7.9074,1.4794,9.6889,.7462,.6895,1.4832,1.0252,2.2112,.9969,3.9633-.1609,9.5652-4.2801,16.8158-12.3373,7.2506-8.0674,13.5439-17.2595,18.8901-27.5866,16.7281-31.7374,28.5589-51.0033,35.5027-57.7877,1.8189,.2881,2.9194,.7865,3.3117,1.4851,.0192,.364-1.1503,2.8477-3.4781,7.4511-2.3379,4.6135-5.1741,10.2365-8.5083,16.8691-8.0476,14.7778-14.0742,26.2251-18.0697,34.3217-15.9819,32.4269-31.3637,48.9535-46.1351,49.5696-3.9734,.1608-7.9742-.75-12.0225-2.7528l.0102-.0201Zm25.1249-190.5625c-14.3946-7.7028-21.8953-18.7631-22.4922-33.1807l-.1614-3.7814c.5325-13.3732,6.1927-20.2925,17.0109-20.7376,11.526-.4735,23.7195,6.2426,36.5703,20.1382,2.6784,3.8692,4.1323,8.1394,4.3216,12.8205,.3602,8.6445-3.4726,16.3877-11.488,23.2196-3.5053,2.6794-7.2295,4.0945-11.1928,4.2553-3.6095,.1517-7.8023-.7596-12.5685-2.724v-.0101Z"/><path class="uuid-72be5811-ca78-44d4-aef4-175f5ccb0b90" d="M612.9397,564.8087c-16.1669-6.5553-24.7658-22.6227-25.8271-48.2023-.9763-23.4261,4.4265-54.1436,16.2084-92.1827,4.4766-13.8981,7.8752-25.5043,10.1958-34.8086,2.3207-9.3043,3.4384-15.0332,3.3434-17.1968l-.0187-.546-1.0818,.0475c-3.9734,.1608-11.7882,7.5291-23.4544,22.0946-16.6777,24.5195-32.2803,65.965-46.8278,124.3163-3.7112,14.9515-6.5303,25.3564-8.4572,31.2144-1.9269,5.848-4.0925,10.2699-6.4866,13.2657-2.7682,2.9948-5.7649,4.5737-9.0104,4.7062-5.0451,.2084-10.1945-2.1108-15.4481-6.9375-5.2636-4.8469-9.3293-11.5303-12.207-20.0706-2.0748-6.4151-3.3535-15.5676-3.8462-27.4576-.9571-23.0621,.9108-47.6934,5.6034-73.8738,4.8626-21.8631,10.3927-36.5266,16.5802-44.0106,3.1413-2.65,6.6835-4.0656,10.6569-4.2366,6.8448-.2843,13.9945,2.4853,21.4593,8.3189,6.3445,5.1531,9.7211,12.4109,10.1096,21.7834,.2083,5.0553-.4547,10.8461-1.9893,17.4129-.8825,4.7287-1.3051,7.6391-1.2676,8.7107l.0187,.546c.3539-.0192,1.2886-1.6746,2.7737-4.9863,1.4852-3.3117,3.2149-7.3507,5.1793-12.127,19.2211-41.2232,38.3789-66.9287,57.4532-77.1064,2.4892-.8221,4.8156-1.2806,6.9793-1.3757,1.7997-.0759,3.9724,.2031,6.5284,.8167,16.8362,5.7989,25.7621,20.5935,26.7476,44.3734,.3409,8.2906-.3524,17.7106-2.08,28.2398-1.1332,7.6294-3.6601,18.3889-7.5906,32.2581-3.9407,13.8894-10.5221,35.8186-19.7442,65.7976-1.9077,6.212-3.3989,11.6871-4.4634,16.4254-1.0746,4.7282-1.578,7.6484-1.5305,8.7303l.0188,.5358c.3731,.3346,.9185,.4979,1.6465,.4696,3.2455-.1325,8.5499-2.7058,15.9234-7.6996,11.9029-8.8025,25.2175-27.2152,39.9438-55.2682,5.3745-9.6092,10.5144-18.4811,15.4098-26.6359,4.8953-8.1346,9.0384-14.8054,12.4395-20.0123,3.391-5.1969,5.4504-7.8095,6.1683-7.8378,1.4357-.0567,2.192,.6329,2.2486,2.0686,.1325,3.2455-3.5086,11.1611-10.9233,23.7368-7.7221,14.0407-14.7643,27.1431-21.1164,39.3275-18.7501,35.4318-36.0577,57.4424-51.9533,66.0519-3.8975,1.9605-7.1051,3.003-9.6125,3.1072-2.5276,.1042-5.4375-.5003-8.7396-1.8035l.0403,.0203Z"/><path class="uuid-72be5811-ca78-44d4-aef4-175f5ccb0b90" d="M761.5156,609.0046c-11.6312-1.6801-17.6876-8.6622-18.1995-20.9061-.0759-1.8098,.0206-3.791,.2996-5.9637,4.1616-38.8084,19.78-71.3981,46.8452-97.7893,8.427-5.7693,13.5038-13.7315,15.2506-23.9169,8.1402-29.9314,12.4012-53.5856,12.7627-70.9222,.2214-3.2546,.29-6.1457,.1858-8.6733-.1892-4.6812-1.0219-6.9985-2.4575-6.9418-2.1637,.085-5.9944,3.5014-11.4924,10.219-20.6501,24.3265-39.9039,73.6775-57.7511,148.0632-3.7304,14.5876-6.6061,23.5567-8.6372,26.8871-2.0685,2.2487-4.5486,3.4347-7.4302,3.5581-2.5276,.1042-5.6291-.6727-9.3043-2.3206-6.2504-2.6357-10.9772-7.8551-14.1905-15.6584-3.2133-7.8133-5.1705-20.1825-5.8716-37.1177-.2084-5.0451-.2541-10.4538-.1369-16.236,.0541-59.5642,10.1418-120.991,30.2632-184.2804,15.4892-44.3169,28.8662-74.3046,40.131-89.9327,3.4759-3.0333,7.7466-4.649,12.7918-4.8675,9.7263-.4077,18.9523,4.6321,27.6982,15.0994,2.65,3.1413,4.0945,7.2294,4.3028,12.2746,.3693,9.0085-4.1568,26.1616-13.5681,51.4594-4.5242,12.8263-9.0197,26.2795-13.4867,40.3596-4.4771,14.0901-8.6087,27.5241-12.4048,40.312-3.8063,12.798-6.7785,23.7483-8.9268,32.861s-3.1748,14.7509-3.0899,16.9145l.0475,1.0818c.7179-.0283,2.7394-3.5408,6.0645-10.5373,11.9864-24.3202,24.018-43.0498,36.1149-56.1887,3.8308-3.4063,8.0817-5.2041,12.773-5.4034,11.526-.4735,22.1867,8.4726,31.9824,26.828,3.7381,11.7574,5.934,25.5628,6.5977,41.4262,.2843,6.8448,.1763,12.991-.3241,18.4285-.5479,4.3556-.7783,7.2564-.7217,8.6921l.0475,1.0818c1.7997-.0759,7.3867-2.4765,16.7611-7.1918,9.3643-4.7254,15.976-8.4172,19.8452-11.1158,5.2381-4.1808,8.9441-6.3239,11.1078-6.419,1.7997-.0759,2.747,.968,2.832,3.1316,.1042,2.5276-3.6169,6.4701-11.1531,11.8374-7.5464,5.3673-16.9829,10.6385-28.3096,15.7931-6.7316,3.1759-10.9637,5.5095-12.7067,7.0211-1.3699,1.8664-2.7984,6.6139-4.2855,14.2524-7.7014,32.086-20.0931,64.0073-37.1851,95.7639-9.8483,15.2075-20.0095,26.6332-30.5243,34.2972-5.6497,3.1182-11.174,4.7911-16.5731,5.0188-2.1637,.085-4.1549-.0115-5.9637-.2895l-.01,.01Zm5.8671-41.4018c3.6791-7.0158,6.3329-12.5383,7.9718-16.5775,1.0059-1.8472,2.5533-5.7047,4.6622-11.5623,2.0988-5.8677,4.2795-12.089,6.5319-18.6842,2.2424-6.5952,4.2602-12.4429,6.0436-17.5836,1.7631-5.1206,2.6502-7.8678,2.6412-8.2318-.0284-.7178-.4115-1.0626-1.1294-1.0343-1.4458,.0566-4.8937,3.9089-10.3537,11.5263-5.46,7.6275-10.1736,15.8536-14.1407,24.6882-7.7633,21.6226-11.475,36.7561-11.1149,45.4006,.1042,2.5175,.5152,3.7722,1.2432,3.7439,1.0818-.0475,3.6301-3.9427,7.6347-11.6854h.0101Z"/><path class="uuid-72be5811-ca78-44d4-aef4-175f5ccb0b90" d="M996.7064,548.344c-12.4816-4.8972-19.3187-21.9404-20.5318-51.1295-.4361-10.4442,.0091-21.4722,1.3352-33.0842,1.1322-7.2655,1.6806-11.793,1.6047-13.6027l-.0475-1.0818-13.2958,18.9586c-10.5186,16.3277-18.8714,28.1325-25.0684,35.4244-6.197,7.2919-11.2535,11.5642-15.1692,12.817l-2.1637,.085c-6.1371,.2559-12.9704-3.6147-20.5202-11.6018-5.6935-6.6172-8.8664-18.0395-9.5392-34.2568l-.2651-6.491c.5775-29.6188,10.143-55.8261,28.6861-78.6218,5.507-6.3637,10.5445-11.0809,15.1123-14.1617,4.9409-2.7259,10.1109-4.2078,15.5201-4.4354,12.6078-.521,24.917,4.5678,36.9175,15.2564l6.756,6.2158,3.4212-8.8059c2.2899-5.5133,4.4934-9.0253,6.6004-10.5662,2.1161-1.1668,4.6149-1.817,7.4964-1.9404,4.6812-.1892,9.4195,.8753,14.215,3.2037,9.9347,4.6476,15.3117,12.3658,16.1208,23.1547l.0663,1.6177c.2083,5.0553-1.4136,13.9571-4.8458,26.7359-3.4423,12.7788-10.6132,35.8284-21.5024,69.1187-5.4168,17.555-8.5138,29.7687-9.3114,36.6711-.2405,2.8906-.3274,5.0639-.2708,6.5097,.1042,2.5175,1.2239,3.3799,3.3593,2.567,7.1987-.3035,16.8703-6.4838,29.0148-18.5308,12.1344-12.0571,22.24-25.2925,30.2968-39.7064,10.3567-19.9271,17.7433-33.3117,22.1601-40.1737,4.4065-6.8621,7.3276-10.3216,8.7734-10.3782,.7178-.0283,1.4928,1.2072,2.3149,3.6963l.0662,1.6177c.0758,1.8098-1.5635,6.0208-4.8877,12.6535-3.3343,6.6326-10.5676,19.3907-21.6998,38.2644-17.8959,29.9852-37.2237,51.3635-57.9833,64.1346-2.8349,1.5591-6.042,2.4196-9.6414,2.5612-4.6913,.1993-9.056-.7126-13.1144-2.7053l.0201,.0102Zm-24.1908-113.2515l-3.5105-6.3483c-2.7077-4.2231-4.4205-6.3104-5.1383-6.2821-1.0818,.0475-3.3329,2.4878-6.7329,7.3207-3.4101,4.8329-7.0554,10.5851-10.9255,17.2365-3.8803,6.6614-6.9608,12.9308-9.2416,18.798-5.9598,12.883-8.9023,20.4063-8.8073,22.57,.0283,.728,.2194,1.0722,.5834,1.0631,1.0818-.0475,3.6868-2.4969,7.8148-7.3683,6.1874-7.4739,13.7252-16.9962,22.6433-28.5568l13.3146-18.4228v-.0101Z"/><path class="uuid-72be5811-ca78-44d4-aef4-175f5ccb0b90" d="M1215.814,556.5846c-15.0092-4.7931-25.6489-17.712-31.929-38.7468-2.7038-12.8868-4.3918-27.6107-5.0837-44.192-.3602-8.6445-.3093-16.0444,.1627-22.2098,.3064-1.0909,.4604-2.0004,.4322-2.7283-.0193-.3539-.2108-.5364-.5647-.5172s-1.3697,1.7755-3.0272,5.2687c-1.6677,3.5033-4.3218,9.1168-7.9623,16.8504-13.9416,29.4604-24.8727,48.6783-32.8032,57.6739-3.4577,3.7511-7.3452,5.7217-11.6725,5.9018-5.4091,.2276-10.7405-2.082-15.994-6.9187-5.2636-4.8469-9.3389-11.7123-12.2257-20.6166-3.4218-12.8484-5.4259-26.4814-6.033-40.899-.256-6.127-.1293-11.7171,.3903-16.8007,4.7377-42.436,20.4599-72.3262,47.1766-89.6806,4.9025-3.4539,11.863-5.3655,20.8817-5.7448,9.7263-.4077,17.738,1.4342,24.0552,5.4955l12.701,5.9694,1.3526-6.5572c1.199-5.8197,3.5974-17.6511,7.1953-35.4942,8.97-44.7798,16.4132-78.5648,22.3299-101.3753,5.9065-22.8004,10.9576-36.1005,15.1332-39.89,3.476-3.0333,7.5646-4.6495,12.2558-4.8387,7.9266-.3318,15.9669,2.1369,24.1308,7.3962,8.1537,5.2593,12.3829,11.3164,12.6672,18.1511,.1609,3.9734-.9001,11.0571-3.1827,21.2512-2.2827,10.2041-7.5139,30.0949-15.6632,59.6725-20.9126,78.8455-36.3337,142.2996-46.2529,190.3623-4.816,23.3089-7.0055,39.9934-6.5888,50.0938,.3318,7.9267,.7027,12.6993,1.133,14.3079,.4202,1.6086,1.5402,2.3699,3.3399,2.294l1.0818-.0475c6.127-.2559,14.3912-5.6618,24.7825-16.1871,8.0064-7.1959,21.5422-28.8631,40.6179-65.0421,7.0417-12.9204,11.9182-21.6111,14.6197-26.0618,2.7014-4.4406,4.5981-6.6898,5.6799-6.7373,.7178-.0283,1.2729,.3068,1.6653,1.0156,.3731,.3447,.5839,.8811,.6122,1.599,.0567,1.4458-.9831,4.5566-3.1294,9.3324-2.1565,4.7858-6.0796,12.3469-11.7797,22.6932-29.7782,56.823-51.5797,88.0509-65.4249,93.6839-3.5143,2.3154-6.3483,3.5105-8.512,3.6056-1.8098,.0758-3.9921-.375-6.5572-1.3526l-.0104,.0202Zm-82.288-51.8164c18.1134-24.5762,34.8132-57.0314,50.1094-97.3859,2.2615-6.2312,3.3362-10.9695,3.2037-14.215-.1325-3.2455-1.4727-4.8162-3.9902-4.7119-5.4091,.2276-15.073,10.9167-28.9916,32.0673-4.7235,8.1452-9.0632,16.443-13.0495,24.9036-12.0095,32.63-17.7911,54.1671-17.3551,64.6214,.0849,2.1637,.4864,3.2262,1.2143,3.1979,1.0818-.0475,4.0214-2.8801,8.849-8.4875l.01,.0101Z"/></g><path class="uuid-72be5811-ca78-44d4-aef4-175f5ccb0b90" d="M1271.1088,495.8696c29.2964-112.7392,129.709-326.3341,212.1532-312.6498,82.4442,13.6944,68.64,132.0873,9.0445,161.5322-59.5955,29.4449-122.5599,34.2541-309.7226-53.8831-126.5958-59.6225-226.802-40.6018-270.7805-21.4149-47.8347,20.8644-26.8027,1.0174-26.8027,1.0174,122.3024-79.9289,287.9275-11.9489,451.9866,52.0336,164.0591,63.9825,203.8331-104.9761,128.4338-118.2163s-154.204,224.3436-154.204,224.3436c0,0-34.4821,134.4599-88.8562,129.315,0,0,48.9237-34.3776,48.7478-62.0676"/></g><path class="uuid-72be5811-ca78-44d4-aef4-175f5ccb0b90" d="M73.7831,500.7559s-.9399,196.6345,337.5574,114.4749c338.4973-82.1596,318.5248,76.8355,318.5248,76.8355,0,0-2.7097,11.0622-36.8812-35.6064-43.9003-59.9591-173.7448-52.7273-275.0984-17.3124-101.3435,35.4149-370.2806,34.608-344.1025-138.3916h0Z"/></g><path class="uuid-72be5811-ca78-44d4-aef4-175f5ccb0b90" d="M398.5164,460.5321c-2.5276,.1042-6.4717,.6291-11.8424,1.5745-3.9542,.5248-7.9079,.8677-11.8713,1.0386-14.7816,.6161-30.9398-1.7842-48.4949-7.1909-8.0309-2.1857-13.6162-4.0411-16.7459-5.5358-3.1298-1.4948-4.7229-2.9651-4.7897-4.4007-.0283-.7178-1.0516-3.5614-3.0596-8.5408-2.0182-4.9693-4.6-10.8197-7.7658-17.5512-18.6509-40.378-28.4397-72.098-29.3968-95.1702-.7678-18.3809,1.5629-27.6852,6.9619-27.9027,11.89-.4927,32.0273-11.2538,60.3919-32.2835,9.6795-9.021,18.4995-18.004,26.4905-26.9488-3.389-2.7693-6.8602-5.1142-10.3121-7.0951-13.0618,18.383-30.7349,33.6699-53.0498,45.8605-8.8284,4.6966-15.2055,7.6713-19.1213,8.9139l-5.8974,1.3282,2.4157-7.1406c9.0685-22.0132,23.0543-41.8696,41.8968-59.5997-1.2331-.1045-1.9204-.1165-1.9204-.1165,0,0-79.9662,7.6937-112.0529,65.8346-.3255,4.3765-.3042,11.2509,.0942,20.6941,1.1371,27.3894,8.9846,55.586,23.5425,84.5796,2.8018,6.7406,5.1114,12.3375,6.9188,16.7704,1.8074,4.443,2.7303,7.0235,2.7586,7.7413-1.4458,.0566-6.0022-1.0074-13.669-3.2224-15.3439-4.4098-30.7756-6.3027-46.2649-5.6582-12.9718,.5402-25.1499,2.8518-36.5342,6.9347-20.9691,8.1001-36.9133,19.6715-47.8328,34.7446-10.9296,15.0731-16.0105,31.8001-15.2426,50.181,.4451,10.8081,3.0731,21.8953,7.8739,33.2513,20.7852,39.929,54.8265,64.3264,102.134,73.1921,5.8105,.8451,12.6741,1.0966,20.6109,.7649,16.2173-.6728,30.7405-2.897,43.5798-6.6827,36.5947-14.1627,58.4708-39.4361,65.6281-75.8302,1.5721-5.485,2.1972-12.1858,1.8755-20.1124-.1518-3.5994-.5042-7.7351-1.0574-12.4071-1.2298-12.2155-2.2891-20.2958-3.1678-24.2308l-1.2806-4.8156,17.5455,5.2247c17.5358,5.0528,33.6845,7.261,48.466,6.655,3.9633-.1609,7.735-.4941,11.3253-1.0098,10.799-.799,16.1035-3.3723,15.9234-7.6996,.9584-2.929-.7159-4.2985-5.0433-4.1184l-.0202-.0203Zm-157.452,94.2574c-12.4791,12.4302-26.9572,20.245-43.4343,23.4646-5.7256,1.3186-10.9239,2.0825-15.605,2.2717-5.7731,.2367-11.756-.4168-17.9488-1.9605-20.7621-4.5563-38.0617-14.5822-51.8787-30.0677-13.8271-15.4855-21.1093-32.4287-21.8671-50.8097-.2084-5.0451,.1286-9.927,1.0213-14.6659,4.8059-23.2988,19.4036-41.4147,43.7727-54.3376,13.4246-7.0595,27.3457-10.8827,41.7633-11.4795,4.3273-.1801,8.6637,.0038,13.0194,.5416,22.4859,2.6807,39.4479,6.8524,50.876,12.5049,6.1606,9.4896,12.5781,24.7523,19.2223,45.7679,1.7392,7.1522,2.7509,14.1506,3.0352,20.9955,.9095,21.9904-6.4126,41.2385-21.9662,57.7646l-.0101,.0101Z"/></g><g><path class="uuid-f940cd3f-99f9-4ee3-adb7-6a57318f1411" d="M350.9502,206.1093c-33.7609,2.0899-119.8905,12.2434-147.626,61.591,0,0-26.3391-34.9201-3.7699-58.6245,21.9203-23.0188,127.6225-58.9979,185.7452-16.721,4.308,3.1357,5.434,9.0124,2.0867,13.0772-2.4344,2.9553-6.8579,5.0053-14.869,2.9612-7.0311-1.7886-14.2668-2.7388-21.567-2.2839Z"/><path class="uuid-f940cd3f-99f9-4ee3-adb7-6a57318f1411" d="M356.6399,174.0076c-24.7217-5.74-88.7222-17.331-118.3122,8.1433,0,0-12.1557-27.6323,8.7286-37.9364,20.2768-10.0025,103.408-10.6918,137.0146,28.2618,2.489,2.8881,2.1545,6.85-1.0453,8.7215-2.3289,1.3583-5.9087,1.7426-11.2887-1.2343-4.7139-2.6011-9.7424-4.7178-15.0869-5.9558h-.0101Z"/><path class="uuid-f940cd3f-99f9-4ee3-adb7-6a57318f1411" d="M187.4781,324.0464c.8153,1.2963,2.7984,.6851,2.6712-.8519l-2.1702-26.6846s1.1765-26.8876-44.669-23.4058c-45.8455,3.4818-80.913,75.6664-130.3341,34.3134,0,0,.4713,8.6751,3.3346,18.752,5.7366,20.2043,27.1875,31.5661,47.1212,24.9796,13.7715-4.5514,31.5565-12.812,44.7389-27.3127,22.4405-24.6854,65.408-21.9984,79.2973,.1998l.0101,.0101Z"/><path class="uuid-f940cd3f-99f9-4ee3-adb7-6a57318f1411" d="M324.3239,216.3975s33.6661-4.3446,50.1176,1.6656c2.6157,.9575,3.324,4.336,1.3876,6.3323l-7.7965,8.0659c-1.3788,1.4317-3.6034,1.5974-5.177,.3698-5.6692-4.4032-19.9169-14.0567-38.5418-16.4336h.0101Z"/></g></g></svg>