<?xml version="1.0" encoding="UTF-8"?><svg id="uuid-4d6e9586-f132-4d7f-81d6-ccec62b5c916" xmlns="http://www.w3.org/2000/svg" width="114.5605" height="122.834" viewBox="0 0 114.5605 122.834"><defs><style>.uuid-67bac20b-3b00-41d1-aa4c-7825c88c6f4d{fill:#e55b2d;}.uuid-b8812795-5f89-452a-aba9-26649ff27578{fill:#f8bf3c;}.uuid-bba8c274-c2ec-4249-bc35-2163c206ab9c{fill:#ed8e24;}</style></defs><g id="uuid-aa94d362-da42-4f7e-a29f-31aff6069d4b"><g id="uuid-6442257f-e18f-4b51-90f7-ea51749da4a0"><path id="uuid-f7835acf-6e5d-4cb4-a611-db7d19d6c7a4" class="uuid-67bac20b-3b00-41d1-aa4c-7825c88c6f4d" d="M65.4629,18.8965v18.8984l32.7305,18.8984v-18.8984l-32.7305-18.8984ZM0,37.7949v18.8984l16.3652,9.4473v-18.8965L0,37.7949Zm49.0957,9.4492l-16.3652,9.4492v56.6914l16.3652,9.4492v-37.7949l16.3672,9.4492v-18.8984l-16.3672-9.4492v-18.8965Z"/><path id="uuid-81cd5834-18e0-4c82-b094-d42dbbbee332" class="uuid-bba8c274-c2ec-4249-bc35-2163c206ab9c" d="M65.4629,18.8965L16.3652,47.2441v18.8965l32.7305-18.8965v18.8965l16.3672-9.4473V18.8965Zm49.0977,9.4492l-16.3672,9.4492v18.8984l16.3672-9.4492V28.3457Zm-32.7324,37.7949l-16.3652,9.4492v18.8984l16.3652-9.4492v-18.8984Zm-16.3652,28.3477l-16.3672-9.4492v37.7949l16.3672-9.4492v-18.8965Z"/><path id="uuid-8c76f5e1-1ab9-474f-ab18-38d1ec1021e9" class="uuid-b8812795-5f89-452a-aba9-26649ff27578" d="M65.4629,0L0,37.7949l16.3652,9.4492,49.0977-28.3477,32.7305,18.8984,16.3672-9.4492L65.4629,0Zm0,56.6934l-16.3672,9.4473,16.3672,9.4492,16.3652-9.4492-16.3652-9.4473Z"/></g></g></svg>